<?xml version="1.0" standalone="no"?>
<!DOCTYPE svg PUBLIC "-//W3C//DTD SVG 1.1//EN" "http://www.w3.org/Graphics/SVG/1.1/DTD/svg11.dtd">
<svg xmlns="http://www.w3.org/2000/svg">
<defs >
<font id="BaiJamjuree" horiz-adv-x="549" ><font-face
    font-family="Bai Jamjuree Light"
    units-per-em="1000"
    panose-1="0 0 4 0 0 0 0 0 0 0"
    ascent="1000"
    descent="-250"
    alphabetic="0" />
<glyph unicode=" " glyph-name="space" horiz-adv-x="253" />
<glyph unicode="!" glyph-name="exclam" horiz-adv-x="266" d="M186 700H240L147 174H93L186 700ZM71 -10T61 0T50 26Q50 50 64 65T103 80Q120 80 130 71T141 45Q141 20 127 5T88 -10Q71 -10 61 0Z" />
<glyph unicode="&quot;" glyph-name="quotedbl" horiz-adv-x="320" d="M142 700H196L160 494H106L142 700ZM284 700H338L302 494H248L284 700Z" />
<glyph unicode="#" glyph-name="numbersign" horiz-adv-x="679" d="M181 193H53L61 240H189L227 457H100L108 505H236L270 700H323L289 505H481L516 700H568L534 505H662L654 457H525L487 240H615L607 193H479L445 0H392L426 193H234L200 0H147L181 193ZM435 241L473
457H280L242 241H435Z" />
<glyph unicode="$" glyph-name="dollar" horiz-adv-x="620" d="M549 530Q552 545 552 558Q552 604 523 631T445 659H332Q269 659 229 632T180 555L169 497Q168 491 168 480Q168 447 191 425T255 395L428 364Q490 354 525 320T560 238Q560 231 558 215L546 147Q532
73 478 33T335 -8H299L282 -105H228L245 -8H221Q140 -8 94 33T48 146Q48 169 52 189H105Q102 171 102 154Q102 102 133 72T221 42H333Q399 42 440 69T491 147L503 215Q504 220 504 229Q504 262 481 285T415 315L241 345Q180 355 146 389T112 473Q112 481 114 497L125
555Q138 628 192 668T332 708H372L389 805H442L425 708H445Q520 708 562 670T605 567Q605 550 602 530H549Z" />
<glyph unicode="%" glyph-name="percent" horiz-adv-x="942" d="M716 722H770L262 -25H208L716 722ZM147 259T117 288T86 368Q86 383 89 399L118 567Q130 633 168 670T263 707H320Q372 707 402 678T432 598Q432 584 429 567L400 399Q388 333 350 296T256 259H199Q147
259 117 288ZM256 303Q293 303 318 328T351 399L381 567Q383 576 383 592Q383 625 367 644T320 663H263Q225 663 200 638T167 567L137 399Q135 390 135 375Q135 342 152 323T199 303H256ZM607 -8T577 21T546 101Q546 116 549 132L578 300Q590 366 628 403T723 440H780Q832
440 862 411T892 331Q892 317 889 300L860 132Q848 66 810 29T716 -8H659Q607 -8 577 21ZM716 36Q753 36 778 61T811 132L841 300Q843 309 843 325Q843 358 827 377T780 396H723Q685 396 660 371T627 300L597 132Q595 123 595 108Q595 75 612 56T659 36H716Z" />
<glyph unicode="&amp;" glyph-name="ampersand" horiz-adv-x="634" d="M543 198T486 121L562 0H500L451 79Q409 37 359 15T255 -8H206Q131 -8 87 27T43 121Q43 139 45 148L53 193Q61 239 86 272T150 332T254 393L229 434Q202 481 202 527Q202 535 204 551L208
573Q220 635 264 671T372 708H411Q468 708 501 680T534 604Q534 587 532 578L528 556Q522 525 507 503T456 455T349 391L326 378L458 166Q498 225 517 303H568Q543 198 486 121ZM253 539T253 526Q253 493 271 464L301 413L327 428Q386 461 413 478T456 514T476
556L480 578Q482 590 482 596Q482 626 463 643T410 661H372Q327 661 298 637T260 573L256 552Q253 539 253 526ZM349 41T424 122L278 354L258 343Q208 315 181 297T134 254T107 193L99 148Q97 134 97 129Q97 89 126 65T206 41H255Q349 41 424 122Z" />
<glyph unicode="&apos;" glyph-name="quotesingle" horiz-adv-x="178" d="M142 700H196L160 494H106L142 700Z" />
<glyph unicode="(" glyph-name="parenleft" horiz-adv-x="298" d="M46 -53T46 98Q46 166 61 240L65 260Q91 393 143 499T278 700H335Q249 599 197 492T119 260L115 240Q101 170 101 107Q101 -41 176 -202H119Q46 -53 46 98Z" />
<glyph unicode=")" glyph-name="parenright" horiz-adv-x="298" d="M48 -100T100 7T179 238L183 258Q196 323 196 390Q196 541 121 700H178Q251 551 251 399Q251 333 237 258L233 238Q207 106 155 -1T19 -202H-38Q48 -100 100 7Z" />
<glyph unicode="*" glyph-name="asterisk" horiz-adv-x="436" d="M253 581L129 510L115 549L247 617L139 685L167 724L266 653L287 773H333L312 653L437 724L450 685L318 617L427 549L399 510L299 581L278 461H232L253 581Z" />
<glyph unicode="+" glyph-name="plus" horiz-adv-x="567" d="M266 300H71L80 348H274L309 543H363L328 348H523L514 300H320L285 105H231L266 300Z" />
<glyph unicode="," glyph-name="comma" horiz-adv-x="208" d="M-40 -79L-25 -70Q10 -49 28 -24T53 38L61 85H115L107 38Q96 -16 71 -52T-1 -113L-17 -122L-40 -79Z" />
<glyph unicode="-" glyph-name="hyphen" horiz-adv-x="389" d="M68 279H332L324 231H59L68 279Z" />
<glyph unicode="." glyph-name="period" horiz-adv-x="214" d="M45 -10T35 0T24 26Q24 50 38 65T77 80Q94 80 104 71T115 45Q115 20 101 5T62 -10Q45 -10 35 0Z" />
<glyph unicode="/" glyph-name="slash" horiz-adv-x="514" d="M500 722H557L50 -25H-8L500 722Z" />
<glyph unicode="0" glyph-name="zero" horiz-adv-x="639" d="M154 -8T108 37T61 160Q61 186 65 207L115 493Q133 594 192 651T340 708H446Q525 708 570 663T615 542Q615 521 610 493L560 207Q542 106 483 49T336 -8H230Q154 -8 108 37ZM334 42Q400 42 445 86T505
207L555 493Q559 513 559 535Q559 592 528 625T443 659H341Q274 659 229 615T170 493L120 207Q116 188 116 166Q116 109 147 76T232 42H334Z" />
<glyph unicode="1" glyph-name="one" horiz-adv-x="350" d="M272 642L97 560L106 613L285 700H337L214 0H159L272 642Z" />
<glyph unicode="2" glyph-name="two" d="M23 47Q33 103 56 144T134 223L416 423Q481 468 491 525L497 557Q499 571 499 577Q499 615 472 637T399 659H306Q248 659 208 622T156 518H102Q118 608 172 658T307 708H401Q471 708 513 675T555 585Q555 572 552 557L546
525Q531 446 445 385L172 194Q128 163 108 132T79 50H472L463 0H15L23 47Z" />
<glyph unicode="3" glyph-name="three" horiz-adv-x="583" d="M484 708T526 672T569 576Q569 560 566 543L559 503Q550 454 520 417T445 360Q481 345 502 314T523 242Q523 228 520 211L513 171Q499 87 443 40T300 -8H202Q126 -8 82 33T37 145Q37 167 41 187H95Q92
169 92 154Q92 103 122 73T203 42H300Q364 42 406 76T459 171L466 211Q468 229 468 237Q468 284 437 309T349 335H249L258 383H357Q416 383 455 415T504 503L511 543Q513 552 513 568Q513 610 486 634T411 659H314Q253 659 212 621T159 514H104Q120 605 175 656T314
708H411Q484 708 526 672Z" />
<glyph unicode="4" glyph-name="four" horiz-adv-x="573" d="M375 149H56Q14 149 20 182L24 200L474 700H527L438 198H526L518 149H430L403 0H348L375 149ZM386 198L460 615H459L85 198H386Z" />
<glyph unicode="5" glyph-name="five" horiz-adv-x="591" d="M132 -8T89 30T45 133Q45 150 48 168H102Q100 159 100 141Q100 95 128 69T206 42H301Q366 42 409 78T463 179L475 243Q477 261 477 268Q477 316 445 343T356 371H109L168 700H585L576 651H214L173 421H357Q438
421 485 382T533 277Q533 261 530 243L518 179Q502 91 445 42T301 -8H206Q132 -8 89 30Z" />
<glyph unicode="6" glyph-name="six" horiz-adv-x="599" d="M157 -8T109 38T61 162Q61 184 66 212L113 480Q133 587 194 647T345 708H431Q501 708 542 670T584 567Q584 546 580 527H527Q530 544 530 558Q530 605 504 632T431 659H345Q277 659 230 612T168 480L142
335Q180 386 227 413T327 440H392Q466 440 510 399T555 287Q555 265 551 246L543 202Q525 103 464 48T312 -8H239Q157 -8 109 38ZM312 42Q381 42 428 84T488 202L496 247Q499 265 499 280Q499 331 470 361T391 391H325Q263 391 209 347T129 239L121 197Q118 179
118 161Q118 106 151 74T241 42H312Z" />
<glyph unicode="7" glyph-name="seven" horiz-adv-x="485" d="M123 22Q132 72 149 119T187 201L466 651H97L106 700H539L532 664L246 201Q222 163 204 115T178 22L174 0H119L123 22Z" />
<glyph unicode="8" glyph-name="eight" horiz-adv-x="613" d="M134 -8T85 31T35 137Q35 152 38 168L44 200Q54 253 87 295T182 360V361Q118 401 118 472Q118 487 121 503L128 542Q142 620 197 664T336 708H422Q501 708 547 672T593 573Q593 559 590 542L583 503Q574
456 546 419T471 360V359Q513 339 534 306T555 232Q555 217 552 200L547 168Q533 85 474 39T323 -8H217Q134 -8 85 31ZM375 382Q433 382 476 415T528 503L535 543Q537 559 537 566Q537 608 507 633T422 659H336Q274 659 233 629T182 543L175 503Q173 487 173 480Q173
436 203 409T285 382H375ZM323 42Q392 42 436 75T492 168L497 200Q499 209 499 225Q499 275 464 304T367 334H277Q208 334 159 298T99 200L93 168Q91 152 91 145Q91 98 125 70T218 42H323Z" />
<glyph unicode="9" glyph-name="nine" horiz-adv-x="604" d="M143 -8T100 30T57 133Q57 151 60 169H113Q111 160 111 142Q111 96 139 69T219 42H305Q369 42 412 85T470 207L495 347Q455 304 413 282T319 260H252Q176 260 132 301T88 415Q88 438 92 458L100 503Q117
600 179 654T336 708H406Q488 708 535 666T582 551Q582 528 578 508L525 207Q506 105 449 49T304 -8H218Q143 -8 100 30ZM322 310Q381 310 434 346T510 434L524 512Q527 529 527 543Q527 596 495 627T406 659H336Q264 659 217 618T155 503L147 458Q144 440 144
424Q144 371 173 341T252 310H322Z" />
<glyph unicode=":" glyph-name="colon" horiz-adv-x="214" d="M113 374T103 383T92 409Q92 434 106 449T145 464Q162 464 172 454T183 428Q183 404 169 389T130 374Q113 374 103 383ZM53 33T43 42T32 68Q32 93 46 108T85 123Q102 123 112 113T123 87Q123 63 109
48T70 33Q53 33 43 42Z" />
<glyph unicode=";" glyph-name="semicolon" horiz-adv-x="217" d="M115 374T105 383T95 409Q95 434 109 449T148 464Q165 464 175 454T186 428Q186 404 172 389T132 374Q115 374 105 383ZM-41 -79L-26 -70Q8 -50 26 -24T52 38L60 85H114L106 38Q96 -15 70 -51T-2
-113L-18 -122L-41 -79Z" />
<glyph unicode="&lt;" glyph-name="less" horiz-adv-x="575" d="M47 273L55 320L571 586L560 525L108 294L479 62L469 7L47 273Z" />
<glyph unicode="=" glyph-name="equal" horiz-adv-x="524" d="M93 422H493L484 375H84L93 422ZM61 244H461L453 196H53L61 244Z" />
<glyph unicode="&gt;" glyph-name="greater" horiz-adv-x="575" d="M31 69L483 300L112 532L121 586L545 320L537 273L20 7L31 69Z" />
<glyph unicode="?" glyph-name="question" horiz-adv-x="558" d="M243 216Q250 256 270 286T316 337T381 386Q429 419 454 444T486 504L493 549Q495 563 495 570Q495 611 468 634T391 658H305Q244 658 203 625T151 536H97Q111 615 167 661T305 708H391Q465 708
507 673T550 578Q550 559 548 549L541 504Q532 455 503 425T419 356Q365 319 336 289T297 210L288 161H233L243 216ZM214 -10T204 0T193 26Q193 50 208 65T247 80Q264 80 274 71T285 45Q285 20 270 5T231 -10Q214 -10 204 0Z" />
<glyph unicode="@" glyph-name="at" horiz-adv-x="866" d="M175 -29T114 25T53 172Q53 198 57 221L95 436Q119 573 207 649T428 726H626Q693 726 743 702T821 633T849 530Q849 505 845 484L814 307Q801 233 764 192T673 151H641Q609 151 585 169T556 218H555Q530
182 495 162T425 141H371Q317 141 285 172T252 258Q252 274 255 290L272 385Q286 461 331 503T445 546H493Q525 546 552 531T590 492L599 540H647L599 269Q597 257 597 252Q597 228 610 213T647 198H677Q709 198 731 227T763 307L794 484Q798 503 798 525Q798 595
752 636T626 678H428Q316 678 242 614T147 436L109 221Q105 201 105 179Q105 106 151 63T278 20H454Q495 20 540 32T619 64L639 24Q605 0 555 -14T451 -29H278Q175 -29 114 25ZM424 187Q469 187 504 218T554 302L572 404Q574 448 553 474T493 500H446Q398 500 366
470T323 385L306 290Q304 281 304 264Q304 229 322 208T373 187H424Z" />
<glyph unicode="A" glyph-name="A" horiz-adv-x="638" d="M472 204H156L44 0H-16L374 700H400Q424 700 430 669L566 0H512L472 204ZM182 251H463L390 626H389L182 251Z" />
<glyph unicode="B" glyph-name="B" horiz-adv-x="655" d="M73 0T62 10T50 39Q50 47 51 51L165 700H451Q527 700 572 667T617 578Q617 565 614 551L604 494Q596 452 572 418T514 365V364Q556 354 579 324T603 253Q603 236 601 227L591 173Q577 91 522 46T381 0H93Q73
0 62 10ZM419 377Q467 377 503 409T549 494L559 551Q561 563 561 569Q561 607 531 629T450 651H211L163 377H419ZM377 50Q441 50 483 82T536 173L546 227Q548 239 548 245Q548 283 521 306T445 330H155L105 50H377Z" />
<glyph unicode="C" glyph-name="C" horiz-adv-x="653" d="M158 -8T109 43T59 183Q59 216 64 241L103 460Q124 577 191 642T359 708H466Q551 708 600 663T650 539Q650 515 646 494H593Q596 514 596 530Q596 590 561 624T465 659H359Q281 659 228 607T158 460L119
241Q114 211 114 190Q114 122 149 82T246 42H354Q428 42 480 91T547 223H601Q582 117 516 55T354 -8H245Q158 -8 109 43Z" />
<glyph unicode="D" glyph-name="D" horiz-adv-x="667" d="M72 0T61 10T50 38Q50 47 51 51L165 700H440Q537 700 593 652T649 521Q649 497 645 476L604 245Q583 124 514 62T330 0H93Q72 0 61 10ZM330 50Q421 50 477 99T549 245L590 476Q593 496 593 514Q593 578
552 614T437 651H211L105 50H330Z" />
<glyph unicode="E" glyph-name="E" horiz-adv-x="593" d="M73 0T62 10T51 39Q51 48 52 53L166 700H616L608 652H213L165 382H530L521 334H156L106 49H501L492 0H93Q73 0 62 10Z" />
<glyph unicode="F" glyph-name="F" horiz-adv-x="569" d="M165 700H606L598 651H212L163 374H512L504 325H154L97 0H42L165 700Z" />
<glyph unicode="G" glyph-name="G" horiz-adv-x="677" d="M160 -8T110 44T59 184Q59 208 64 241L103 460Q124 577 192 642T363 708H469Q556 708 606 662T657 538Q657 514 653 494H599Q603 520 603 531Q603 590 567 624T468 659H362Q282 659 228 607T158 460L119
241Q114 211 114 191Q114 122 150 82T249 42H357Q436 42 488 90T557 225L572 305H373L381 354H634L611 225Q591 115 524 54T356 -8H248Q160 -8 110 44Z" />
<glyph unicode="H" glyph-name="H" horiz-adv-x="686" d="M165 700H220L164 378H567L624 700H679L556 0H501L558 329H155L97 0H42L165 700Z" />
<glyph unicode="I" glyph-name="I" horiz-adv-x="241" d="M172 700H227L104 0H49L172 700Z" />
<glyph unicode="J" glyph-name="J" horiz-adv-x="571" d="M114 -8T71 37T28 159Q28 180 33 208H88Q84 187 84 163Q84 107 110 75T184 42H274Q334 42 376 90T433 224L517 700H572L488 224Q468 113 414 53T274 -8H184Q114 -8 71 37Z" />
<glyph unicode="K" glyph-name="K" horiz-adv-x="618" d="M298 388L542 0H478L256 350L141 248L97 0H42L165 700H220L155 324L574 700H647L298 388Z" />
<glyph unicode="L" glyph-name="L" horiz-adv-x="553" d="M72 0T61 10T50 40Q50 48 51 52L166 700H221L106 50H486L477 0H93Q72 0 61 10Z" />
<glyph unicode="M" glyph-name="M" horiz-adv-x="788" d="M165 700H216L388 220L723 700H781L658 0H604L709 597L411 171Q402 158 396 153T382 148H365L201 597L96 0H42L165 700Z" />
<glyph unicode="N" glyph-name="N" horiz-adv-x="683" d="M165 700H215L515 87L623 700H676L553 0H503L203 612L95 0H42L165 700Z" />
<glyph unicode="O" glyph-name="O" horiz-adv-x="689" d="M164 -8T112 43T59 182Q59 204 64 236L104 464Q124 579 193 643T365 708H469Q561 708 613 657T666 518Q666 496 661 464L621 236Q601 121 532 57T359 -8H255Q164 -8 112 43ZM358 42Q440 42 494 93T566
236L606 464Q610 487 610 511Q610 580 572 619T468 659H366Q285 659 231 608T159 464L119 236Q115 215 115 189Q115 121 152 82T256 42H358Z" />
<glyph unicode="P" glyph-name="P" horiz-adv-x="617" d="M165 700H486Q555 700 595 668T635 580Q635 567 632 552L612 441Q599 365 547 322T416 279H147L97 0H42L165 700ZM416 329Q473 329 510 359T557 442L577 553Q579 567 579 573Q579 608 554 629T485 651H212L155
329H416Z" />
<glyph unicode="Q" glyph-name="Q" horiz-adv-x="692" d="M561 708T613 657T666 518Q666 496 661 464L621 237Q604 144 545 78L607 4L567 -32L505 42Q438 -8 354 -8H255Q164 -8 112 43T59 182Q59 204 64 236L104 464Q124 579 193 643T365 708H469Q561 708 613
657ZM610 487T610 511Q610 580 572 619T468 659H366Q285 659 231 608T159 464L119 236Q115 215 115 189Q115 121 152 81T256 41H355Q420 41 473 80L387 183L428 218L512 117Q554 167 566 237L606 464Q610 487 610 511Z" />
<glyph unicode="R" glyph-name="R" horiz-adv-x="643" d="M165 700H488Q556 700 595 668T634 581Q634 567 631 552L617 474Q607 419 568 380T466 325L465 324Q493 308 511 275T534 195L555 0H499L477 195Q471 248 442 279T369 310H152L97 0H42L165 700ZM410 359Q469
359 511 391T562 474L576 554Q578 566 578 573Q578 608 553 629T486 651H212L161 359H410Z" />
<glyph unicode="S" glyph-name="S" horiz-adv-x="620" d="M140 -8T94 33T48 146Q48 169 52 189H105Q102 171 102 154Q102 102 133 72T221 42H333Q399 42 440 69T491 147L503 215Q504 220 504 229Q504 262 481 285T415 315L241 345Q180 355 146 389T112 473Q112
481 114 497L125 555Q138 628 192 668T332 708H445Q520 708 562 670T605 567Q605 550 602 530H549Q552 545 552 558Q552 604 523 631T445 659H332Q269 659 229 632T180 555L169 497Q168 491 168 480Q168 447 191 425T255 395L428 364Q490 354 525 320T560 238Q560
231 558 215L546 147Q532 73 478 33T335 -8H221Q140 -8 94 33Z" />
<glyph unicode="T" glyph-name="T" horiz-adv-x="571" d="M329 652H107L116 700H614L606 652H384L269 0H214L329 652Z" />
<glyph unicode="U" glyph-name="U" horiz-adv-x="685" d="M168 -8T120 39T72 165Q72 190 76 213L161 700H216L131 212Q127 193 127 171Q127 112 160 77T251 42H360Q432 42 480 87T542 212L627 700H682L597 213Q578 108 516 50T360 -8H251Q168 -8 120 39Z" />
<glyph unicode="V" glyph-name="V" horiz-adv-x="626" d="M239 0T232 36L107 700H161L276 68H277L616 700H677L296 0H269Q239 0 232 36Z" />
<glyph unicode="W" glyph-name="W" horiz-adv-x="836" d="M146 0T136 12T124 51L119 700H172L174 68H175L467 663H489Q519 663 523 630L592 68H593L818 700H875L641 51Q631 26 617 13T580 0H556L481 588H480L192 0H168Q146 0 136 12Z" />
<glyph unicode="X" glyph-name="X" horiz-adv-x="601" d="M289 360L110 700H169L325 402L583 700H649L350 355L536 0H478L314 312L44 0H-23L289 360Z" />
<glyph unicode="Y" glyph-name="Y" horiz-adv-x="614" d="M283 268L101 700H157L315 318L608 700H671L338 268L291 0H236L283 268Z" />
<glyph unicode="Z" glyph-name="Z" horiz-adv-x="575" d="M9 26L521 653H137L145 700H606L602 675L90 48H482L473 0H4L9 26Z" />
<glyph unicode="[" glyph-name="bracketleft" horiz-adv-x="307" d="M99 -207T65 -176T31 -89Q31 -71 34 -53L146 581Q159 654 206 694T326 735H350L342 687H318Q272 687 241 659T200 581L88 -53Q86 -62 86 -79Q86 -116 108 -137T169 -158H193L184 -207H160Q99
-207 65 -176Z" />
<glyph unicode="\" glyph-name="backslash" horiz-adv-x="511" d="M127 722H178L419 -25H369L127 722Z" />
<glyph unicode="]" glyph-name="bracketright" horiz-adv-x="307" d="M-30 -158H-6Q41 -158 72 -130T113 -53L224 581Q226 597 226 605Q226 643 204 665T144 687H120L128 735H152Q212 735 246 702T281 613Q281 598 278 581L167 -53Q154 -127 107 -167T-14 -207H-38L-30
-158Z" />
<glyph unicode="^" glyph-name="asciicircum" horiz-adv-x="533" d="M316 700H376L493 374H439L341 655L143 374H84L316 700Z" />
<glyph unicode="_" glyph-name="underscore" horiz-adv-x="511" d="M-45 -9H465L457 -57H-54L-45 -9Z" />
<glyph unicode="`" glyph-name="grave" horiz-adv-x="258" d="M141 729H202L260 585H211L141 729Z" />
<glyph unicode="a" glyph-name="a" horiz-adv-x="548" d="M117 -8T79 22T41 103Q41 110 43 126L50 166Q61 229 106 263T222 297H287Q322 297 360 286T421 255L438 353Q440 369 440 376Q440 415 417 437T353 460H275Q226 460 194 438T155 379H102Q112 438 159 472T275
507H353Q418 507 455 474T493 385Q493 370 490 353L428 0H377L391 78Q356 37 318 15T242 -8H181Q117 -8 79 22ZM244 40Q286 40 329 70T402 149L411 203Q393 224 359 237T287 250H222Q174 250 143 228T104 165L97 126Q95 114 95 109Q95 77 118 59T181 40H244Z" />
<glyph unicode="b" glyph-name="b" horiz-adv-x="571" d="M191 -8T157 15T103 76L90 0H38L161 700H215L168 429Q196 465 234 486T310 507H380Q448 507 487 469T526 365Q526 353 522 325L498 185Q482 95 430 44T300 -8H231Q191 -8 157 15ZM299 40Q355 40 394 79T444
185L469 325Q472 343 472 358Q472 405 447 432T379 459H312Q255 459 210 420T148 316L121 166Q121 115 153 78T231 40H299Z" />
<glyph unicode="c" glyph-name="c" horiz-adv-x="529" d="M125 -8T85 29T44 130Q44 141 48 167L75 322Q91 409 143 458T271 507H353Q421 507 460 475T500 388Q500 371 498 362H446Q448 374 448 380Q448 416 423 437T353 459H271Q215 459 178 423T129 322L101 167Q98
152 98 138Q98 93 125 67T198 40H280Q333 40 368 73T415 167H467Q451 84 402 38T280 -8H196Q125 -8 85 29Z" />
<glyph unicode="d" glyph-name="d" horiz-adv-x="570" d="M123 -8T85 30T46 135Q46 158 50 179L73 313Q88 401 142 454T275 507H351Q389 507 421 489T469 439L515 700H569L445 0H393L408 84Q375 40 338 16T261 -8H192Q123 -8 85 30ZM261 40Q309 40 355 81T424
182L453 344Q451 395 423 427T350 459H276Q221 459 180 419T127 313L103 179Q100 160 100 142Q100 94 124 67T193 40H261Z" />
<glyph unicode="e" glyph-name="e" horiz-adv-x="545" d="M129 -8T87 30T45 132Q45 149 48 167L75 322Q91 409 143 458T275 507H356Q424 507 464 468T505 364Q505 346 502 326L488 242H115L102 167Q100 157 100 139Q100 94 127 67T201 40H277Q334 40 370 70T417
154H470Q456 77 406 35T277 -8H201Q129 -8 87 30ZM442 288L449 326Q452 343 452 357Q452 404 426 431T356 459H275Q218 459 179 423T129 322L123 288H442Z" />
<glyph unicode="f" glyph-name="f" horiz-adv-x="352" d="M168 451H82L90 499H176L184 541Q199 623 244 663T368 704H396L388 657H359Q308 657 279 631T237 541L230 499H349L341 451H221L142 0H88L168 451Z" />
<glyph unicode="g" glyph-name="g" horiz-adv-x="571" d="M98 -203T61 -171T29 -85H83Q81 -117 103 -136T163 -156H247Q302 -156 339 -120T388 -18L406 80Q375 43 338 22T266 0H193Q125 0 86 39T47 145Q47 158 51 186L74 315Q89 404 143 455T276 507H350Q388 507
421 488T470 436L481 499H533L442 -18Q426 -105 375 -154T247 -203H163Q98 -203 61 -171ZM265 48Q316 48 360 87T423 180L453 346Q453 395 424 427T350 459H277Q220 459 180 421T127 315L105 186Q102 168 102 151Q102 103 126 76T194 48H265Z" />
<glyph unicode="h" glyph-name="h" horiz-adv-x="567" d="M161 700H215L165 417Q199 460 238 483T316 507H382Q442 507 476 473T511 380Q511 369 507 341L447 0H394L454 342Q457 359 457 373Q457 413 437 436T381 459H314Q269 459 223 422T149 327L92 0H38L161 700Z" />
<glyph unicode="i" glyph-name="i" horiz-adv-x="253" d="M169 584T159 593T148 619Q148 643 162 658T201 673Q218 673 228 664T238 638Q238 613 224 599T186 584Q169 584 159 593ZM144 499H197L109 0H56L144 499Z" />
<glyph unicode="j" glyph-name="j" horiz-adv-x="259" d="M174 584T164 593T154 619Q154 643 168 658T206 673Q223 673 233 664T244 638Q244 613 230 599T191 584Q174 584 164 593ZM-97 -151H-71Q-13 -151 15 -123T56 -24L149 499H202L111 -19Q93 -117 50 -158T-79
-199H-106L-97 -151Z" />
<glyph unicode="k" glyph-name="k" horiz-adv-x="498" d="M253 284L436 0H376L213 250L122 174L92 0H38L161 700H215L135 245L438 499H508L253 284Z" />
<glyph unicode="l" glyph-name="l" horiz-adv-x="261" d="M106 0T82 20T57 87Q57 109 61 130L162 700H215L115 130Q111 104 111 96Q111 70 124 59T167 48H200L191 0H159Q106 0 82 20Z" />
<glyph unicode="m" glyph-name="m" horiz-adv-x="834" d="M716 507T747 476T779 389Q779 373 776 355L714 0H660L723 356Q725 365 725 383Q725 418 707 438T658 459H599Q556 459 519 426T463 340L403 0H349L410 348Q413 365 413 380Q413 417 397 438T351 459H293Q252
459 212 422T149 326L92 0H38L126 499H178L164 418Q192 459 226 483T295 507H354Q396 507 425 483T462 419Q489 459 525 483T598 507H659Q716 507 747 476Z" />
<glyph unicode="n" glyph-name="n" horiz-adv-x="565" d="M126 499H178L163 414Q197 459 237 483T316 507H381Q440 507 474 473T509 380Q509 369 505 341L445 0H392L452 342Q455 359 455 374Q455 413 435 436T379 459H314Q269 459 223 422T149 326L92 0H38L126 499Z" />
<glyph unicode="o" glyph-name="o" horiz-adv-x="563" d="M130 -8T88 31T46 137Q46 156 49 175L75 324Q90 410 144 458T279 507H358Q432 507 474 468T517 362Q517 344 514 324L488 175Q473 89 419 41T282 -8H203Q130 -8 88 31ZM282 40Q342 40 383 76T435 175L461
324Q464 339 464 354Q464 402 436 430T358 459H279Q219 459 180 424T129 324L103 175Q100 159 100 144Q100 96 127 68T203 40H282Z" />
<glyph unicode="p" glyph-name="p" horiz-adv-x="571" d="M126 499H178L165 421Q194 460 231 483T304 507H377Q446 507 486 469T527 366Q527 355 523 327L499 191Q482 97 430 45T299 -8H226Q187 -8 154 13T104 69L57 -199H3L126 499ZM298 40Q355 40 393 80T445
191L469 327Q472 344 472 359Q472 405 447 432T376 459H304Q260 459 217 424T152 338L121 166Q121 116 150 78T228 40H298Z" />
<glyph unicode="q" glyph-name="q" horiz-adv-x="571" d="M405 75Q375 36 338 14T263 -8H191Q123 -8 84 30T45 135Q45 147 49 175L74 315Q90 406 143 456T275 507H350Q389 507 422 488T470 435L481 499H533L409 -203H356L405 75ZM262 40Q313 40 357 79T423 178L453
346Q453 396 425 427T350 459H275Q217 459 178 421T127 315L103 175Q100 157 100 142Q100 95 125 68T193 40H262Z" />
<glyph unicode="r" glyph-name="r" horiz-adv-x="348" d="M126 499H178L164 418Q193 457 234 479T321 501H366L358 453H321Q256 453 207 411T145 302L92 0H38L126 499Z" />
<glyph unicode="s" glyph-name="s" horiz-adv-x="513" d="M111 -8T73 25T34 113Q34 128 37 143H89Q87 127 87 121Q87 83 111 61T177 39H263Q313 39 344 58T383 111L390 150Q391 154 391 161Q391 181 378 194T342 211L173 241Q131 248 107 272T83 332Q83 342 84
348L90 382Q101 441 144 474T255 507H340Q401 507 437 476T473 394Q473 387 471 369H419Q420 375 420 386Q420 421 399 440T340 460H255Q209 460 180 440T144 382L138 350Q137 346 137 339Q137 319 151 306T192 288L360 258Q400 251 422 227T445 169Q445 158 444
152L436 110Q426 54 381 23T263 -8H177Q111 -8 73 25Z" />
<glyph unicode="t" glyph-name="t" horiz-adv-x="375" d="M165 0T136 22T106 96Q106 119 110 140L165 451H78L86 499H174L201 650H254L227 499H357L349 451H219L164 140Q161 122 161 108Q161 76 178 62T235 48H277L269 0H228Q165 0 136 22Z" />
<glyph unicode="u" glyph-name="u" horiz-adv-x="563" d="M126 -8T92 26T57 118Q57 136 60 154L120 499H174L113 153Q110 138 110 124Q110 85 130 63T186 40H248Q294 40 343 81T416 179L472 499H525L437 0H385L401 90Q368 46 326 19T249 -8H186Q126 -8 92 26Z" />
<glyph unicode="v" glyph-name="v" horiz-adv-x="486" d="M184 0T175 9T160 40L66 499H120L206 57H207L449 499H508L228 0H202Q184 0 175 9Z" />
<glyph unicode="w" glyph-name="w" horiz-adv-x="715" d="M721 499L531 49Q520 23 507 12T472 0H447L386 402L181 0H156Q136 0 126 12T114 49L82 499H136L161 60L378 485H398Q420 485 423 458L483 60L662 499H721Z" />
<glyph unicode="x" glyph-name="x" horiz-adv-x="481" d="M211 256L76 499H134L247 297L429 499H493L272 255L414 0H356L237 214L43 0H-21L211 256Z" />
<glyph unicode="y" glyph-name="y" horiz-adv-x="565" d="M97 -203T60 -171T28 -85H81Q80 -117 102 -136T162 -156H241Q296 -156 333 -120T382 -18L403 94Q371 52 329 26T252 0H188Q128 0 93 34T58 126Q58 144 61 162L120 499H174L114 161Q111 146 111 133Q111
94 131 71T188 48H251Q297 48 344 86T417 182L474 499H527L436 -18Q420 -105 369 -154T241 -203H162Q97 -203 60 -171Z" />
<glyph unicode="z" glyph-name="z" horiz-adv-x="465" d="M2 22L381 454H90L98 499H467L463 477L85 46H382L374 0H-2L2 22Z" />
<glyph unicode="{" glyph-name="braceleft" horiz-adv-x="363" d="M151 -231T118 -201T85 -117Q85 -100 88 -80L123 121Q125 130 125 146Q125 178 109 200T60 233L67 272Q109 284 135 312T169 383L205 584Q218 655 264 695T381 735H406L398 687H376Q329 687 298
660T258 582L223 383Q215 338 189 304T123 252Q180 220 180 152Q180 138 177 121L142 -78Q139 -93 139 -106Q139 -143 160 -163T223 -183H245L236 -231H211Q151 -231 118 -201Z" />
<glyph unicode="|" glyph-name="bar" horiz-adv-x="238" d="M197 847H251L76 -147H22L197 847Z" />
<glyph unicode="}" glyph-name="braceright" horiz-adv-x="363" d="M-34 -183H-12Q36 -183 66 -156T106 -78L141 121Q150 166 175 200T241 252Q184 284 184 352Q184 367 187 383L223 582Q226 597 226 609Q226 647 204 667T142 687H120L128 735H153Q214 735 247
705T280 620Q280 604 277 584L241 383Q239 367 239 360Q239 327 255 305T305 272L298 233Q256 221 229 192T195 121L160 -80Q147 -151 101 -191T-17 -231H-42L-34 -183Z" />
<glyph unicode="~" glyph-name="asciitilde" horiz-adv-x="594" d="M358 238T336 256T291 308Q272 335 258 347T223 360H200Q172 360 149 330T115 252H63Q77 323 113 365T200 408H223Q261 408 283 390T329 338Q346 313 360 300T395 287H418Q447 287 471 317T505
397H558Q544 325 506 282T418 238H395Q358 238 336 256Z" />
<glyph unicode="&#xa0;" glyph-name="uni00A0" horiz-adv-x="253" />
<glyph unicode="&#xa1;" glyph-name="exclamdown" horiz-adv-x="267" d="M196 507T206 498T217 472Q217 447 203 432T163 417Q146 417 136 427T126 453Q126 477 140 492T179 507Q196 507 206 498ZM80 -203H26L120 324H174L80 -203Z" />
<glyph unicode="&#xa2;" glyph-name="cent" horiz-adv-x="529" d="M446 362Q448 374 448 380Q448 416 423 437T353 459H271Q215 459 178 423T129 322L101 167Q98 152 98 138Q98 93 125 67T198 40H280Q333 40 368 73T415 167H467Q451 84 402 38T280 -8H255L238
-105H184L201 -8H196Q125 -8 85 29T44 130Q44 141 48 167L75 322Q91 409 143 458T271 507H293L309 602H362L346 507H353Q421 507 460 475T500 388Q500 371 498 362H446Z" />
<glyph unicode="&#xa3;" glyph-name="sterling" horiz-adv-x="643" d="M557 704T597 664T638 556Q638 548 636 530H583Q584 536 584 548Q584 597 559 626T489 655H403Q345 655 305 614T251 498L223 340H439L431 290H214L172 50H554L545 0H18L27 50H117L159 290H80L88
340H168L196 498Q213 595 268 649T403 704H489Q557 704 597 664Z" />
<glyph unicode="&#xa4;" glyph-name="currency" horiz-adv-x="676" d="M36 96L115 163Q83 212 83 283Q83 343 107 403T175 506L119 574L160 610L219 541Q257 566 303 579T397 593Q446 593 488 579T560 539L643 610L671 574L589 505Q621 461 621 388Q621 326 596
266T529 164L587 96L547 61L488 131Q451 105 403 91T306 77Q258 77 217 90T145 130L64 61L36 96ZM389 126T446 159T536 250T568 384Q568 461 521 502T388 544Q315 544 258 511T168 419T136 284Q136 209 182 168T315 126Q389 126 446 159Z" />
<glyph unicode="&#xa5;" glyph-name="yen" horiz-adv-x="614" d="M373 314H538L529 268H338L321 170H513L504 124H313L291 0H236L258 124H72L80 170H266L283 268H97L105 314H264L101 700H157L315 318L608 700H671L373 314Z" />
<glyph unicode="&#xa6;" glyph-name="brokenbar" horiz-adv-x="238" d="M197 847H251L179 435H125L197 847ZM95 265H149L76 -147H22L95 265Z" />
<glyph unicode="&#xa7;" glyph-name="section" horiz-adv-x="552" d="M471 580Q472 586 472 597Q472 632 451 651T390 671H308Q262 671 233 652T197 597L192 568Q191 565 191 558Q191 536 207 521T252 498L416 454Q460 442 484 419T509 362Q509 356 507 344L501
312Q495 279 467 254T395 215Q421 202 435 182T449 137Q449 132 447 120L441 86Q431 31 386 -1T275 -33H193Q131 -33 96 -2T60 80Q60 97 62 106H114Q113 100 113 89Q113 54 134 34T193 14H275Q321 14 351 33T387 86L393 119Q394 122 394 128Q394 148 378 164T335
188L162 233Q121 244 99 267T77 325Q77 331 79 345L85 377Q91 410 117 434T187 473Q163 486 150 506T137 550Q137 559 138 564L144 597Q154 653 198 685T308 718H390Q453 718 489 688T526 607Q526 594 523 580H471ZM237 451Q197 445 170 426T139 378L133 345Q132
340 132 332Q132 292 180 280L338 238Q382 244 412 263T447 311L453 344Q454 347 454 353Q454 372 440 386T398 407L237 451Z" />
<glyph unicode="&#xa8;" glyph-name="dieresis" horiz-adv-x="381" d="M140 585T131 594T122 617Q122 639 135 653T171 667Q187 667 196 658T206 634Q206 612 192 599T156 585Q140 585 131 594ZM327 585T318 594T309 617Q309 639 322 653T358 667Q374 667 383
658T392 634Q392 612 379 599T343 585Q327 585 318 594Z" />
<glyph unicode="&#xa9;" glyph-name="copyright" horiz-adv-x="752" d="M263 27T202 58T107 147T73 279Q73 395 119 484T249 622T443 671Q524 671 585 640T680 551T714 419Q714 303 668 214T538 76T344 27Q263 27 202 58ZM440 70T513 112T626 232T666 411Q666
476 638 525T560 601T442 628Q346 628 274 586T161 466T121 287Q121 222 148 173T227 97T344 70Q440 70 513 112ZM287 153T259 181T231 258Q231 274 234 290L255 410Q266 474 303 510T393 546H451Q500 546 527 521T555 453Q555 437 553 428H507Q509 440 509 446Q509
473 494 488T451 504H393Q358 504 334 479T302 410L281 290Q279 281 279 264Q279 232 294 214T336 195H396Q428 195 451 217T482 280H528Q518 222 482 188T396 153H336Q287 153 259 181Z" />
<glyph unicode="&#xaa;" glyph-name="ordfeminine" horiz-adv-x="421" d="M148 343T121 364T94 420Q94 425 96 437L100 464Q107 507 140 532T223 558H270Q292 558 315 552T352 534L363 597Q364 602 364 613Q364 637 351 650T313 663H257Q227 663 208 651T185 616H137Q145
658 176 682T257 706H313Q360 706 386 683T412 620Q412 613 410 597L367 349H320L329 399Q307 373 282 358T234 343H192Q148 343 121 364ZM239 386Q266 386 293 405T338 456L344 489Q334 501 312 508T265 516H219Q191 516 172 502T149 464L144 437L143 428Q143
409 157 398T195 386H239Z" />
<glyph unicode="&#xab;" glyph-name="guillemotleft" horiz-adv-x="538" d="M45 268L331 520L318 447L111 264L253 79L242 16L45 268ZM238 268L524 520L511 447L304 264L446 79L435 16L238 268Z" />
<glyph unicode="&#xac;" glyph-name="logicalnot" horiz-adv-x="658" d="M564 372H84L93 421H627L582 166H528L564 372Z" />
<glyph unicode="&#xad;" glyph-name="uni00AD" horiz-adv-x="389" d="M68 279H332L324 231H59L68 279Z" />
<glyph unicode="&#xae;" glyph-name="registered" horiz-adv-x="752" d="M263 27T202 58T107 147T73 279Q73 395 119 484T249 622T443 671Q524 671 585 640T680 551T714 419Q714 303 668 214T538 76T344 27Q263 27 202 58ZM440 70T513 112T626 232T666 411Q666
476 638 525T560 601T442 628Q346 628 274 586T161 466T121 287Q121 222 148 173T227 97T344 70Q440 70 513 112ZM299 542H464Q506 542 530 524T555 473Q555 463 554 458L547 417Q542 388 520 367T465 336V335Q481 326 489 309T501 264L513 157H466L453 264Q447
319 400 319H307L279 157H231L299 542ZM419 361Q452 361 473 375T500 417L507 458Q510 477 498 488T464 500H339L315 361H419Z" />
<glyph unicode="&#xaf;" glyph-name="overscore" horiz-adv-x="349" d="M124 636H361L354 595H117L124 636Z" />
<glyph unicode="&#xb0;" glyph-name="degree" horiz-adv-x="384" d="M181 451T151 480T120 557Q120 626 160 667T270 708Q320 708 350 679T381 603Q381 534 340 493T230 451Q181 451 151 480ZM281 493T309 522T337 598Q337 629 318 648T265 667Q219 667 192 638T164
561Q164 530 183 512T235 493Q281 493 309 522Z" />
<glyph unicode="&#xb1;" glyph-name="plusminus" horiz-adv-x="567" d="M268 315H74L82 363H277L311 560H365L331 363H525L517 315H322L287 118H233L268 315ZM27 48H470L461 0H18L27 48Z" />
<glyph unicode="&#xb2;" glyph-name="uni00B2" horiz-adv-x="375" d="M70 325Q77 360 91 384T131 427L288 539Q322 565 327 596L331 616Q332 619 332 625Q332 642 320 652T287 662H233Q207 662 188 644T163 594H115Q124 644 156 674T233 705H289Q332 705 356 686T381
633Q381 628 379 616L376 596Q367 544 322 513L170 406Q146 389 135 372T120 331H335L328 289H63L70 325Z" />
<glyph unicode="&#xb3;" glyph-name="uni00B3" horiz-adv-x="388" d="M338 705T363 684T389 626Q389 620 387 608L383 585Q378 557 362 535T321 500Q341 490 351 472T362 431Q362 424 360 412L356 389Q348 340 316 312T233 284H176Q130 284 103 308T76 374Q76
390 78 398H125Q124 392 124 382Q124 356 137 342T176 327H233Q263 327 283 343T308 389L312 412Q313 417 313 426Q313 450 298 464T258 479H200L208 521H266Q292 521 311 538T335 585L339 608Q340 612 340 619Q340 639 328 650T293 662H236Q207 662 188 644T162
591H115Q125 644 157 674T236 705H293Q338 705 363 684Z" />
<glyph unicode="&#xb4;" glyph-name="acute" horiz-adv-x="258" d="M223 729H288L168 585H115L223 729Z" />
<glyph unicode="&#xb6;" glyph-name="paragraph" horiz-adv-x="571" d="M558 700L435 0H380L444 362H345L281 0H226L290 362H236Q179 362 147 392T114 473Q114 488 117 504L127 559Q139 626 183 663T295 700H558Z" />
<glyph unicode="&#xb7;" glyph-name="middot" horiz-adv-x="214" d="M84 211T74 221T63 247Q63 271 77 286T116 301Q133 301 143 292T154 266Q154 241 140 226T101 211Q84 211 74 221Z" />
<glyph unicode="&#xb8;" glyph-name="cedilla" horiz-adv-x="257" d="M-19 -172H28Q53 -172 69 -163T88 -136L90 -126Q94 -109 83 -99T50 -89H6L13 -52L51 12H97L57 -53H60Q96 -53 116 -69T136 -112Q136 -121 135 -126L133 -136Q127 -171 99 -191T28 -211H-25L-19 -172Z" />
<glyph unicode="&#xb9;" glyph-name="uni00B9" horiz-adv-x="248" d="M202 651L98 601L107 648L213 700H259L187 289H138L202 651Z" />
<glyph unicode="&#xba;" glyph-name="ordmasculine" horiz-adv-x="434" d="M160 343T130 370T99 445Q99 457 102 472L120 577Q131 638 168 672T262 706H318Q371 706 401 679T432 604Q432 591 429 577L411 472Q400 411 363 377T269 343H212Q160 343 130 370ZM269
386Q305 386 330 409T362 472L381 577Q383 591 383 597Q383 628 366 645T318 663H262Q225 663 201 640T169 577L150 472Q148 458 148 452Q148 422 165 404T212 386H269Z" />
<glyph unicode="&#xbb;" glyph-name="guillemotright" horiz-adv-x="538" d="M34 88L241 273L98 456L110 520L307 268L21 16L34 88ZM226 88L433 273L291 456L302 520L499 268L213 16L226 88Z" />
<glyph unicode="&#xbc;" glyph-name="onequarter" horiz-adv-x="766" d="M228 651L124 601L133 648L239 700H285L213 289H164L228 651ZM611 722H663L149 -25H97L611 722ZM578 83H401Q378 83 381 104L386 129L639 411H685L635 126H683L675 83H627L613 0H564L578
83ZM591 125L629 343H628L433 125H591Z" />
<glyph unicode="&#xbd;" glyph-name="onehalf" horiz-adv-x="818" d="M228 651L124 601L133 648L239 700H285L213 289H164L228 651ZM454 36Q461 71 475 95T515 138L672 250Q706 276 711 307L715 327Q716 330 716 336Q716 353 704 363T671 373H617Q591 373 572
355T547 305H499Q508 355 540 385T617 416H673Q716 416 740 397T765 344Q765 339 763 327L760 307Q751 255 706 224L554 117Q530 100 519 83T504 42H719L712 0H447L454 36ZM611 722H663L149 -25H97L611 722Z" />
<glyph unicode="&#xbe;" glyph-name="threequarters" horiz-adv-x="842" d="M348 705T373 684T399 626Q399 620 397 608L393 585Q388 557 372 535T331 500Q351 490 361 472T372 431Q372 424 370 412L366 389Q358 340 326 312T243 284H186Q140 284 113 308T86 374Q86
390 88 398H135Q134 392 134 382Q134 356 147 342T186 327H243Q273 327 293 343T318 389L322 412Q323 417 323 426Q323 450 308 464T268 479H210L218 521H276Q302 521 321 538T345 585L349 608Q350 612 350 619Q350 639 338 650T303 662H246Q217 662 198 644T172
591H125Q135 644 167 674T246 705H303Q348 705 373 684ZM654 83H477Q454 83 457 104L462 129L715 411H761L711 126H759L751 83H703L689 0H640L654 83ZM667 125L705 343H704L509 125H667ZM707 722H759L245 -25H193L707 722Z" />
<glyph unicode="&#xbf;" glyph-name="questiondown" horiz-adv-x="558" d="M344 507T354 498T365 472Q365 447 350 432T311 417Q294 417 284 427T273 453Q273 477 288 492T327 507Q344 507 354 498ZM315 281Q308 242 288 212T243 161T178 112Q129 80 104 55T72
-7L65 -52Q63 -66 63 -73Q63 -114 90 -137T167 -161H253Q314 -161 355 -128T407 -39H461Q447 -118 391 -164T253 -211H167Q93 -211 50 -176T7 -82Q7 -67 10 -52L17 -7Q23 28 41 54T81 98T140 142Q194 179 223 209T261 287L270 336H325L315 281Z" />
<glyph unicode="&#xc0;" glyph-name="Agrave" horiz-adv-x="638" d="M472 204H156L44 0H-16L374 700H400Q424 700 430 669L566 0H512L472 204ZM182 251H463L390 626H389L182 251ZM328 930H389L447 786H398L328 930Z" />
<glyph unicode="&#xc1;" glyph-name="Aacute" horiz-adv-x="638" d="M472 204H156L44 0H-16L374 700H400Q424 700 430 669L566 0H512L472 204ZM182 251H463L390 626H389L182 251ZM494 930H559L439 786H386L494 930Z" />
<glyph unicode="&#xc2;" glyph-name="Acircumflex" horiz-adv-x="638" d="M472 204H156L44 0H-16L374 700H400Q424 700 430 669L566 0H512L472 204ZM182 251H463L390 626H389L182 251ZM418 938H463L553 786H503L437 900L330 786H275L418 938Z" />
<glyph unicode="&#xc3;" glyph-name="Atilde" horiz-adv-x="638" d="M472 204H156L44 0H-16L374 700H400Q424 700 430 669L566 0H512L472 204ZM182 251H463L390 626H389L182 251ZM456 778T442 787T410 815Q397 829 388 835T367 842H355Q338 842 326 830T308 794H263Q272
835 297 858T358 882H370Q393 882 408 872T439 844Q452 830 460 824T480 818H492Q507 818 519 831T537 867H581Q572 825 548 802T489 778H478Q456 778 442 787Z" />
<glyph unicode="&#xc4;" glyph-name="Adieresis" horiz-adv-x="638" d="M472 204H156L44 0H-16L374 700H400Q424 700 430 669L566 0H512L472 204ZM182 251H463L390 626H389L182 251ZM304 786T295 795T286 818Q286 840 299 854T335 868Q351 868 360 859T370 835Q370
813 356 800T320 786Q304 786 295 795ZM491 786T482 795T473 818Q473 840 486 854T522 868Q538 868 547 859T556 835Q556 813 543 800T507 786Q491 786 482 795Z" />
<glyph unicode="&#xc5;" glyph-name="Aring" horiz-adv-x="638" d="M472 204H156L44 0H-16L374 700H400Q424 700 430 669L566 0H512L472 204ZM182 251H463L390 626H389L182 251ZM374 764T350 786T325 845Q325 897 357 928T443 960Q483 960 507 938T531 878Q531
827 499 796T413 764Q374 764 350 786ZM450 802T469 822T489 874Q489 896 476 908T439 921Q407 921 387 901T367 849Q367 828 381 815T418 802Q450 802 469 822Z" />
<glyph unicode="&#xc6;" glyph-name="AE" horiz-adv-x="919" d="M479 700H942L934 652H549L501 382H846L837 334H492L442 49H827L819 0H430Q410 0 399 10T388 39Q388 48 389 53L415 203H176L29 0H-30L479 700ZM423 250L491 635H490L211 250H423Z" />
<glyph unicode="&#xc7;" glyph-name="Ccedilla" horiz-adv-x="653" d="M593 494Q596 514 596 530Q596 590 561 624T465 659H359Q281 659 228 607T158 460L119 241Q114 211 114 190Q114 122 149 82T246 42H354Q428 42 480 91T547 223H601Q582 117 516 55T354 -8H316L288
-53H291Q326 -53 346 -69T367 -112Q367 -121 366 -126L364 -136Q357 -171 330 -191T259 -211H206L212 -172H259Q284 -172 300 -163T319 -136L321 -126Q325 -109 314 -99T281 -89H237L244 -52L270 -8H245Q158 -8 109 43T59 183Q59 216 64 241L103 460Q124 577 191
642T359 708H466Q551 708 600 663T650 539Q650 515 646 494H593Z" />
<glyph unicode="&#xc8;" glyph-name="Egrave" horiz-adv-x="593" d="M73 0T62 10T51 39Q51 48 52 53L166 700H616L608 652H213L165 382H530L521 334H156L106 49H501L492 0H93Q73 0 62 10ZM323 930H384L442 786H393L323 930Z" />
<glyph unicode="&#xc9;" glyph-name="Eacute" horiz-adv-x="593" d="M73 0T62 10T51 39Q51 48 52 53L166 700H616L608 652H213L165 382H530L521 334H156L106 49H501L492 0H93Q73 0 62 10ZM489 930H554L434 786H381L489 930Z" />
<glyph unicode="&#xca;" glyph-name="Ecircumflex" horiz-adv-x="593" d="M73 0T62 10T51 39Q51 48 52 53L166 700H616L608 652H213L165 382H530L521 334H156L106 49H501L492 0H93Q73 0 62 10ZM413 938H458L548 786H498L432 900L325 786H270L413 938Z" />
<glyph unicode="&#xcb;" glyph-name="Edieresis" horiz-adv-x="593" d="M73 0T62 10T51 39Q51 48 52 53L166 700H616L608 652H213L165 382H530L521 334H156L106 49H501L492 0H93Q73 0 62 10ZM299 786T290 795T281 818Q281 840 294 854T330 868Q346 868 355 859T365
835Q365 813 351 800T315 786Q299 786 290 795ZM486 786T477 795T468 818Q468 840 481 854T517 868Q533 868 542 859T551 835Q551 813 538 800T502 786Q486 786 477 795Z" />
<glyph unicode="&#xcc;" glyph-name="Igrave" horiz-adv-x="241" d="M172 700H227L104 0H49L172 700ZM129 930H190L248 786H199L129 930Z" />
<glyph unicode="&#xcd;" glyph-name="Iacute" horiz-adv-x="241" d="M172 700H227L104 0H49L172 700ZM295 930H360L240 786H187L295 930Z" />
<glyph unicode="&#xce;" glyph-name="Icircumflex" horiz-adv-x="241" d="M172 700H227L104 0H49L172 700ZM219 938H264L354 786H304L238 900L131 786H76L219 938Z" />
<glyph unicode="&#xcf;" glyph-name="Idieresis" horiz-adv-x="241" d="M172 700H227L104 0H49L172 700ZM105 786T96 795T87 818Q87 840 100 854T136 868Q152 868 161 859T171 835Q171 813 157 800T121 786Q105 786 96 795ZM292 786T283 795T274 818Q274 840 287
854T323 868Q339 868 348 859T357 835Q357 813 344 800T308 786Q292 786 283 795Z" />
<glyph unicode="&#xd0;" glyph-name="Eth" horiz-adv-x="721" d="M591 700T647 651T703 519Q703 496 699 476L658 245Q614 0 384 0H146Q125 0 114 10T103 40Q103 47 104 51L152 321H45L53 370H161L219 700H493Q591 700 647 651ZM647 502T647 514Q647 578 606 614T491
651H265L215 370H430L421 321H207L159 50H384Q475 50 530 99T603 245L643 476Q647 502 647 514Z" />
<glyph unicode="&#xd1;" glyph-name="Ntilde" horiz-adv-x="683" d="M165 700H215L515 87L623 700H676L553 0H503L203 612L95 0H42L165 700ZM478 778T464 787T432 815Q419 829 410 835T389 842H377Q360 842 348 830T330 794H285Q294 835 319 858T380 882H392Q415
882 430 872T461 844Q474 830 482 824T502 818H514Q529 818 541 831T559 867H603Q594 825 570 802T511 778H500Q478 778 464 787Z" />
<glyph unicode="&#xd2;" glyph-name="Ograve" horiz-adv-x="689" d="M164 -8T112 43T59 182Q59 204 64 236L104 464Q124 579 193 643T365 708H469Q561 708 613 657T666 518Q666 496 661 464L621 236Q601 121 532 57T359 -8H255Q164 -8 112 43ZM358 42Q440 42 494
93T566 236L606 464Q610 487 610 511Q610 580 572 619T468 659H366Q285 659 231 608T159 464L119 236Q115 215 115 189Q115 121 152 82T256 42H358ZM353 930H414L472 786H423L353 930Z" />
<glyph unicode="&#xd3;" glyph-name="Oacute" horiz-adv-x="689" d="M164 -8T112 43T59 182Q59 204 64 236L104 464Q124 579 193 643T365 708H469Q561 708 613 657T666 518Q666 496 661 464L621 236Q601 121 532 57T359 -8H255Q164 -8 112 43ZM358 42Q440 42 494
93T566 236L606 464Q610 487 610 511Q610 580 572 619T468 659H366Q285 659 231 608T159 464L119 236Q115 215 115 189Q115 121 152 82T256 42H358ZM519 930H584L464 786H411L519 930Z" />
<glyph unicode="&#xd4;" glyph-name="Ocircumflex" horiz-adv-x="689" d="M164 -8T112 43T59 182Q59 204 64 236L104 464Q124 579 193 643T365 708H469Q561 708 613 657T666 518Q666 496 661 464L621 236Q601 121 532 57T359 -8H255Q164 -8 112 43ZM358 42Q440
42 494 93T566 236L606 464Q610 487 610 511Q610 580 572 619T468 659H366Q285 659 231 608T159 464L119 236Q115 215 115 189Q115 121 152 82T256 42H358ZM443 938H488L578 786H528L462 900L355 786H300L443 938Z" />
<glyph unicode="&#xd5;" glyph-name="Otilde" horiz-adv-x="689" d="M164 -8T112 43T59 182Q59 204 64 236L104 464Q124 579 193 643T365 708H469Q561 708 613 657T666 518Q666 496 661 464L621 236Q601 121 532 57T359 -8H255Q164 -8 112 43ZM358 42Q440 42 494
93T566 236L606 464Q610 487 610 511Q610 580 572 619T468 659H366Q285 659 231 608T159 464L119 236Q115 215 115 189Q115 121 152 82T256 42H358ZM481 778T467 787T435 815Q422 829 413 835T392 842H380Q363 842 351 830T333 794H288Q297 835 322 858T383 882H395Q418
882 433 872T464 844Q477 830 485 824T505 818H517Q532 818 544 831T562 867H606Q597 825 573 802T514 778H503Q481 778 467 787Z" />
<glyph unicode="&#xd6;" glyph-name="Odieresis" horiz-adv-x="689" d="M164 -8T112 43T59 182Q59 204 64 236L104 464Q124 579 193 643T365 708H469Q561 708 613 657T666 518Q666 496 661 464L621 236Q601 121 532 57T359 -8H255Q164 -8 112 43ZM358 42Q440 42
494 93T566 236L606 464Q610 487 610 511Q610 580 572 619T468 659H366Q285 659 231 608T159 464L119 236Q115 215 115 189Q115 121 152 82T256 42H358ZM329 786T320 795T311 818Q311 840 324 854T360 868Q376 868 385 859T395 835Q395 813 381 800T345 786Q329
786 320 795ZM516 786T507 795T498 818Q498 840 511 854T547 868Q563 868 572 859T581 835Q581 813 568 800T532 786Q516 786 507 795Z" />
<glyph unicode="&#xd7;" glyph-name="multiply" horiz-adv-x="525" d="M45 149L241 315L103 483L143 517L280 348L476 517L503 483L307 315L445 149L406 115L268 283L72 115L45 149Z" />
<glyph unicode="&#xd8;" glyph-name="Oslash" horiz-adv-x="689" d="M616 654Q666 602 666 518Q666 496 661 464L621 236Q601 121 532 57T359 -8H255Q187 -8 140 21L93 -41H39L107 49Q59 100 59 182Q59 204 64 236L104 464Q124 579 193 643T365 708H469Q535 708
582 680L622 733H676L616 654ZM114 208T114 189Q114 133 141 95L550 637Q515 659 468 659H366Q285 659 231 608T159 464L119 236Q114 208 114 189ZM611 492T611 512Q611 571 582 608L173 65Q207 42 256 42H358Q440 42 494 93T566 236L606 464Q611 492 611 512Z"
/>
<glyph unicode="&#xd9;" glyph-name="Ugrave" horiz-adv-x="685" d="M168 -8T120 39T72 165Q72 190 76 213L161 700H216L131 212Q127 193 127 171Q127 112 160 77T251 42H360Q432 42 480 87T542 212L627 700H682L597 213Q578 108 516 50T360 -8H251Q168 -8 120
39ZM351 930H412L470 786H421L351 930Z" />
<glyph unicode="&#xda;" glyph-name="Uacute" horiz-adv-x="685" d="M168 -8T120 39T72 165Q72 190 76 213L161 700H216L131 212Q127 193 127 171Q127 112 160 77T251 42H360Q432 42 480 87T542 212L627 700H682L597 213Q578 108 516 50T360 -8H251Q168 -8 120
39ZM517 930H582L462 786H409L517 930Z" />
<glyph unicode="&#xdb;" glyph-name="Ucircumflex" horiz-adv-x="685" d="M168 -8T120 39T72 165Q72 190 76 213L161 700H216L131 212Q127 193 127 171Q127 112 160 77T251 42H360Q432 42 480 87T542 212L627 700H682L597 213Q578 108 516 50T360 -8H251Q168 -8
120 39ZM441 938H486L576 786H526L460 900L353 786H298L441 938Z" />
<glyph unicode="&#xdc;" glyph-name="Udieresis" horiz-adv-x="685" d="M168 -8T120 39T72 165Q72 190 76 213L161 700H216L131 212Q127 193 127 171Q127 112 160 77T251 42H360Q432 42 480 87T542 212L627 700H682L597 213Q578 108 516 50T360 -8H251Q168 -8
120 39ZM327 786T318 795T309 818Q309 840 322 854T358 868Q374 868 383 859T393 835Q393 813 379 800T343 786Q327 786 318 795ZM514 786T505 795T496 818Q496 840 509 854T545 868Q561 868 570 859T579 835Q579 813 566 800T530 786Q514 786 505 795Z" />
<glyph unicode="&#xdd;" glyph-name="Yacute" horiz-adv-x="614" d="M283 268L101 700H157L315 318L608 700H671L338 268L291 0H236L283 268ZM481 930H546L426 786H373L481 930Z" />
<glyph unicode="&#xde;" glyph-name="Thorn" horiz-adv-x="631" d="M532 568T572 536T612 448Q612 435 609 420L590 309Q576 232 524 190T390 147H123L97 0H42L142 568H143L165 700H220L198 568H463Q532 568 572 536ZM557 433T557 439Q557 475 532 496T462 518H189L132
196H389Q448 196 486 226T535 310L555 421Q557 433 557 439Z" />
<glyph unicode="&#xdf;" glyph-name="germandbls" horiz-adv-x="666" d="M323 -8T287 22T251 102Q251 116 254 129H307Q305 115 305 109Q305 77 326 59T385 40H436Q482 40 512 63T549 125L554 155Q555 159 555 168Q555 195 538 215T487 263Q450 294 432 317T413
372Q413 383 414 389L418 409Q438 521 562 524Q565 539 565 554Q565 601 535 628T452 656H376Q307 656 262 619T205 516L114 0H60L135 422H49L57 470H143L152 516Q169 605 228 654T376 704H452Q526 704 571 664T617 556Q617 540 614 523L606 480H567Q484 480 471
409L468 389Q467 386 467 379Q467 357 482 340T529 297Q568 265 588 239T609 176Q609 169 607 155L602 125Q592 62 548 27T436 -8H385Q323 -8 287 22Z" />
<glyph unicode="&#xe0;" glyph-name="agrave" horiz-adv-x="548" d="M117 -8T79 22T41 103Q41 110 43 126L50 166Q61 229 106 263T222 297H287Q322 297 360 286T421 255L438 353Q440 369 440 376Q440 415 417 437T353 460H275Q226 460 194 438T155 379H102Q112
438 159 472T275 507H353Q418 507 455 474T493 385Q493 370 490 353L428 0H377L391 78Q356 37 318 15T242 -8H181Q117 -8 79 22ZM244 40Q286 40 329 70T402 149L411 203Q393 224 359 237T287 250H222Q174 250 143 228T104 165L97 126Q95 114 95 109Q95 77 118 59T181
40H244ZM252 729H313L371 585H322L252 729Z" />
<glyph unicode="&#xe1;" glyph-name="aacute" horiz-adv-x="548" d="M117 -8T79 22T41 103Q41 110 43 126L50 166Q61 229 106 263T222 297H287Q322 297 360 286T421 255L438 353Q440 369 440 376Q440 415 417 437T353 460H275Q226 460 194 438T155 379H102Q112
438 159 472T275 507H353Q418 507 455 474T493 385Q493 370 490 353L428 0H377L391 78Q356 37 318 15T242 -8H181Q117 -8 79 22ZM244 40Q286 40 329 70T402 149L411 203Q393 224 359 237T287 250H222Q174 250 143 228T104 165L97 126Q95 114 95 109Q95 77 118 59T181
40H244ZM418 729H483L363 585H310L418 729Z" />
<glyph unicode="&#xe2;" glyph-name="acircumflex" horiz-adv-x="548" d="M117 -8T79 22T41 103Q41 110 43 126L50 166Q61 229 106 263T222 297H287Q322 297 360 286T421 255L438 353Q440 369 440 376Q440 415 417 437T353 460H275Q226 460 194 438T155 379H102Q112
438 159 472T275 507H353Q418 507 455 474T493 385Q493 370 490 353L428 0H377L391 78Q356 37 318 15T242 -8H181Q117 -8 79 22ZM244 40Q286 40 329 70T402 149L411 203Q393 224 359 237T287 250H222Q174 250 143 228T104 165L97 126Q95 114 95 109Q95 77 118 59T181
40H244ZM342 737H387L477 585H427L361 699L254 585H199L342 737Z" />
<glyph unicode="&#xe3;" glyph-name="atilde" horiz-adv-x="548" d="M117 -8T79 22T41 103Q41 110 43 126L50 166Q61 229 106 263T222 297H287Q322 297 360 286T421 255L438 353Q440 369 440 376Q440 415 417 437T353 460H275Q226 460 194 438T155 379H102Q112
438 159 472T275 507H353Q418 507 455 474T493 385Q493 370 490 353L428 0H377L391 78Q356 37 318 15T242 -8H181Q117 -8 79 22ZM244 40Q286 40 329 70T402 149L411 203Q393 224 359 237T287 250H222Q174 250 143 228T104 165L97 126Q95 114 95 109Q95 77 118 59T181
40H244ZM380 577T366 586T334 614Q321 628 312 634T291 641H279Q262 641 250 629T232 593H187Q196 634 221 657T282 681H294Q317 681 332 671T363 643Q376 629 384 623T404 617H416Q431 617 443 630T461 666H505Q496 624 472 601T413 577H402Q380 577 366 586Z"
/>
<glyph unicode="&#xe4;" glyph-name="adieresis" horiz-adv-x="548" d="M117 -8T79 22T41 103Q41 110 43 126L50 166Q61 229 106 263T222 297H287Q322 297 360 286T421 255L438 353Q440 369 440 376Q440 415 417 437T353 460H275Q226 460 194 438T155 379H102Q112
438 159 472T275 507H353Q418 507 455 474T493 385Q493 370 490 353L428 0H377L391 78Q356 37 318 15T242 -8H181Q117 -8 79 22ZM244 40Q286 40 329 70T402 149L411 203Q393 224 359 237T287 250H222Q174 250 143 228T104 165L97 126Q95 114 95 109Q95 77 118 59T181
40H244ZM228 585T219 594T210 617Q210 639 223 653T259 667Q275 667 284 658T294 634Q294 612 280 599T244 585Q228 585 219 594ZM415 585T406 594T397 617Q397 639 410 653T446 667Q462 667 471 658T480 634Q480 612 467 599T431 585Q415 585 406 594Z" />
<glyph unicode="&#xe5;" glyph-name="aring" horiz-adv-x="548" d="M117 -8T79 22T41 103Q41 110 43 126L50 166Q61 229 106 263T222 297H287Q322 297 360 286T421 255L438 353Q440 369 440 376Q440 415 417 437T353 460H275Q226 460 194 438T155 379H102Q112
438 159 472T275 507H353Q418 507 455 474T493 385Q493 370 490 353L428 0H377L391 78Q356 37 318 15T242 -8H181Q117 -8 79 22ZM244 40Q286 40 329 70T402 149L411 203Q393 224 359 237T287 250H222Q174 250 143 228T104 165L97 126Q95 114 95 109Q95 77 118 59T181
40H244ZM298 563T274 585T249 644Q249 696 281 727T367 759Q407 759 431 737T455 677Q455 626 423 595T337 563Q298 563 274 585ZM374 601T393 621T413 673Q413 695 400 707T363 720Q331 720 311 700T291 648Q291 627 305 614T342 601Q374 601 393 621Z" />
<glyph unicode="&#xe6;" glyph-name="ae" horiz-adv-x="898" d="M114 -8T78 21T42 102Q42 109 44 127L50 164Q60 225 110 261T231 298H296Q330 298 365 287T422 256L439 353Q441 369 441 376Q441 414 418 436T354 459H276Q228 459 195 437T155 379H102Q112 437
160 472T276 507H354Q401 507 436 486T483 429H484Q511 465 550 486T633 507H710Q778 507 818 468T858 363Q858 346 855 326L840 242H473L459 166Q457 156 457 138Q457 93 484 67T559 40H630Q684 40 722 71T770 154H822Q810 81 758 37T630 -8H559Q504 -8 465 17T415
86H414Q377 42 330 17T238 -8H177Q114 -8 78 21ZM795 288L801 326Q804 344 804 359Q804 405 780 432T710 459H633Q578 459 538 422T487 322L481 288H795ZM245 40Q289 40 333 71T403 152L412 203Q394 224 360 237T288 250H223Q176 250 144 227T104 164L97 127Q96
122 96 111Q96 79 119 60T183 40H245Z" />
<glyph unicode="&#xe7;" glyph-name="ccedilla" horiz-adv-x="529" d="M446 362Q448 374 448 380Q448 416 423 437T353 459H271Q215 459 178 423T129 322L101 167Q98 152 98 138Q98 93 125 67T198 40H280Q333 40 368 73T415 167H467Q451 84 402 38T280 -8H246L218
-53H221Q256 -53 276 -69T297 -112Q297 -121 296 -126L294 -136Q287 -171 260 -191T189 -211H136L142 -172H189Q214 -172 230 -163T249 -136L251 -126Q255 -109 244 -99T211 -89H167L174 -52L200 -8H196Q125 -8 85 29T44 130Q44 141 48 167L75 322Q91 409 143 458T271
507H353Q421 507 460 475T500 388Q500 371 498 362H446Z" />
<glyph unicode="&#xe8;" glyph-name="egrave" horiz-adv-x="545" d="M129 -8T87 30T45 132Q45 149 48 167L75 322Q91 409 143 458T275 507H356Q424 507 464 468T505 364Q505 346 502 326L488 242H115L102 167Q100 157 100 139Q100 94 127 67T201 40H277Q334 40
370 70T417 154H470Q456 77 406 35T277 -8H201Q129 -8 87 30ZM442 288L449 326Q452 343 452 357Q452 404 426 431T356 459H275Q218 459 179 423T129 322L123 288H442ZM245 729H306L364 585H315L245 729Z" />
<glyph unicode="&#xe9;" glyph-name="eacute" horiz-adv-x="545" d="M129 -8T87 30T45 132Q45 149 48 167L75 322Q91 409 143 458T275 507H356Q424 507 464 468T505 364Q505 346 502 326L488 242H115L102 167Q100 157 100 139Q100 94 127 67T201 40H277Q334 40
370 70T417 154H470Q456 77 406 35T277 -8H201Q129 -8 87 30ZM442 288L449 326Q452 343 452 357Q452 404 426 431T356 459H275Q218 459 179 423T129 322L123 288H442ZM411 729H476L356 585H303L411 729Z" />
<glyph unicode="&#xea;" glyph-name="ecircumflex" horiz-adv-x="545" d="M129 -8T87 30T45 132Q45 149 48 167L75 322Q91 409 143 458T275 507H356Q424 507 464 468T505 364Q505 346 502 326L488 242H115L102 167Q100 157 100 139Q100 94 127 67T201 40H277Q334
40 370 70T417 154H470Q456 77 406 35T277 -8H201Q129 -8 87 30ZM442 288L449 326Q452 343 452 357Q452 404 426 431T356 459H275Q218 459 179 423T129 322L123 288H442ZM335 737H380L470 585H420L354 699L247 585H192L335 737Z" />
<glyph unicode="&#xeb;" glyph-name="edieresis" horiz-adv-x="545" d="M129 -8T87 30T45 132Q45 149 48 167L75 322Q91 409 143 458T275 507H356Q424 507 464 468T505 364Q505 346 502 326L488 242H115L102 167Q100 157 100 139Q100 94 127 67T201 40H277Q334
40 370 70T417 154H470Q456 77 406 35T277 -8H201Q129 -8 87 30ZM442 288L449 326Q452 343 452 357Q452 404 426 431T356 459H275Q218 459 179 423T129 322L123 288H442ZM221 585T212 594T203 617Q203 639 216 653T252 667Q268 667 277 658T287 634Q287 612 273
599T237 585Q221 585 212 594ZM408 585T399 594T390 617Q390 639 403 653T439 667Q455 667 464 658T473 634Q473 612 460 599T424 585Q408 585 399 594Z" />
<glyph unicode="&#xec;" glyph-name="igrave" horiz-adv-x="228" d="M131 499H185L97 0H43L131 499ZM91 744H152L210 600H161L91 744Z" />
<glyph unicode="&#xed;" glyph-name="iacute" horiz-adv-x="228" d="M131 499H185L97 0H43L131 499ZM250 744H315L195 600H142L250 744Z" />
<glyph unicode="&#xee;" glyph-name="icircumflex" horiz-adv-x="228" d="M131 499H185L97 0H43L131 499ZM177 737H222L312 585H262L196 699L89 585H34L177 737Z" />
<glyph unicode="&#xef;" glyph-name="idieresis" horiz-adv-x="228" d="M131 499H185L97 0H43L131 499ZM63 585T54 594T45 617Q45 639 58 653T94 667Q110 667 119 658T129 634Q129 612 115 599T79 585Q63 585 54 594ZM250 585T241 594T232 617Q232 639 245 653T281
667Q297 667 306 658T315 634Q315 612 302 599T266 585Q250 585 241 594Z" />
<glyph unicode="&#xf0;" glyph-name="eth" horiz-adv-x="581" d="M560 654T560 508Q560 450 546 371L519 212Q501 108 439 50T284 -8H213Q134 -8 88 35T42 150Q42 172 46 192L67 308Q84 402 143 458T287 515H358Q407 515 447 490T503 423H504Q510 468 510 505Q510
568 493 610T442 676L368 599H314L406 695Q356 714 280 714H256L264 762H288Q383 762 443 734L498 792H552L478 714Q560 654 560 508ZM482 310T482 328Q482 389 447 428T354 467H287Q225 467 179 424T120 309L100 191Q97 173 97 157Q97 103 128 72T215 40H283Q353
40 402 85T464 210L479 292Q482 310 482 328Z" />
<glyph unicode="&#xf1;" glyph-name="ntilde" horiz-adv-x="565" d="M126 499H178L163 414Q197 459 237 483T316 507H381Q440 507 474 473T509 380Q509 369 505 341L445 0H392L452 342Q455 359 455 374Q455 413 435 436T379 459H314Q269 459 223 422T149 326L92
0H38L126 499ZM390 577T376 586T344 614Q331 628 322 634T301 641H289Q272 641 260 629T242 593H197Q206 634 231 657T292 681H304Q327 681 342 671T373 643Q386 629 394 623T414 617H426Q441 617 453 630T471 666H515Q506 624 482 601T423 577H412Q390 577 376
586Z" />
<glyph unicode="&#xf2;" glyph-name="ograve" horiz-adv-x="563" d="M130 -8T88 31T46 137Q46 156 49 175L75 324Q90 410 144 458T279 507H358Q432 507 474 468T517 362Q517 344 514 324L488 175Q473 89 419 41T282 -8H203Q130 -8 88 31ZM282 40Q342 40 383 76T435
175L461 324Q464 339 464 354Q464 402 436 430T358 459H279Q219 459 180 424T129 324L103 175Q100 159 100 144Q100 96 127 68T203 40H282ZM255 729H316L374 585H325L255 729Z" />
<glyph unicode="&#xf3;" glyph-name="oacute" horiz-adv-x="563" d="M130 -8T88 31T46 137Q46 156 49 175L75 324Q90 410 144 458T279 507H358Q432 507 474 468T517 362Q517 344 514 324L488 175Q473 89 419 41T282 -8H203Q130 -8 88 31ZM282 40Q342 40 383 76T435
175L461 324Q464 339 464 354Q464 402 436 430T358 459H279Q219 459 180 424T129 324L103 175Q100 159 100 144Q100 96 127 68T203 40H282ZM421 729H486L366 585H313L421 729Z" />
<glyph unicode="&#xf4;" glyph-name="ocircumflex" horiz-adv-x="563" d="M130 -8T88 31T46 137Q46 156 49 175L75 324Q90 410 144 458T279 507H358Q432 507 474 468T517 362Q517 344 514 324L488 175Q473 89 419 41T282 -8H203Q130 -8 88 31ZM282 40Q342 40 383
76T435 175L461 324Q464 339 464 354Q464 402 436 430T358 459H279Q219 459 180 424T129 324L103 175Q100 159 100 144Q100 96 127 68T203 40H282ZM345 737H390L480 585H430L364 699L257 585H202L345 737Z" />
<glyph unicode="&#xf5;" glyph-name="otilde" horiz-adv-x="563" d="M130 -8T88 31T46 137Q46 156 49 175L75 324Q90 410 144 458T279 507H358Q432 507 474 468T517 362Q517 344 514 324L488 175Q473 89 419 41T282 -8H203Q130 -8 88 31ZM282 40Q342 40 383 76T435
175L461 324Q464 339 464 354Q464 402 436 430T358 459H279Q219 459 180 424T129 324L103 175Q100 159 100 144Q100 96 127 68T203 40H282ZM383 577T369 586T337 614Q324 628 315 634T294 641H282Q265 641 253 629T235 593H190Q199 634 224 657T285 681H297Q320
681 335 671T366 643Q379 629 387 623T407 617H419Q434 617 446 630T464 666H508Q499 624 475 601T416 577H405Q383 577 369 586Z" />
<glyph unicode="&#xf6;" glyph-name="odieresis" horiz-adv-x="563" d="M130 -8T88 31T46 137Q46 156 49 175L75 324Q90 410 144 458T279 507H358Q432 507 474 468T517 362Q517 344 514 324L488 175Q473 89 419 41T282 -8H203Q130 -8 88 31ZM282 40Q342 40 383
76T435 175L461 324Q464 339 464 354Q464 402 436 430T358 459H279Q219 459 180 424T129 324L103 175Q100 159 100 144Q100 96 127 68T203 40H282ZM231 585T222 594T213 617Q213 639 226 653T262 667Q278 667 287 658T297 634Q297 612 283 599T247 585Q231 585
222 594ZM418 585T409 594T400 617Q400 639 413 653T449 667Q465 667 474 658T483 634Q483 612 470 599T434 585Q418 585 409 594Z" />
<glyph unicode="&#xf7;" glyph-name="divide" horiz-adv-x="550" d="M288 420T278 429T267 454Q267 477 282 492T319 508Q336 508 346 499T356 474Q356 451 341 436T304 420Q288 420 278 429ZM79 347H505L496 300H71L79 347ZM238 139T228 148T218 173Q218 196
233 211T270 227Q286 227 296 218T306 193Q306 170 291 155T254 139Q238 139 228 148Z" />
<glyph unicode="&#xf8;" glyph-name="oslash" horiz-adv-x="563" d="M517 426T517 362Q517 344 514 324L488 175Q473 89 419 41T282 -8H203Q156 -8 120 9L86 -34H32L85 34Q46 72 46 137Q46 156 49 175L75 324Q90 410 144 458T279 507H358Q407 507 443 489L478
534H532L478 465Q517 426 517 362ZM100 159T100 144Q100 104 120 78L410 448Q388 459 358 459H279Q219 459 180 424T129 324L103 175Q100 159 100 144ZM464 339T464 354Q464 394 443 421L152 51Q176 40 203 40H282Q342 40 383 76T435 175L461 324Q464 339 464 354Z"
/>
<glyph unicode="&#xf9;" glyph-name="ugrave" horiz-adv-x="563" d="M126 -8T92 26T57 118Q57 136 60 154L120 499H174L113 153Q110 138 110 124Q110 85 130 63T186 40H248Q294 40 343 81T416 179L472 499H525L437 0H385L401 90Q368 46 326 19T249 -8H186Q126
-8 92 26ZM255 729H316L374 585H325L255 729Z" />
<glyph unicode="&#xfa;" glyph-name="uacute" horiz-adv-x="563" d="M126 -8T92 26T57 118Q57 136 60 154L120 499H174L113 153Q110 138 110 124Q110 85 130 63T186 40H248Q294 40 343 81T416 179L472 499H525L437 0H385L401 90Q368 46 326 19T249 -8H186Q126
-8 92 26ZM421 729H486L366 585H313L421 729Z" />
<glyph unicode="&#xfb;" glyph-name="ucircumflex" horiz-adv-x="563" d="M126 -8T92 26T57 118Q57 136 60 154L120 499H174L113 153Q110 138 110 124Q110 85 130 63T186 40H248Q294 40 343 81T416 179L472 499H525L437 0H385L401 90Q368 46 326 19T249 -8H186Q126
-8 92 26ZM345 737H390L480 585H430L364 699L257 585H202L345 737Z" />
<glyph unicode="&#xfc;" glyph-name="udieresis" horiz-adv-x="563" d="M126 -8T92 26T57 118Q57 136 60 154L120 499H174L113 153Q110 138 110 124Q110 85 130 63T186 40H248Q294 40 343 81T416 179L472 499H525L437 0H385L401 90Q368 46 326 19T249 -8H186Q126
-8 92 26ZM231 585T222 594T213 617Q213 639 226 653T262 667Q278 667 287 658T297 634Q297 612 283 599T247 585Q231 585 222 594ZM418 585T409 594T400 617Q400 639 413 653T449 667Q465 667 474 658T483 634Q483 612 470 599T434 585Q418 585 409 594Z" />
<glyph unicode="&#xfd;" glyph-name="yacute" horiz-adv-x="565" d="M97 -203T60 -171T28 -85H81Q80 -117 102 -136T162 -156H241Q296 -156 333 -120T382 -18L403 94Q371 52 329 26T252 0H188Q128 0 93 34T58 126Q58 144 61 162L120 499H174L114 161Q111 146 111
133Q111 94 131 71T188 48H251Q297 48 344 86T417 182L474 499H527L436 -18Q420 -105 369 -154T241 -203H162Q97 -203 60 -171ZM421 729H486L366 585H313L421 729Z" />
<glyph unicode="&#xfe;" glyph-name="thorn" horiz-adv-x="571" d="M161 700H215L166 423Q196 462 233 484T305 507H377Q446 507 486 469T527 366Q527 353 523 327L499 191Q483 97 430 45T299 -8H226Q186 -8 153 13T104 69L56 -201H3L161 700ZM298 40Q355 40 393
80T445 191L469 327Q472 344 472 359Q472 405 447 432T376 459H304Q260 459 217 424T151 338L121 166Q121 115 150 78T228 40H298Z" />
<glyph unicode="&#xff;" glyph-name="ydieresis" horiz-adv-x="565" d="M97 -203T60 -171T28 -85H81Q80 -117 102 -136T162 -156H241Q296 -156 333 -120T382 -18L403 94Q371 52 329 26T252 0H188Q128 0 93 34T58 126Q58 144 61 162L120 499H174L114 161Q111 146
111 133Q111 94 131 71T188 48H251Q297 48 344 86T417 182L474 499H527L436 -18Q420 -105 369 -154T241 -203H162Q97 -203 60 -171ZM231 585T222 594T213 617Q213 639 226 653T262 667Q278 667 287 658T297 634Q297 612 283 599T247 585Q231 585 222 594ZM418 585T409
594T400 617Q400 639 413 653T449 667Q465 667 474 658T483 634Q483 612 470 599T434 585Q418 585 409 594Z" />
<glyph unicode="&#x2013;" glyph-name="endash" horiz-adv-x="635" d="M68 279H578L570 231H59L68 279Z" />
<glyph unicode="&#x2014;" glyph-name="emdash" horiz-adv-x="740" d="M68 279H683L675 231H59L68 279Z" />
<glyph unicode="&#x2018;" glyph-name="quoteleft" horiz-adv-x="228" d="M251 665L237 657Q202 636 184 611T159 549L151 502H97L105 549Q116 603 141 638T212 699L228 708L251 665Z" />
<glyph unicode="&#x2019;" glyph-name="quoteright" horiz-adv-x="228" d="M101 541L116 550Q151 571 169 596T194 658L202 705H256L248 658Q237 604 212 568T140 507L124 498L101 541Z" />
<glyph unicode="&#x201a;" glyph-name="quotesinglbase" horiz-adv-x="208" d="M214 167L229 176Q264 197 282 222T307 284L315 331H369L361 284Q350 230 325 194T253 133L237 124L214 167Z" />
<glyph unicode="&#x201c;" glyph-name="quotedblleft" horiz-adv-x="377" d="M251 665L237 657Q202 636 184 611T159 549L151 502H97L105 549Q116 603 141 638T212 699L228 708L251 665ZM401 665L386 657Q352 636 334 610T309 549L300 502H246L255 549Q265 603
290 638T362 699L378 708L401 665Z" />
<glyph unicode="&#x201d;" glyph-name="quotedblright" horiz-adv-x="377" d="M101 541L116 550Q151 571 169 596T194 658L202 705H256L248 658Q237 604 212 568T140 507L124 498L101 541ZM250 541L265 550Q300 571 318 596T343 658L351 705H405L397 658Q386 604
361 568T289 507L273 498L250 541Z" />
<glyph unicode="&#x201e;" glyph-name="quotedblbase" horiz-adv-x="357" d="M214 167L229 176Q264 197 282 222T307 284L315 331H369L361 284Q350 230 325 194T253 133L237 124L214 167ZM107 -89L122 -80Q157 -59 175 -34T200 28L208 75H262L254 28Q243 -26 218
-62T146 -123L130 -132L107 -89Z" />
<glyph unicode="&#x2022;" glyph-name="bullet" horiz-adv-x="281" d="M103 201T85 217T66 262Q66 305 91 331T159 358Q189 358 207 341T225 296Q225 253 200 227T133 201Q103 201 85 217Z" />
<glyph unicode="&#x2039;" glyph-name="guilsinglleft" horiz-adv-x="346" d="M45 268L331 520L318 447L111 264L253 79L242 16L45 268Z" />
<glyph unicode="&#x203a;" glyph-name="guilsinglright" horiz-adv-x="346" d="M34 88L241 273L98 456L110 520L307 268L21 16L34 88Z" />
</font>
</defs>
</svg>
