<?xml version="1.0" standalone="no"?>
<!DOCTYPE svg PUBLIC "-//W3C//DTD SVG 1.1//EN" "http://www.w3.org/Graphics/SVG/1.1/DTD/svg11.dtd">
<svg xmlns="http://www.w3.org/2000/svg">
<defs >
<font id="BaiJamjuree" horiz-adv-x="542" ><font-face
    font-family="Bai Jamjuree ExtraLight"
    units-per-em="1000"
    panose-1="0 0 3 0 0 0 0 0 0 0"
    ascent="1000"
    descent="-250"
    alphabetic="0" />
<glyph unicode=" " glyph-name="space" horiz-adv-x="246" />
<glyph unicode="!" glyph-name="exclam" horiz-adv-x="260" d="M192 700H228L130 148H94L192 700ZM70 -10T62 -3T54 18Q54 38 66 50T97 62Q111 62 119 55T127 34Q127 14 115 2T84 -10Q70 -10 62 -3Z" />
<glyph unicode="&quot;" glyph-name="quotedbl" horiz-adv-x="300" d="M148 700H184L149 502H113L148 700ZM276 700H312L277 502H241L276 700Z" />
<glyph unicode="#" glyph-name="numbersign" horiz-adv-x="667" d="M192 202H60L65 233H197L238 464H107L112 495H244L280 700H314L278 495H477L513 700H546L510 495H642L637 464H504L463 233H596L591 202H458L422 0H389L425 202H226L190 0H156L192 202ZM431 234L471
463H272L232 234H431Z" />
<glyph unicode="$" glyph-name="dollar" horiz-adv-x="613" d="M514 708T554 672T594 574Q594 556 591 538H556Q559 555 559 568Q559 617 528 646T444 675H331Q264 675 221 645T168 562L157 499Q155 483 155 477Q155 441 179 418T248 386L420 356Q480 346 513
314T546 235Q546 227 544 211L532 140Q520 70 466 31T327 -8H289L273 -100H238L254 -8H214Q138 -8 95 30T52 137Q52 160 56 180H91Q87 154 87 142Q87 86 120 56T214 25H327Q397 25 441 55T496 140L508 211Q509 217 509 229Q509 265 485 289T414 322L242 352Q183
362 151 394T119 474Q119 481 121 499L132 562Q144 631 196 669T332 708H381L397 800H432L416 708H445Q514 708 554 672Z" />
<glyph unicode="%" glyph-name="percent" horiz-adv-x="924" d="M716 722H752L245 -25H209L716 722ZM145 258T118 286T90 361Q90 375 93 391L125 573Q136 636 172 671T263 706H321Q368 706 395 679T422 604Q422 590 419 573L387 391Q376 328 340 293T251 258H193Q145
258 118 286ZM251 289Q291 289 317 316T353 391L385 573Q388 587 388 600Q388 634 370 654T321 675H263Q223 675 196 648T159 573L127 391Q125 382 125 365Q125 330 143 310T193 289H251ZM592 -8T565 20T537 95Q537 109 540 125L572 307Q583 370 619 405T710 440H768Q815
440 842 413T869 338Q869 324 866 307L834 125Q823 62 787 27T698 -8H640Q592 -8 565 20ZM698 23Q738 23 765 50T800 125L832 307Q835 321 835 334Q835 368 817 388T768 409H710Q669 409 642 382T606 307L574 125Q572 116 572 99Q572 64 590 44T640 23H698Z" />
<glyph unicode="&amp;" glyph-name="ampersand" horiz-adv-x="620" d="M528 191T472 116L542 0H501L448 87Q406 41 355 17T245 -8H199Q129 -8 88 26T47 115Q47 131 49 140L58 190Q66 233 89 264T145 319T236 376L263 392L233 441Q209 483 209 528Q209 547 211
557L215 581Q225 638 267 673T371 708H408Q459 708 490 681T521 608Q521 602 519 586L515 562Q510 532 495 512T445 467T336 398L311 383L453 147Q497 210 517 294H552Q528 191 472 116ZM293 407L322 424Q390 464 418 483T461 520T480 562L484 586Q486 598 486
604Q486 637 465 656T407 676H370Q323 676 290 650T250 581L246 557Q243 541 243 526Q243 491 259 464L293 407ZM297 25T344 49T430 117L280 364L243 343Q196 317 169 298T122 253T94 190L85 140Q83 126 83 119Q83 76 114 51T199 25H245Q297 25 344 49Z" />
<glyph unicode="&apos;" glyph-name="quotesingle" horiz-adv-x="172" d="M148 700H184L149 502H113L148 700Z" />
<glyph unicode="(" glyph-name="parenleft" horiz-adv-x="289" d="M52 -47T52 102Q52 167 66 240L70 260Q96 391 148 498T284 700H320Q235 596 183 489T106 260L102 240Q89 175 89 107Q89 -43 161 -202H125Q52 -47 52 102Z" />
<glyph unicode=")" glyph-name="parenright" horiz-adv-x="289" d="M53 -98T105 9T182 238L186 258Q199 323 199 390Q199 540 127 700H163Q236 544 236 395Q236 331 222 258L218 238Q192 107 140 0T4 -202H-32Q53 -98 105 9Z" />
<glyph unicode="*" glyph-name="asterisk" horiz-adv-x="429" d="M256 576L127 502L117 528L252 600L142 672L162 698L265 624L287 750H317L295 624L425 698L435 672L300 600L410 528L390 502L286 576L264 451H234L256 576Z" />
<glyph unicode="+" glyph-name="plus" horiz-adv-x="566" d="M275 307H78L84 340H281L316 539H352L317 340H514L508 307H311L276 108H240L275 307Z" />
<glyph unicode="," glyph-name="comma" horiz-adv-x="200" d="M-34 -81L-22 -74Q14 -52 32 -27T56 34L64 79H100L92 34Q82 -17 59 -49T-8 -105L-19 -111L-34 -81Z" />
<glyph unicode="-" glyph-name="hyphen" horiz-adv-x="401" d="M72 271H337L331 239H66L72 271Z" />
<glyph unicode="." glyph-name="period" horiz-adv-x="208" d="M44 -10T36 -3T28 18Q28 38 40 50T71 62Q85 62 93 55T102 34Q102 15 90 3T58 -10Q44 -10 36 -3Z" />
<glyph unicode="/" glyph-name="slash" horiz-adv-x="508" d="M506 722H545L37 -25H-2L506 722Z" />
<glyph unicode="0" glyph-name="zero" horiz-adv-x="632" d="M149 -8T107 34T65 150Q65 175 69 198L123 502Q140 599 197 653T338 708H444Q519 708 561 666T603 550Q603 525 599 502L545 198Q528 101 471 47T329 -8H223Q149 -8 107 34ZM327 25Q399 25 447 70T509
198L563 502Q567 522 567 545Q567 605 534 640T442 675H340Q269 675 221 630T159 502L105 198Q101 178 101 156Q101 96 134 61T225 25H327Z" />
<glyph unicode="1" glyph-name="one" horiz-adv-x="343" d="M282 664L107 581L113 616L284 700H324L201 0H165L282 664Z" />
<glyph unicode="2" glyph-name="two" d="M26 28Q34 69 43 97T74 153T134 210L417 422Q488 475 498 534L504 566Q506 580 506 587Q506 627 477 651T398 675H305Q242 675 200 636T144 527H109Q124 612 176 660T305 708H398Q465 708 504 677T543 593Q543 580 540
566L534 534Q520 460 438 398L164 194Q116 159 95 125T63 33H456L450 0H21L26 28Z" />
<glyph unicode="3" glyph-name="three" horiz-adv-x="576" d="M478 708T517 674T556 580Q556 564 553 547L546 507Q536 455 504 416T425 360Q464 346 486 313T509 237Q509 222 506 207L499 167Q485 84 431 38T293 -8H196Q124 -8 83 31T41 137Q41 159 45 178H81Q78
160 78 143Q78 89 109 57T196 25H293Q361 25 406 62T463 167L470 207Q472 216 472 234Q472 284 439 313T346 343H254L260 375H352Q413 375 456 411T510 507L517 547Q520 562 520 575Q520 621 491 648T410 675H313Q247 675 204 635T147 522H111Q126 610 179 659T313
708H410Q478 708 517 674Z" />
<glyph unicode="4" glyph-name="four" horiz-adv-x="563" d="M378 153H48Q20 153 25 178L28 193L474 700H510L419 186H507L502 153H414L387 0H351L378 153ZM384 186L464 640H463L64 186H384Z" />
<glyph unicode="5" glyph-name="five" horiz-adv-x="584" d="M130 -8T90 28T49 124Q49 141 52 157H88Q86 147 86 129Q86 81 115 53T199 25H295Q364 25 409 64T468 173L480 240Q483 255 483 268Q483 319 449 349T354 379H117L174 700H572L566 667H204L159 412H354Q431
412 475 375T519 273Q519 258 516 240L504 173Q488 88 433 40T295 -8H199Q130 -8 90 28Z" />
<glyph unicode="6" glyph-name="six" horiz-adv-x="592" d="M155 -8T110 35T65 152Q65 177 69 198L120 485Q139 590 198 649T344 708H430Q496 708 534 672T572 572Q572 560 568 532H534Q537 550 537 565Q537 616 509 645T430 675H344Q271 675 222 625T156 485L126
319Q210 436 325 436H389Q460 436 501 397T542 290Q542 267 538 248L529 198Q512 101 453 47T305 -8H233Q155 -8 110 35ZM305 25Q379 25 428 70T493 198L502 248Q506 274 506 285Q506 339 475 371T389 403H323Q258 403 200 357T113 243L105 196Q101 168 101 157Q101
96 136 61T233 25H305Z" />
<glyph unicode="7" glyph-name="seven" horiz-adv-x="478" d="M128 24Q136 72 153 117T190 195L478 667H106L112 700H525L520 673L229 195Q206 157 189 111T164 24L160 0H124L128 24Z" />
<glyph unicode="8" glyph-name="eight" horiz-adv-x="606" d="M132 -8T86 29T40 130Q40 146 43 162L49 196Q59 250 94 294T192 359V360Q158 381 141 410T124 476Q124 492 127 507L134 545Q148 622 201 665T335 708H421Q495 708 538 673T581 577Q581 562 578 545L571
507Q561 458 532 419T454 359V358Q499 339 520 305T542 228Q542 211 539 196L533 162Q519 82 462 37T317 -8H211Q132 -8 86 29ZM372 374Q434 374 479 410T535 507L542 546Q544 555 544 572Q544 619 511 647T421 675H335Q268 675 225 641T170 546L163 507Q161 497
161 480Q161 431 192 403T278 374H372ZM317 25Q390 25 438 61T497 162L503 196Q506 211 506 224Q506 277 469 309T367 342H273Q201 342 149 303T85 196L79 162Q76 149 76 135Q76 85 112 55T211 25H317Z" />
<glyph unicode="9" glyph-name="nine" horiz-adv-x="596" d="M142 -8T101 29T60 128Q60 145 63 163H98Q95 147 95 133Q95 83 126 54T211 25H297Q365 25 412 72T474 203L502 361Q419 264 313 264H246Q175 264 134 304T93 413Q93 437 97 457L106 507Q123 602 183
655T334 708H404Q480 708 524 667T569 556Q569 534 565 514L510 203Q492 102 437 47T297 -8H211Q142 -8 101 29ZM315 297Q376 297 432 336T514 427L529 514Q532 534 532 550Q532 608 498 641T404 675H334Q257 675 207 631T142 507L133 457Q129 431 129 418Q129
362 160 330T246 297H315Z" />
<glyph unicode=":" glyph-name="colon" horiz-adv-x="208" d="M113 380T105 387T97 408Q97 428 109 440T140 452Q154 452 162 445T170 424Q170 404 158 392T127 380Q113 380 105 387ZM53 40T45 47T37 68Q37 88 49 100T80 112Q94 112 102 105T110 84Q110 64 98
52T67 40Q53 40 45 47Z" />
<glyph unicode=";" glyph-name="semicolon" horiz-adv-x="207" d="M112 380T104 387T96 408Q96 428 108 440T139 452Q153 452 161 445T169 424Q169 404 157 392T126 380Q112 380 104 387ZM-36 -81L-24 -74Q11 -53 29 -28T54 34L62 79H98L90 34Q80 -15 57 -47T-10
-105L-21 -111L-36 -81Z" />
<glyph unicode="&lt;" glyph-name="less" horiz-adv-x="577" d="M54 277L60 315L566 579L559 538L89 293L473 48L466 13L54 277Z" />
<glyph unicode="=" glyph-name="equal" horiz-adv-x="523" d="M97 413H484L478 380H91L97 413ZM66 238H453L447 205H60L66 238Z" />
<glyph unicode="&gt;" glyph-name="greater" horiz-adv-x="577" d="M34 54L505 299L120 544L126 579L540 315L534 277L27 13L34 54Z" />
<glyph unicode="?" glyph-name="question" horiz-adv-x="551" d="M248 214Q257 268 290 303T383 380Q435 417 460 442T492 504L501 557Q503 573 503 579Q503 623 473 649T390 675H304Q237 675 195 643T141 552H105Q118 625 171 666T304 708H390Q459 708 499 675T539
585Q539 567 537 557L528 504Q520 457 491 427T407 358Q352 320 323 289T284 210L275 161H239L248 214ZM213 -10T205 -3T197 18Q197 38 209 50T240 62Q254 62 262 55T270 34Q270 14 258 2T227 -10Q213 -10 205 -3Z" />
<glyph unicode="@" glyph-name="at" horiz-adv-x="860" d="M174 -29T116 23T57 164Q57 185 62 213L103 444Q126 577 212 651T428 726H625Q723 726 780 674T838 537Q838 513 834 492L801 303Q789 234 755 196T670 158H640Q607 158 583 176T554 224H553Q529 189
494 169T422 148H369Q317 148 287 177T257 257Q257 273 260 289L277 384Q290 456 334 496T443 537H492Q524 537 551 521T590 481L599 531H633L587 268Q585 256 585 250Q585 222 600 206T642 190H672Q707 190 732 220T766 303L799 492Q803 520 803 533Q803 607 755
650T625 693H428Q312 693 236 628T138 444L97 213Q93 193 93 169Q93 94 141 49T272 4H448Q488 4 532 15T610 45L623 17Q591 -4 544 -16T445 -29H272Q174 -29 116 23ZM420 180Q467 180 505 213T558 301L576 404Q576 451 554 478T490 505H443Q391 505 357 473T312
384L295 289Q292 274 292 262Q292 224 312 202T369 180H420Z" />
<glyph unicode="A" glyph-name="A" horiz-adv-x="629" d="M473 213H148L30 0H-10L378 700H395Q411 700 415 678L551 0H515L473 213ZM166 246H466L388 648H387L166 246Z" />
<glyph unicode="B" glyph-name="B" horiz-adv-x="648" d="M69 0T61 7T53 27Q53 33 54 36L171 700H450Q522 700 563 668T605 582Q605 570 602 556L591 496Q582 449 558 415T498 362V361Q541 351 565 322T589 250Q589 233 587 224L577 165Q563 87 509 44T371 0H84Q69
0 61 7ZM418 369Q469 369 507 403T555 496L566 556Q568 570 568 576Q568 618 537 642T450 667H201L149 369H418ZM371 33Q441 33 485 68T541 165L551 224Q553 238 553 245Q553 286 524 311T443 337H143L89 33H371Z" />
<glyph unicode="C" glyph-name="C" horiz-adv-x="646" d="M157 -8T111 41T64 176Q64 209 69 235L110 465Q130 580 195 644T357 708H464Q544 708 591 664T639 546Q639 523 635 503H600Q603 523 603 541Q603 603 566 639T464 675H357Q275 675 220 620T146 465L105
235Q100 211 100 180Q100 108 137 67T238 25H347Q427 25 481 75T551 213H586Q568 109 505 51T347 -8H238Q157 -8 111 41Z" />
<glyph unicode="D" glyph-name="D" horiz-adv-x="660" d="M69 0T61 7T53 27Q53 33 54 36L171 700H430Q526 700 581 653T637 524Q637 501 633 481L590 239Q569 121 501 61T321 0H84Q69 0 61 7ZM321 33Q418 33 477 85T554 239L597 481Q600 501 600 519Q600 587 554
627T429 667H201L89 33H321Z" />
<glyph unicode="E" glyph-name="E" horiz-adv-x="586" d="M54 0T54 29Q54 35 55 39L172 700H603L597 667H202L150 374H515L509 341H144L90 33H485L479 0H84Q54 0 54 29Z" />
<glyph unicode="F" glyph-name="F" horiz-adv-x="562" d="M171 700H593L588 667H202L149 370H498L493 337H143L84 0H48L171 700Z" />
<glyph unicode="G" glyph-name="G" horiz-adv-x="670" d="M159 -8T112 42T64 177Q64 210 69 235L110 465Q130 580 196 644T361 708H467Q549 708 597 664T645 546Q645 523 641 503H606Q609 523 609 540Q609 602 571 638T467 675H361Q277 675 220 620T146 465L105
235Q100 203 100 181Q100 109 138 67T242 25H350Q433 25 488 74T560 213L578 314H375L381 347H619L595 213Q576 109 512 51T350 -8H242Q159 -8 112 42Z" />
<glyph unicode="H" glyph-name="H" horiz-adv-x="677" d="M171 700H207L149 370H570L628 700H664L541 0H505L564 337H143L84 0H48L171 700Z" />
<glyph unicode="I" glyph-name="I" horiz-adv-x="228" d="M175 700H211L88 0H52L175 700Z" />
<glyph unicode="J" glyph-name="J" horiz-adv-x="564" d="M111 -8T72 34T33 149Q33 174 37 197H73Q69 176 69 151Q69 93 97 59T176 25H269Q333 25 377 75T437 215L523 700H559L473 215Q454 108 401 50T269 -8H176Q111 -8 72 34Z" />
<glyph unicode="K" glyph-name="K" horiz-adv-x="606" d="M278 387L524 0H482L250 362L129 254L84 0H48L171 700H207L139 308L580 700H629L278 387Z" />
<glyph unicode="L" glyph-name="L" horiz-adv-x="546" d="M54 0T54 29Q54 35 55 39L172 700H208L90 33H470L464 0H84Q54 0 54 29Z" />
<glyph unicode="M" glyph-name="M" horiz-adv-x="781" d="M171 700H206L383 204L727 700H768L645 0H610L721 631L395 164Q387 153 380 153H368L194 631L83 0H48L171 700Z" />
<glyph unicode="N" glyph-name="N" horiz-adv-x="676" d="M171 700H205L515 57L628 700H663L540 0H506L195 643L82 0H48L171 700Z" />
<glyph unicode="O" glyph-name="O" horiz-adv-x="682" d="M163 -8T113 41T63 175Q63 197 68 229L111 471Q130 583 197 645T365 708H467Q554 708 604 658T654 524Q654 503 649 471L606 229Q587 117 520 55T351 -8H249Q163 -8 113 41ZM351 25Q437 25 495 79T570
229L613 471Q618 499 618 520Q618 591 578 633T467 675H365Q280 675 222 621T147 471L104 229Q99 201 99 180Q99 108 139 67T249 25H351Z" />
<glyph unicode="P" glyph-name="P" horiz-adv-x="610" d="M171 700H485Q549 700 586 670T623 588Q623 581 621 563L600 444Q587 373 538 333T414 293H136L84 0H48L171 700ZM414 326Q475 326 514 357T564 444L585 563Q587 577 587 583Q587 621 560 644T485 667H202L141
326H414Z" />
<glyph unicode="Q" glyph-name="Q" horiz-adv-x="684" d="M554 708T604 658T654 524Q654 503 649 471L606 228Q588 128 524 66L586 -9L560 -32L498 43Q432 -8 347 -8H249Q163 -8 113 41T63 175Q63 197 68 229L111 471Q130 583 197 645T365 708H467Q554 708 604
658ZM618 499T618 520Q618 591 578 633T467 675H365Q280 675 222 621T147 471L104 229Q99 201 99 180Q99 108 139 66T249 24H351Q423 24 478 67L390 172L416 194L503 90Q555 143 570 228L613 471Q618 499 618 520Z" />
<glyph unicode="R" glyph-name="R" horiz-adv-x="636" d="M171 700H486Q549 700 585 670T622 588Q622 575 619 561L604 479Q594 426 554 386T454 332L453 331Q480 316 498 283T521 202L542 0H506L484 202Q478 259 449 291T372 323H141L84 0H48L171 700ZM406 356Q469
356 513 390T568 479L583 561Q585 577 585 583Q585 622 559 644T486 667H202L147 356H406Z" />
<glyph unicode="S" glyph-name="S" horiz-adv-x="613" d="M138 -8T95 30T52 137Q52 160 56 180H91Q87 154 87 142Q87 86 120 56T214 25H327Q397 25 441 55T496 140L508 211Q509 217 509 229Q509 265 485 289T414 322L242 352Q183 362 151 394T119 474Q119 481
121 499L132 562Q144 631 196 669T332 708H445Q514 708 554 672T594 574Q594 556 591 538H556Q559 555 559 568Q559 617 528 646T444 675H331Q264 675 221 645T168 562L157 499Q155 483 155 477Q155 441 179 418T248 386L420 356Q480 346 513 314T546 235Q546 227
544 211L532 140Q520 70 466 31T327 -8H214Q138 -8 95 30Z" />
<glyph unicode="T" glyph-name="T" horiz-adv-x="564" d="M338 667H116L122 700H601L595 667H374L256 0H220L338 667Z" />
<glyph unicode="U" glyph-name="U" horiz-adv-x="678" d="M167 -8T122 37T76 158Q76 183 80 204L167 700H203L116 204Q112 184 112 161Q112 98 147 62T244 25H354Q430 25 480 72T546 204L633 700H669L582 204Q565 104 505 48T354 -8H244Q167 -8 122 37Z" />
<glyph unicode="V" glyph-name="V" horiz-adv-x="617" d="M243 0T239 25L113 700H149L270 47H271L622 700H662L283 0H268Q243 0 239 25Z" />
<glyph unicode="W" glyph-name="W" horiz-adv-x="827" d="M128 0T128 37L125 700H160L161 39H162L470 663H484Q508 663 511 639L586 39H587L821 700H860L623 37Q610 0 578 0H560L482 612H481L179 0H161Q128 0 128 37Z" />
<glyph unicode="X" glyph-name="X" horiz-adv-x="591" d="M294 359L115 700H154L318 387L589 700H634L335 355L521 0H482L311 327L27 0H-18L294 359Z" />
<glyph unicode="Y" glyph-name="Y" horiz-adv-x="606" d="M288 267L107 700H144L309 300L616 700H657L324 267L277 0H241L288 267Z" />
<glyph unicode="Z" glyph-name="Z" horiz-adv-x="572" d="M15 18L539 668H148L153 700H595L592 682L69 32H468L462 0H12L15 18Z" />
<glyph unicode="[" glyph-name="bracketleft" horiz-adv-x="299" d="M98 -207T66 -177T34 -94Q34 -78 37 -61L152 589Q164 658 208 696T321 735H336L331 702H316Q265 702 232 672T188 589L73 -61Q71 -70 71 -86Q71 -127 95 -150T161 -174H176L170 -207H155Q98
-207 66 -177Z" />
<glyph unicode="\" glyph-name="backslash" horiz-adv-x="508" d="M133 722H166L410 -25H377L133 722Z" />
<glyph unicode="]" glyph-name="bracketright" horiz-adv-x="299" d="M-26 -174H-11Q39 -174 72 -144T116 -61L231 589Q233 598 233 614Q233 655 209 678T143 702H128L134 735H149Q205 735 237 703T270 619Q270 604 267 589L152 -61Q139 -133 96 -170T-17 -207H-32L-26
-174Z" />
<glyph unicode="^" glyph-name="asciicircum" horiz-adv-x="517" d="M318 700H358L472 382H437L335 672L130 382H91L318 700Z" />
<glyph unicode="_" glyph-name="underscore" horiz-adv-x="492" d="M-45 -10H446L441 -42H-51L-45 -10Z" />
<glyph unicode="`" glyph-name="grave" horiz-adv-x="250" d="M147 725H188L247 589H213L147 725Z" />
<glyph unicode="a" glyph-name="a" horiz-adv-x="540" d="M116 -8T81 20T45 97Q45 104 47 120L55 166Q65 226 109 258T221 291H288Q324 291 362 278T422 244L442 356Q445 371 445 384Q445 426 420 450T351 475H275Q220 475 185 452T143 387H108Q119 443 163 475T275
507H351Q411 507 445 475T480 388Q480 373 477 356L414 0H380L395 85Q357 41 317 17T239 -8H177Q116 -8 81 20ZM240 24Q277 24 321 55T403 136L415 207Q396 230 361 244T288 259H221Q167 259 133 235T90 165L82 120Q80 108 80 102Q80 66 106 45T177 24H240Z" />
<glyph unicode="b" glyph-name="b" horiz-adv-x="564" d="M181 -8T147 18T93 88L78 0H44L167 700H202L153 417Q182 460 223 483T309 507H379Q442 507 478 470T514 370Q514 358 510 330L484 179Q469 91 418 42T291 -8H222Q181 -8 147 18ZM291 24Q353 24 394 65T449
179L475 330Q478 350 478 366Q478 416 452 445T379 475H311Q252 475 204 434T137 327L105 148Q112 99 145 62T222 24H291Z" />
<glyph unicode="c" glyph-name="c" horiz-adv-x="522" d="M126 -8T88 28T50 126Q50 143 53 162L82 327Q97 412 146 459T270 507H352Q415 507 452 477T489 397Q489 389 487 373H453Q455 387 455 392Q455 430 428 452T352 475H270Q211 475 171 436T117 327L88 162Q85
146 85 130Q85 81 113 53T192 24H274Q331 24 368 59T418 157H452Q437 79 391 36T274 -8H192Q126 -8 88 28Z" />
<glyph unicode="d" glyph-name="d" horiz-adv-x="562" d="M123 -8T87 30T51 132Q51 154 55 174L81 322Q96 405 148 456T276 507H354Q392 507 425 487T473 431L521 700H556L432 0H398L415 94Q378 43 340 18T257 -8H186Q123 -8 87 30ZM258 24Q305 24 350 62T427
166L462 364Q457 413 427 444T353 475H275Q216 475 172 433T116 322L90 174Q86 146 86 135Q86 84 112 54T186 24H258Z" />
<glyph unicode="e" glyph-name="e" horiz-adv-x="538" d="M128 -8T89 29T50 127Q50 143 53 161L82 327Q97 412 147 459T273 507H354Q419 507 456 470T493 370Q493 352 490 331L476 250H104L88 161Q85 146 85 131Q85 81 114 53T195 24H271Q331 24 370 57T421 151H456Q442
75 394 34T271 -8H195Q128 -8 89 29ZM446 281L455 331Q458 349 458 365Q458 416 430 445T354 475H273Q212 475 171 436T117 327L109 281H446Z" />
<glyph unicode="f" glyph-name="f" horiz-adv-x="345" d="M176 467H90L96 499H182L190 543Q205 626 247 665T364 704H383L377 672H358Q302 672 270 644T225 543L217 499H336L330 467H211L129 0H94L176 467Z" />
<glyph unicode="g" glyph-name="g" horiz-adv-x="564" d="M98 -203T64 -174T34 -96H69Q67 -130 91 -150T157 -171H241Q300 -171 340 -133T392 -26L413 93Q380 49 340 25T261 0H187Q125 0 89 38T52 140Q52 162 56 181L81 321Q97 409 148 458T275 507H353Q391 507
424 486T474 429L486 499H520L427 -26Q412 -109 363 -156T241 -203H157Q98 -203 64 -174ZM259 32Q309 32 354 70T424 155L461 364Q457 413 427 444T353 475H275Q213 475 171 435T116 321L91 181Q87 155 87 143Q87 92 114 62T187 32H259Z" />
<glyph unicode="h" glyph-name="h" horiz-adv-x="560" d="M167 700H202L150 403Q187 454 228 480T311 507H379Q435 507 466 474T498 383Q498 365 495 345L434 0H400L460 345Q463 363 463 380Q463 424 441 449T379 475H311Q268 475 220 438T139 340L79 0H44L167 700Z" />
<glyph unicode="i" glyph-name="i" horiz-adv-x="246" d="M171 593T163 600T154 620Q154 639 165 651T196 663Q209 663 217 656T225 636Q225 616 214 605T184 593Q171 593 163 600ZM149 499H184L96 0H61L149 499Z" />
<glyph unicode="j" glyph-name="j" horiz-adv-x="252" d="M176 593T168 600T159 620Q159 639 170 651T201 663Q214 663 222 656T231 636Q231 617 220 605T189 593Q176 593 168 600ZM-94 -167H-75Q-13 -167 16 -137T60 -32L154 499H189L96 -27Q84 -92 64 -129T9
-182T-81 -199H-100L-94 -167Z" />
<glyph unicode="k" glyph-name="k" horiz-adv-x="485" d="M233 283L417 0H377L206 260L111 180L79 0H44L167 700H202L120 230L441 499H489L233 283Z" />
<glyph unicode="l" glyph-name="l" horiz-adv-x="254" d="M103 0T83 19T62 79Q62 102 66 123L168 700H203L101 123Q97 103 97 83Q97 56 110 44T153 32H184L178 0H147Q103 0 83 19Z" />
<glyph unicode="m" glyph-name="m" horiz-adv-x="831" d="M712 507T742 477T772 396Q772 380 769 363L705 0H670L734 363Q737 378 737 392Q737 431 717 453T661 475H599Q555 475 515 440T453 347L392 0H357L419 353Q422 371 422 386Q422 426 403 450T352 475H292Q251
475 208 436T139 339L79 0H44L132 499H166L150 408Q182 456 218 481T292 507H352Q394 507 422 481T455 411Q482 455 519 481T599 507H661Q712 507 742 477Z" />
<glyph unicode="n" glyph-name="n" horiz-adv-x="558" d="M132 499H166L149 402Q187 454 228 480T311 507H377Q433 507 464 474T496 383Q496 365 493 345L432 0H397L458 345Q461 363 461 380Q461 424 439 449T377 475H311Q268 475 220 438T139 340L79 0H44L132 499Z" />
<glyph unicode="o" glyph-name="o" horiz-adv-x="556" d="M130 -8T91 30T51 132Q51 150 54 169L82 330Q96 413 148 460T280 507H355Q424 507 464 469T505 366Q505 350 502 330L474 169Q460 86 407 39T273 -8H197Q130 -8 91 30ZM273 24Q340 24 383 62T439 169L467
330Q470 347 470 362Q470 414 439 444T355 475H280Q215 475 172 437T117 330L89 169Q86 151 86 136Q86 85 116 55T197 24H273Z" />
<glyph unicode="p" glyph-name="p" horiz-adv-x="564" d="M132 499H166L151 411Q182 455 222 481T302 507H376Q440 507 476 471T513 371Q513 353 510 332L484 184Q468 93 418 43T294 -8H220Q179 -8 146 16T94 82L44 -199H9L132 499ZM294 24Q354 24 394 66T449
184L475 332Q478 350 478 367Q478 417 451 446T376 475H302Q257 475 211 436T141 349L106 155Q108 126 122 96T161 45T220 24H294Z" />
<glyph unicode="q" glyph-name="q" horiz-adv-x="564" d="M413 91Q378 43 338 18T256 -8H186Q123 -8 87 29T50 129Q50 140 54 168L81 322Q96 409 147 458T275 507H353Q392 507 424 487T474 427L486 499H520L396 -203H361L413 91ZM254 24Q303 24 351 63T426 161L462
364Q457 413 427 444T353 475H275Q213 475 171 435T116 322L89 168Q86 150 86 133Q86 83 112 54T186 24H254Z" />
<glyph unicode="r" glyph-name="r" horiz-adv-x="341" d="M132 499H166L151 413Q182 455 225 478T316 501H353L347 469H316Q251 469 199 426T135 315L79 0H44L132 499Z" />
<glyph unicode="s" glyph-name="s" horiz-adv-x="506" d="M110 -8T75 24T39 109Q39 122 42 137H76Q74 121 74 113Q74 72 99 48T170 24H255Q310 24 345 46T387 104L395 148Q396 152 396 161Q396 184 382 198T343 217L173 247Q134 254 112 277T90 334Q90 344 91
350L97 385Q108 443 149 475T255 507H340Q395 507 428 478T461 400Q461 383 459 374H425Q426 381 426 393Q426 432 404 453T340 475H255Q204 475 172 452T132 385L126 350Q125 346 125 338Q125 315 140 299T184 279L354 249Q391 242 411 220T432 166Q432 160 430
148L422 104Q412 51 368 22T255 -8H170Q110 -8 75 24Z" />
<glyph unicode="t" glyph-name="t" horiz-adv-x="368" d="M169 0T140 20T110 91Q110 113 114 134L173 467H86L92 499H180L206 650H240L214 499H344L338 467H208L149 134Q146 115 146 99Q146 64 165 48T229 32H261L256 0H228Q169 0 140 20Z" />
<glyph unicode="u" glyph-name="u" horiz-adv-x="556" d="M126 -8T94 24T61 112Q61 128 64 146L126 499H161L99 146Q96 130 96 116Q96 74 118 49T181 24H243Q271 24 306 45T373 101T420 172L477 499H512L424 0H390L408 103Q372 53 327 23T244 -8H181Q126 -8 94 24Z" />
<glyph unicode="v" glyph-name="v" horiz-adv-x="479" d="M184 0T177 6T167 29L72 499H107L199 34H200L456 499H495L216 0H198Q184 0 177 6Z" />
<glyph unicode="w" glyph-name="w" horiz-adv-x="706" d="M137 0T129 9T120 39L88 499H123L154 39H155L380 485H395Q409 485 412 463L474 39H475L667 499H706L513 39Q504 18 493 9T464 0H448L386 426L170 0H154Q137 0 129 9Z" />
<glyph unicode="x" glyph-name="x" horiz-adv-x="471" d="M217 256L83 499H120L240 283L433 499H476L257 256L397 0H360L234 228L29 0H-14L217 256Z" />
<glyph unicode="y" glyph-name="y" horiz-adv-x="558" d="M96 -203T62 -174T32 -96H67Q65 -130 89 -150T155 -171H235Q293 -171 333 -133T386 -26L410 106Q374 58 329 29T247 0H182Q126 0 94 32T62 120Q62 136 65 154L126 499H161L100 154Q97 138 97 124Q97 82
119 57T182 32H245Q288 32 340 73T420 169L479 499H514L421 -26Q406 -109 357 -156T235 -203H155Q96 -203 62 -174Z" />
<glyph unicode="z" glyph-name="z" horiz-adv-x="458" d="M6 12L396 469H99L104 499H454L452 487L62 30H366L361 0H4L6 12Z" />
<glyph unicode="{" glyph-name="braceleft" horiz-adv-x="356" d="M150 -231T120 -203T89 -122Q89 -107 92 -87L129 121Q132 136 132 149Q132 215 67 240L71 264Q159 294 175 383L212 591Q224 659 268 697T378 735H393L387 702H372Q321 702 290 674T248 591L211
383Q195 289 114 252Q168 220 168 154Q168 139 165 121L128 -87Q125 -104 125 -118Q125 -158 147 -178T214 -198H229L223 -231H208Q150 -231 120 -203Z" />
<glyph unicode="|" glyph-name="bar" horiz-adv-x="232" d="M203 847H239L64 -147H28L203 847Z" />
<glyph unicode="}" glyph-name="braceright" horiz-adv-x="356" d="M-30 -198H-15Q36 -198 67 -170T109 -87L146 121Q164 214 243 252Q189 283 189 350Q189 365 192 383L229 591Q232 608 232 622Q232 702 144 702H129L134 735H149Q207 735 237 707T268 626Q268
611 265 591L228 383Q226 373 226 355Q226 289 290 264L286 240Q198 210 182 121L145 -87Q133 -155 89 -193T-21 -231H-36L-30 -198Z" />
<glyph unicode="~" glyph-name="asciitilde" horiz-adv-x="586" d="M354 247T335 264T295 313Q276 341 261 355T222 369H196Q165 369 140 339T105 260H70Q83 324 117 363T196 402H222Q258 402 279 384T321 333Q339 306 353 293T388 280H414Q446 280 472 310T508
391H543Q530 326 495 287T414 247H388Q354 247 335 264Z" />
<glyph unicode="&#xa0;" glyph-name="uni00A0" horiz-adv-x="246" />
<glyph unicode="&#xa1;" glyph-name="exclamdown" horiz-adv-x="260" d="M190 507T198 500T206 479Q206 459 194 447T163 435Q149 435 141 442T133 463Q133 483 145 495T176 507Q190 507 198 500ZM68 -203H32L130 349H166L68 -203Z" />
<glyph unicode="&#xa2;" glyph-name="cent" horiz-adv-x="522" d="M415 507T452 477T489 397Q489 389 487 373H453Q455 387 455 392Q455 430 428 452T352 475H270Q211 475 171 436T117 327L88 162Q85 146 85 130Q85 81 113 53T192 24H274Q331 24 368 59T418 157H452Q437
79 391 36T274 -8H245L229 -100H194L210 -8H192Q126 -8 88 28T50 126Q50 143 53 162L82 327Q97 412 146 459T270 507H301L317 597H352L336 507H352Q415 507 452 477Z" />
<glyph unicode="&#xa3;" glyph-name="sterling" horiz-adv-x="639" d="M555 700T593 657T626 542H591Q595 598 567 632T488 667H402Q338 667 296 624T239 502L209 331H424L419 298H203L156 33H541L535 0H24L30 33H120L167 298H87L92 331H173L203 502Q220 595 272
647T402 700H488Q555 700 593 657Z" />
<glyph unicode="&#xa4;" glyph-name="currency" horiz-adv-x="664" d="M43 101L122 168Q87 217 87 288Q87 349 112 408T182 511L126 578L153 602L211 534Q289 589 390 589Q493 589 553 532L634 602L654 579L572 510Q589 487 597 456T606 390Q606 327 581 269T512
169L569 101L543 78L485 148Q448 120 401 105T302 90Q200 90 142 146L61 78L43 101ZM385 124T444 158T537 252T571 390Q571 469 522 512T384 555Q308 555 249 521T156 427T122 288Q122 210 170 167T308 124Q385 124 444 158Z" />
<glyph unicode="&#xa5;" glyph-name="yen" horiz-adv-x="606" d="M349 300H520L514 268H325L324 267L304 156H495L489 124H299L277 0H241L263 124H73L79 156H268L288 267V268H98L104 300H274L107 700H144L309 300L616 700H657L349 300Z" />
<glyph unicode="&#xa6;" glyph-name="brokenbar" horiz-adv-x="232" d="M203 847H239L167 435H131L203 847ZM101 265H137L64 -147H28L101 265Z" />
<glyph unicode="&#xa7;" glyph-name="section" horiz-adv-x="546" d="M477 585Q478 591 478 603Q478 642 456 664T391 686H307Q256 686 224 665T186 604L180 569Q179 565 179 558Q179 535 194 518T237 494L404 451Q497 427 497 365Q497 360 495 348L487 304Q482
273 453 248T380 211Q407 198 421 178T435 132Q435 121 434 116L428 81Q419 27 378 -3T271 -33H187Q131 -33 99 -5T66 73Q66 91 68 100H102Q100 86 100 79Q100 41 122 20T187 -1H271Q322 -1 354 20T393 81L399 116Q400 120 400 127Q400 150 385 167T341 191L160
238Q82 258 82 320Q82 325 84 339L92 383Q98 415 126 439T198 474Q172 487 158 507T144 553Q144 564 145 569L151 604Q161 658 202 688T307 718H391Q448 718 480 689T513 611Q513 594 511 585H477ZM243 458Q193 451 163 432T127 383L119 339Q118 333 118 323Q118
302 131 289T171 269L335 227Q385 234 416 254T452 304L460 348Q461 352 461 360Q461 383 444 397T394 420L243 458Z" />
<glyph unicode="&#xa8;" glyph-name="dieresis" horiz-adv-x="364" d="M142 589T135 596T127 615Q127 633 138 644T166 655Q179 655 186 648T194 629Q194 611 183 600T155 589Q142 589 135 596ZM316 589T309 596T301 615Q301 633 312 644T340 655Q353 655 360
648T368 629Q368 611 357 600T329 589Q316 589 309 596Z" />
<glyph unicode="&#xa9;" glyph-name="copyright" horiz-adv-x="746" d="M261 35T202 65T111 152T79 281Q79 394 124 481T251 615T440 663Q518 663 577 632T668 545T701 416Q701 302 657 216T530 83T340 35Q261 35 202 65ZM437 65T511 108T626 230T667 412Q667
478 639 528T559 605T439 633Q342 633 268 590T154 468T113 286Q113 184 175 125T340 65Q437 65 511 108ZM284 152T258 179T231 254Q231 270 234 286L256 412Q267 475 303 510T391 546H449Q494 546 520 522T547 457Q547 449 545 433H513Q515 447 515 452Q515 481
498 498T449 516H391Q351 516 325 489T289 412L267 286Q264 271 264 258Q264 223 281 203T329 182H389Q427 182 452 206T486 274H518Q508 216 474 184T389 152H329Q284 152 258 179Z" />
<glyph unicode="&#xaa;" glyph-name="ordfeminine" horiz-adv-x="419" d="M151 343T126 363T100 417Q100 427 101 432L106 463Q113 504 145 529T223 554H271Q295 554 320 547T358 528L370 599Q372 611 372 617Q372 644 357 660T314 676H260Q225 676 203 662T177
621H144Q151 661 182 683T260 706H314Q356 706 380 683T405 621Q405 615 403 599L359 349H327L337 403Q314 375 288 359T239 343H194Q151 343 126 363ZM239 373Q265 373 292 393T344 449L352 494Q341 507 319 515T270 524H222Q189 524 166 508T139 463L134 432Q133
428 133 422Q133 399 149 386T195 373H239Z" />
<glyph unicode="&#xab;" glyph-name="guillemotleft" horiz-adv-x="520" d="M51 268L313 512L304 459L96 264L235 69L227 24L51 268ZM236 268L498 512L489 459L281 264L420 69L412 24L236 268Z" />
<glyph unicode="&#xac;" glyph-name="logicalnot" horiz-adv-x="657" d="M576 379H91L97 412H618L576 174H540L576 379Z" />
<glyph unicode="&#xad;" glyph-name="uni00AD" horiz-adv-x="401" d="M72 271H337L331 239H66L72 271Z" />
<glyph unicode="&#xae;" glyph-name="registered" horiz-adv-x="746" d="M261 35T202 65T111 152T79 281Q79 394 124 481T251 615T440 663Q518 663 577 632T668 545T701 416Q701 302 657 216T530 83T340 35Q261 35 202 65ZM437 65T511 108T626 230T667 412Q667
478 639 528T559 605T439 633Q342 633 268 590T154 468T113 286Q113 184 175 125T340 65Q437 65 511 108ZM301 542H467Q504 542 526 524T548 476Q548 467 547 462L540 419Q535 389 513 368T458 338V337Q487 318 493 267L505 156H472L460 267Q454 327 401 327H296L266
156H233L301 542ZM418 357Q454 357 478 373T507 419L514 462Q515 465 515 471Q515 490 502 501T467 512H329L302 357H418Z" />
<glyph unicode="&#xaf;" glyph-name="overscore" horiz-adv-x="342" d="M129 629H347L342 599H124L129 629Z" />
<glyph unicode="&#xb0;" glyph-name="degree" horiz-adv-x="390" d="M185 458T156 486T126 559Q126 627 166 667T273 708Q323 708 352 680T382 607Q382 539 342 499T233 458Q185 458 156 486ZM288 488T318 519T349 603Q349 637 328 657T270 678Q219 678 189 646T159
562Q159 528 180 508T237 488Q288 488 318 519Z" />
<glyph unicode="&#xb1;" glyph-name="plusminus" horiz-adv-x="566" d="M275 307H78L84 340H281L316 539H352L317 340H514L508 307H311L276 108H240L275 307ZM30 33H460L454 0H24L30 33Z" />
<glyph unicode="&#xb2;" glyph-name="uni00B2" horiz-adv-x="375" d="M76 321Q83 355 95 377T131 417L299 542Q314 554 324 570T338 602L342 622Q343 626 343 632Q343 652 329 663T290 675H235Q204 675 182 654T154 599H122Q130 647 161 676T235 705H290Q330 705
353 687T377 639Q377 634 375 622L371 602Q366 579 354 558T322 523L160 403Q136 385 125 367T108 319H327L322 289H70L76 321Z" />
<glyph unicode="&#xb3;" glyph-name="uni00B3" horiz-adv-x="388" d="M337 705T360 685T384 629Q384 624 382 610L378 587Q372 557 355 534T312 499Q331 491 343 472T356 428Q356 422 354 410L350 387Q342 338 310 311T231 284H174Q132 284 107 307T81 370Q81
377 83 393H115Q113 381 113 376Q113 348 129 331T174 314H231Q266 314 288 333T317 387L321 410Q322 415 322 425Q322 453 305 469T259 485H205L211 515H265Q296 515 318 535T345 587L349 610Q350 615 350 624Q350 647 336 661T296 675H239Q205 675 183 654T154
596H122Q131 648 161 676T239 705H296Q337 705 360 685Z" />
<glyph unicode="&#xb4;" glyph-name="acute" horiz-adv-x="250" d="M228 725H273L159 589H121L228 725Z" />
<glyph unicode="&#xb6;" glyph-name="paragraph" horiz-adv-x="564" d="M545 700L422 0H386L453 379H335L268 0H232L299 379H236Q183 379 152 407T121 483Q121 497 124 512L134 567Q146 630 187 665T292 700H545Z" />
<glyph unicode="&#xb7;" glyph-name="middot" horiz-adv-x="208" d="M84 219T76 226T68 247Q68 267 80 279T111 291Q125 291 133 284T142 263Q142 244 130 232T98 219Q84 219 76 226Z" />
<glyph unicode="&#xb8;" glyph-name="cedilla" horiz-adv-x="254" d="M-12 -168H28Q55 -168 72 -158T93 -131L95 -121Q96 -118 96 -113Q96 -98 85 -90T53 -82H13L19 -52L55 10H87L51 -52H54Q88 -52 108 -67T128 -108Q128 -116 127 -121L125 -131Q119 -163 94 -180T28
-198H-17L-12 -168Z" />
<glyph unicode="&#xb9;" glyph-name="uni00B9" horiz-adv-x="245" d="M211 666L107 616L113 649L216 700H250L177 289H144L211 666Z" />
<glyph unicode="&#xba;" glyph-name="ordmasculine" horiz-adv-x="432" d="M161 343T133 369T105 441Q105 459 107 468L127 581Q137 640 173 673T265 706H318Q367 706 395 679T424 607Q424 590 422 581L402 468Q392 409 356 376T265 343H210Q161 343 133 369ZM265
373Q306 373 333 398T369 468L389 581Q391 597 391 603Q391 637 372 656T318 676H265Q223 676 195 651T160 581L140 468Q138 452 138 446Q138 412 157 393T210 373H265Z" />
<glyph unicode="&#xbb;" glyph-name="guillemotright" horiz-adv-x="520" d="M38 77L245 272L106 467L114 512L290 268L28 24L38 77ZM223 77L430 272L291 467L299 512L475 268L213 24L223 77Z" />
<glyph unicode="&#xbc;" glyph-name="onequarter" horiz-adv-x="748" d="M237 666L133 616L139 649L242 700H276L203 289H170L237 666ZM607 722H643L129 -25H93L607 722ZM566 89H384Q368 89 371 104L375 125L627 411H656L605 119H657L651 89H599L584 0H551L566
89ZM574 118L617 359H616L404 118H574Z" />
<glyph unicode="&#xbd;" glyph-name="onehalf" horiz-adv-x="803" d="M237 666L133 616L139 649L242 700H276L203 289H170L237 666ZM445 32Q452 66 464 88T500 128L668 253Q683 265 693 281T707 313L711 333Q712 337 712 343Q712 363 698 374T659 386H604Q573
386 551 365T523 310H491Q499 358 530 387T604 416H659Q699 416 722 398T746 350Q746 345 744 333L740 313Q735 290 723 269T691 234L529 114Q505 96 494 78T477 30H696L691 0H439L445 32ZM607 722H643L129 -25H93L607 722Z" />
<glyph unicode="&#xbe;" glyph-name="threequarters" horiz-adv-x="841" d="M347 705T370 685T394 629Q394 624 392 610L388 587Q382 557 365 534T322 499Q341 491 353 472T366 428Q366 422 364 410L360 387Q352 338 320 311T241 284H184Q142 284 117 307T91 370Q91
377 93 393H125Q123 381 123 376Q123 348 139 331T184 314H241Q276 314 298 333T327 387L331 410Q332 415 332 425Q332 453 315 469T269 485H215L221 515H275Q306 515 328 535T355 587L359 610Q360 615 360 624Q360 647 346 661T306 675H249Q215 675 193 654T164
596H132Q141 648 171 676T249 705H306Q347 705 370 685ZM659 89H477Q461 89 464 104L468 125L720 411H749L698 119H750L744 89H692L677 0H644L659 89ZM667 118L710 359H709L497 118H667ZM716 722H752L238 -25H202L716 722Z" />
<glyph unicode="&#xbf;" glyph-name="questiondown" horiz-adv-x="551" d="M338 507T346 500T354 479Q354 459 342 447T311 435Q297 435 289 442T281 463Q281 483 293 495T324 507Q338 507 346 500ZM303 283Q294 229 261 194T168 117Q116 80 91 55T59 -7L50 -60Q48
-76 48 -82Q48 -126 78 -152T161 -178H247Q314 -178 356 -146T410 -55H446Q433 -128 380 -169T247 -211H161Q92 -211 52 -178T12 -88Q12 -70 14 -60L23 -7Q31 40 60 70T144 139Q199 177 228 208T267 287L276 336H312L303 283Z" />
<glyph unicode="&#xc0;" glyph-name="Agrave" horiz-adv-x="629" d="M473 213H148L30 0H-10L378 700H395Q411 700 415 678L551 0H515L473 213ZM166 246H466L388 648H387L166 246ZM342 926H383L442 790H408L342 926Z" />
<glyph unicode="&#xc1;" glyph-name="Aacute" horiz-adv-x="629" d="M473 213H148L30 0H-10L378 700H395Q411 700 415 678L551 0H515L473 213ZM166 246H466L388 648H387L166 246ZM492 926H537L423 790H385L492 926Z" />
<glyph unicode="&#xc2;" glyph-name="Acircumflex" horiz-adv-x="629" d="M473 213H148L30 0H-10L378 700H395Q411 700 415 678L551 0H515L473 213ZM166 246H466L388 648H387L166 246ZM417 932H452L536 790H500L432 906L324 790H284L417 932Z" />
<glyph unicode="&#xc3;" glyph-name="Atilde" horiz-adv-x="629" d="M473 213H148L30 0H-10L378 700H395Q411 700 415 678L551 0H515L473 213ZM166 246H466L388 648H387L166 246ZM450 783T437 791T407 817Q394 831 385 837T361 844H348Q331 844 319 832T301 798H268Q276
834 297 854T350 874H363Q386 874 400 865T429 840Q442 826 451 820T474 813H487Q503 813 515 825T532 859H565Q558 823 537 803T485 783H472Q450 783 437 791Z" />
<glyph unicode="&#xc4;" glyph-name="Adieresis" horiz-adv-x="629" d="M473 213H148L30 0H-10L378 700H395Q411 700 415 678L551 0H515L473 213ZM166 246H466L388 648H387L166 246ZM310 790T303 797T295 816Q295 834 306 845T334 856Q347 856 354 849T362 830Q362
812 351 801T323 790Q310 790 303 797ZM484 790T477 797T469 816Q469 834 480 845T508 856Q521 856 528 849T536 830Q536 812 525 801T497 790Q484 790 477 797Z" />
<glyph unicode="&#xc5;" glyph-name="Aring" horiz-adv-x="629" d="M473 213H148L30 0H-10L378 700H395Q411 700 415 678L551 0H515L473 213ZM166 246H466L388 648H387L166 246ZM374 784T352 805T329 861Q329 910 359 940T440 970Q477 970 500 949T523 893Q523
844 492 814T411 784Q374 784 352 805ZM449 813T470 834T491 890Q491 913 476 927T437 941Q403 941 382 920T361 864Q361 841 376 827T415 813Q449 813 470 834Z" />
<glyph unicode="&#xc6;" glyph-name="AE" horiz-adv-x="911" d="M487 700H928L923 667H537L485 374H831L825 341H479L425 33H811L805 0H419Q389 0 389 29Q389 35 390 39L420 211H171L17 0H-24L487 700ZM426 244L500 662H499L195 244H426Z" />
<glyph unicode="&#xc7;" glyph-name="Ccedilla" horiz-adv-x="646" d="M544 708T591 664T639 546Q639 523 635 503H600Q603 523 603 541Q603 603 566 639T464 675H357Q275 675 220 620T146 465L105 235Q100 211 100 180Q100 108 137 67T238 25H347Q427 25 481
75T551 213H586Q568 109 505 51T347 -8H305L279 -52H282Q316 -52 336 -67T356 -108Q356 -116 355 -121L353 -131Q347 -163 322 -180T256 -198H211L216 -168H256Q283 -168 300 -158T321 -131L323 -121Q324 -118 324 -113Q324 -98 313 -90T281 -82H241L247 -52L273
-8H238Q157 -8 111 41T64 176Q64 209 69 235L110 465Q130 580 195 644T357 708H464Q544 708 591 664Z" />
<glyph unicode="&#xc8;" glyph-name="Egrave" horiz-adv-x="586" d="M54 0T54 29Q54 35 55 39L172 700H603L597 667H202L150 374H515L509 341H144L90 33H485L479 0H84Q54 0 54 29ZM337 926H378L437 790H403L337 926Z" />
<glyph unicode="&#xc9;" glyph-name="Eacute" horiz-adv-x="586" d="M54 0T54 29Q54 35 55 39L172 700H603L597 667H202L150 374H515L509 341H144L90 33H485L479 0H84Q54 0 54 29ZM487 926H532L418 790H380L487 926Z" />
<glyph unicode="&#xca;" glyph-name="Ecircumflex" horiz-adv-x="586" d="M54 0T54 29Q54 35 55 39L172 700H603L597 667H202L150 374H515L509 341H144L90 33H485L479 0H84Q54 0 54 29ZM412 932H447L531 790H495L427 906L319 790H279L412 932Z" />
<glyph unicode="&#xcb;" glyph-name="Edieresis" horiz-adv-x="586" d="M54 0T54 29Q54 35 55 39L172 700H603L597 667H202L150 374H515L509 341H144L90 33H485L479 0H84Q54 0 54 29ZM305 790T298 797T290 816Q290 834 301 845T329 856Q342 856 349 849T357 830Q357
812 346 801T318 790Q305 790 298 797ZM479 790T472 797T464 816Q464 834 475 845T503 856Q516 856 523 849T531 830Q531 812 520 801T492 790Q479 790 472 797Z" />
<glyph unicode="&#xcc;" glyph-name="Igrave" horiz-adv-x="228" d="M175 700H211L88 0H52L175 700ZM141 926H182L241 790H207L141 926Z" />
<glyph unicode="&#xcd;" glyph-name="Iacute" horiz-adv-x="228" d="M175 700H211L88 0H52L175 700ZM291 926H336L222 790H184L291 926Z" />
<glyph unicode="&#xce;" glyph-name="Icircumflex" horiz-adv-x="228" d="M175 700H211L88 0H52L175 700ZM216 932H251L335 790H299L231 906L123 790H83L216 932Z" />
<glyph unicode="&#xcf;" glyph-name="Idieresis" horiz-adv-x="228" d="M175 700H211L88 0H52L175 700ZM109 790T102 797T94 816Q94 834 105 845T133 856Q146 856 153 849T161 830Q161 812 150 801T122 790Q109 790 102 797ZM283 790T276 797T268 816Q268 834
279 845T307 856Q320 856 327 849T335 830Q335 812 324 801T296 790Q283 790 276 797Z" />
<glyph unicode="&#xd0;" glyph-name="Eth" horiz-adv-x="716" d="M582 700T637 653T693 524Q693 501 689 481L646 239Q625 121 557 61T377 0H140Q125 0 117 7T109 27Q109 33 110 36L162 330H52L58 362H167L227 700H486Q582 700 637 653ZM656 501T656 519Q656 587
610 627T485 667H257L203 362H431L425 330H197L145 33H377Q474 33 533 85T610 239L653 481Q656 501 656 519Z" />
<glyph unicode="&#xd1;" glyph-name="Ntilde" horiz-adv-x="676" d="M171 700H205L515 57L628 700H663L540 0H506L195 643L82 0H48L171 700ZM473 783T460 791T430 817Q417 831 408 837T384 844H371Q354 844 342 832T324 798H291Q299 834 320 854T373 874H386Q409
874 423 865T452 840Q465 826 474 820T497 813H510Q526 813 538 825T555 859H588Q581 823 560 803T508 783H495Q473 783 460 791Z" />
<glyph unicode="&#xd2;" glyph-name="Ograve" horiz-adv-x="682" d="M163 -8T113 41T63 175Q63 197 68 229L111 471Q130 583 197 645T365 708H467Q554 708 604 658T654 524Q654 503 649 471L606 229Q587 117 520 55T351 -8H249Q163 -8 113 41ZM351 25Q437 25 495
79T570 229L613 471Q618 499 618 520Q618 591 578 633T467 675H365Q280 675 222 621T147 471L104 229Q99 201 99 180Q99 108 139 67T249 25H351ZM368 926H409L468 790H434L368 926Z" />
<glyph unicode="&#xd3;" glyph-name="Oacute" horiz-adv-x="682" d="M163 -8T113 41T63 175Q63 197 68 229L111 471Q130 583 197 645T365 708H467Q554 708 604 658T654 524Q654 503 649 471L606 229Q587 117 520 55T351 -8H249Q163 -8 113 41ZM351 25Q437 25 495
79T570 229L613 471Q618 499 618 520Q618 591 578 633T467 675H365Q280 675 222 621T147 471L104 229Q99 201 99 180Q99 108 139 67T249 25H351ZM518 926H563L449 790H411L518 926Z" />
<glyph unicode="&#xd4;" glyph-name="Ocircumflex" horiz-adv-x="682" d="M163 -8T113 41T63 175Q63 197 68 229L111 471Q130 583 197 645T365 708H467Q554 708 604 658T654 524Q654 503 649 471L606 229Q587 117 520 55T351 -8H249Q163 -8 113 41ZM351 25Q437
25 495 79T570 229L613 471Q618 499 618 520Q618 591 578 633T467 675H365Q280 675 222 621T147 471L104 229Q99 201 99 180Q99 108 139 67T249 25H351ZM443 932H478L562 790H526L458 906L350 790H310L443 932Z" />
<glyph unicode="&#xd5;" glyph-name="Otilde" horiz-adv-x="682" d="M163 -8T113 41T63 175Q63 197 68 229L111 471Q130 583 197 645T365 708H467Q554 708 604 658T654 524Q654 503 649 471L606 229Q587 117 520 55T351 -8H249Q163 -8 113 41ZM351 25Q437 25 495
79T570 229L613 471Q618 499 618 520Q618 591 578 633T467 675H365Q280 675 222 621T147 471L104 229Q99 201 99 180Q99 108 139 67T249 25H351ZM476 783T463 791T433 817Q420 831 411 837T387 844H374Q357 844 345 832T327 798H294Q302 834 323 854T376 874H389Q412
874 426 865T455 840Q468 826 477 820T500 813H513Q529 813 541 825T558 859H591Q584 823 563 803T511 783H498Q476 783 463 791Z" />
<glyph unicode="&#xd6;" glyph-name="Odieresis" horiz-adv-x="682" d="M163 -8T113 41T63 175Q63 197 68 229L111 471Q130 583 197 645T365 708H467Q554 708 604 658T654 524Q654 503 649 471L606 229Q587 117 520 55T351 -8H249Q163 -8 113 41ZM351 25Q437 25
495 79T570 229L613 471Q618 499 618 520Q618 591 578 633T467 675H365Q280 675 222 621T147 471L104 229Q99 201 99 180Q99 108 139 67T249 25H351ZM336 790T329 797T321 816Q321 834 332 845T360 856Q373 856 380 849T388 830Q388 812 377 801T349 790Q336 790
329 797ZM510 790T503 797T495 816Q495 834 506 845T534 856Q547 856 554 849T562 830Q562 812 551 801T523 790Q510 790 503 797Z" />
<glyph unicode="&#xd7;" glyph-name="multiply" horiz-adv-x="526" d="M50 144L251 315L110 487L138 511L278 339L480 511L498 487L298 315L439 144L412 120L270 292L69 120L50 144Z" />
<glyph unicode="&#xd8;" glyph-name="Oslash" horiz-adv-x="682" d="M622 637Q654 591 654 525Q654 503 649 471L606 229Q587 117 520 55T351 -8H249Q167 -8 117 37L55 -37H14L96 61Q63 108 63 176Q63 197 68 229L111 471Q130 583 197 645T365 708H467Q551 708
601 661L659 729H700L622 637ZM99 201T99 180Q99 129 121 91L578 633Q538 675 467 675H365Q280 675 222 621T147 471L104 229Q99 201 99 180ZM618 499T618 520Q618 571 597 607L141 65Q181 25 249 25H351Q437 25 495 79T570 229L613 471Q618 499 618 520Z" />
<glyph unicode="&#xd9;" glyph-name="Ugrave" horiz-adv-x="678" d="M167 -8T122 37T76 158Q76 183 80 204L167 700H203L116 204Q112 184 112 161Q112 98 147 62T244 25H354Q430 25 480 72T546 204L633 700H669L582 204Q565 104 505 48T354 -8H244Q167 -8 122
37ZM366 926H407L466 790H432L366 926Z" />
<glyph unicode="&#xda;" glyph-name="Uacute" horiz-adv-x="678" d="M167 -8T122 37T76 158Q76 183 80 204L167 700H203L116 204Q112 184 112 161Q112 98 147 62T244 25H354Q430 25 480 72T546 204L633 700H669L582 204Q565 104 505 48T354 -8H244Q167 -8 122
37ZM516 926H561L447 790H409L516 926Z" />
<glyph unicode="&#xdb;" glyph-name="Ucircumflex" horiz-adv-x="678" d="M167 -8T122 37T76 158Q76 183 80 204L167 700H203L116 204Q112 184 112 161Q112 98 147 62T244 25H354Q430 25 480 72T546 204L633 700H669L582 204Q565 104 505 48T354 -8H244Q167 -8
122 37ZM441 932H476L560 790H524L456 906L348 790H308L441 932Z" />
<glyph unicode="&#xdc;" glyph-name="Udieresis" horiz-adv-x="678" d="M167 -8T122 37T76 158Q76 183 80 204L167 700H203L116 204Q112 184 112 161Q112 98 147 62T244 25H354Q430 25 480 72T546 204L633 700H669L582 204Q565 104 505 48T354 -8H244Q167 -8 122
37ZM334 790T327 797T319 816Q319 834 330 845T358 856Q371 856 378 849T386 830Q386 812 375 801T347 790Q334 790 327 797ZM508 790T501 797T493 816Q493 834 504 845T532 856Q545 856 552 849T560 830Q560 812 549 801T521 790Q508 790 501 797Z" />
<glyph unicode="&#xdd;" glyph-name="Yacute" horiz-adv-x="606" d="M288 267L107 700H144L309 300L616 700H657L324 267L277 0H241L288 267ZM480 926H525L411 790H373L480 926Z" />
<glyph unicode="&#xde;" glyph-name="Thorn" horiz-adv-x="624" d="M524 561T561 531T599 450Q599 433 597 424L576 305Q563 234 514 194T390 154H111L84 0H48L141 527L171 700H207L183 561H460Q524 561 561 531ZM563 438T563 444Q563 482 536 505T460 528H177V527L117
187H390Q451 187 490 218T540 305L561 424Q563 438 563 444Z" />
<glyph unicode="&#xdf;" glyph-name="germandbls" horiz-adv-x="659" d="M322 -8T290 19T258 92Q258 108 260 117H295Q293 103 293 96Q293 62 315 43T378 24H429Q479 24 512 49T553 119L558 149Q559 154 559 164Q559 194 541 216T487 267Q451 296 433 318T415
371Q415 377 417 389L421 410Q432 468 467 497T567 525Q570 542 570 557Q570 609 538 640T451 671H378Q304 671 255 632T193 524L101 0H66L143 437H57L63 469H149L159 524Q175 609 232 656T378 703H451Q519 703 561 663T604 560Q604 543 601 525L595 493H553Q512
493 488 473T456 410L452 389Q451 384 451 376Q451 351 466 333T515 289Q554 259 574 233T595 170Q595 163 593 149L588 119Q578 59 536 26T429 -8H378Q322 -8 290 19Z" />
<glyph unicode="&#xe0;" glyph-name="agrave" horiz-adv-x="540" d="M116 -8T81 20T45 97Q45 104 47 120L55 166Q65 226 109 258T221 291H288Q324 291 362 278T422 244L442 356Q445 371 445 384Q445 426 420 450T351 475H275Q220 475 185 452T143 387H108Q119
443 163 475T275 507H351Q411 507 445 475T480 388Q480 373 477 356L414 0H380L395 85Q357 41 317 17T239 -8H177Q116 -8 81 20ZM240 24Q277 24 321 55T403 136L415 207Q396 230 361 244T288 259H221Q167 259 133 235T90 165L82 120Q80 108 80 102Q80 66 106 45T177
24H240ZM266 725H307L366 589H332L266 725Z" />
<glyph unicode="&#xe1;" glyph-name="aacute" horiz-adv-x="540" d="M116 -8T81 20T45 97Q45 104 47 120L55 166Q65 226 109 258T221 291H288Q324 291 362 278T422 244L442 356Q445 371 445 384Q445 426 420 450T351 475H275Q220 475 185 452T143 387H108Q119
443 163 475T275 507H351Q411 507 445 475T480 388Q480 373 477 356L414 0H380L395 85Q357 41 317 17T239 -8H177Q116 -8 81 20ZM240 24Q277 24 321 55T403 136L415 207Q396 230 361 244T288 259H221Q167 259 133 235T90 165L82 120Q80 108 80 102Q80 66 106 45T177
24H240ZM416 725H461L347 589H309L416 725Z" />
<glyph unicode="&#xe2;" glyph-name="acircumflex" horiz-adv-x="540" d="M116 -8T81 20T45 97Q45 104 47 120L55 166Q65 226 109 258T221 291H288Q324 291 362 278T422 244L442 356Q445 371 445 384Q445 426 420 450T351 475H275Q220 475 185 452T143 387H108Q119
443 163 475T275 507H351Q411 507 445 475T480 388Q480 373 477 356L414 0H380L395 85Q357 41 317 17T239 -8H177Q116 -8 81 20ZM240 24Q277 24 321 55T403 136L415 207Q396 230 361 244T288 259H221Q167 259 133 235T90 165L82 120Q80 108 80 102Q80 66 106 45T177
24H240ZM341 731H376L460 589H424L356 705L248 589H208L341 731Z" />
<glyph unicode="&#xe3;" glyph-name="atilde" horiz-adv-x="540" d="M116 -8T81 20T45 97Q45 104 47 120L55 166Q65 226 109 258T221 291H288Q324 291 362 278T422 244L442 356Q445 371 445 384Q445 426 420 450T351 475H275Q220 475 185 452T143 387H108Q119
443 163 475T275 507H351Q411 507 445 475T480 388Q480 373 477 356L414 0H380L395 85Q357 41 317 17T239 -8H177Q116 -8 81 20ZM240 24Q277 24 321 55T403 136L415 207Q396 230 361 244T288 259H221Q167 259 133 235T90 165L82 120Q80 108 80 102Q80 66 106 45T177
24H240ZM374 582T361 590T331 616Q318 630 309 636T285 643H272Q255 643 243 631T225 597H192Q200 633 221 653T274 673H287Q310 673 324 664T353 639Q366 625 375 619T398 612H411Q427 612 439 624T456 658H489Q482 622 461 602T409 582H396Q374 582 361 590Z"
/>
<glyph unicode="&#xe4;" glyph-name="adieresis" horiz-adv-x="540" d="M116 -8T81 20T45 97Q45 104 47 120L55 166Q65 226 109 258T221 291H288Q324 291 362 278T422 244L442 356Q445 371 445 384Q445 426 420 450T351 475H275Q220 475 185 452T143 387H108Q119
443 163 475T275 507H351Q411 507 445 475T480 388Q480 373 477 356L414 0H380L395 85Q357 41 317 17T239 -8H177Q116 -8 81 20ZM240 24Q277 24 321 55T403 136L415 207Q396 230 361 244T288 259H221Q167 259 133 235T90 165L82 120Q80 108 80 102Q80 66 106 45T177
24H240ZM234 589T227 596T219 615Q219 633 230 644T258 655Q271 655 278 648T286 629Q286 611 275 600T247 589Q234 589 227 596ZM408 589T401 596T393 615Q393 633 404 644T432 655Q445 655 452 648T460 629Q460 611 449 600T421 589Q408 589 401 596Z" />
<glyph unicode="&#xe5;" glyph-name="aring" horiz-adv-x="540" d="M116 -8T81 20T45 97Q45 104 47 120L55 166Q65 226 109 258T221 291H288Q324 291 362 278T422 244L442 356Q445 371 445 384Q445 426 420 450T351 475H275Q220 475 185 452T143 387H108Q119 443
163 475T275 507H351Q411 507 445 475T480 388Q480 373 477 356L414 0H380L395 85Q357 41 317 17T239 -8H177Q116 -8 81 20ZM240 24Q277 24 321 55T403 136L415 207Q396 230 361 244T288 259H221Q167 259 133 235T90 165L82 120Q80 108 80 102Q80 66 106 45T177
24H240ZM298 583T276 604T253 660Q253 709 283 739T364 769Q401 769 424 748T447 692Q447 643 416 613T335 583Q298 583 276 604ZM373 612T394 633T415 689Q415 712 400 726T361 740Q327 740 306 719T285 663Q285 640 300 626T339 612Q373 612 394 633Z" />
<glyph unicode="&#xe6;" glyph-name="ae" horiz-adv-x="887" d="M116 -8T81 20T45 96Q45 112 47 120L55 164Q66 221 112 256T226 291H293Q328 291 364 279T422 246L442 356Q445 371 445 384Q445 426 420 450T351 475H275Q222 475 186 451T143 387H108Q118 441
164 474T275 507H351Q398 507 432 485T475 424H476Q502 462 542 484T628 507H704Q768 507 805 470T842 370Q842 352 839 331L825 250H458L442 161Q439 145 439 130Q439 81 468 53T549 24H619Q677 24 718 59T770 151H805Q793 80 742 36T618 -8H548Q494 -8 456 20T409
95H408Q372 49 326 21T239 -8H176Q116 -8 81 20ZM795 281L804 331Q807 351 807 367Q807 417 780 446T704 475H628Q569 475 526 435T471 327L463 281H795ZM239 24Q281 24 326 57T404 143L415 207Q396 230 361 244T288 259H221Q170 259 134 233T90 164L82 120Q80
108 80 102Q80 66 106 45T177 24H239Z" />
<glyph unicode="&#xe7;" glyph-name="ccedilla" horiz-adv-x="522" d="M415 507T452 477T489 397Q489 389 487 373H453Q455 387 455 392Q455 430 428 452T352 475H270Q211 475 171 436T117 327L88 162Q85 146 85 130Q85 81 113 53T192 24H274Q331 24 368 59T418
157H452Q437 79 391 36T274 -8H236L210 -52H213Q247 -52 267 -67T287 -108Q287 -116 286 -121L284 -131Q278 -163 253 -180T187 -198H142L147 -168H187Q214 -168 231 -158T252 -131L254 -121Q255 -118 255 -113Q255 -98 244 -90T212 -82H172L178 -52L204 -8H192Q126
-8 88 28T50 126Q50 143 53 162L82 327Q97 412 146 459T270 507H352Q415 507 452 477Z" />
<glyph unicode="&#xe8;" glyph-name="egrave" horiz-adv-x="538" d="M128 -8T89 29T50 127Q50 143 53 161L82 327Q97 412 147 459T273 507H354Q419 507 456 470T493 370Q493 352 490 331L476 250H104L88 161Q85 146 85 131Q85 81 114 53T195 24H271Q331 24 370
57T421 151H456Q442 75 394 34T271 -8H195Q128 -8 89 29ZM446 281L455 331Q458 349 458 365Q458 416 430 445T354 475H273Q212 475 171 436T117 327L109 281H446ZM261 725H302L361 589H327L261 725Z" />
<glyph unicode="&#xe9;" glyph-name="eacute" horiz-adv-x="538" d="M128 -8T89 29T50 127Q50 143 53 161L82 327Q97 412 147 459T273 507H354Q419 507 456 470T493 370Q493 352 490 331L476 250H104L88 161Q85 146 85 131Q85 81 114 53T195 24H271Q331 24 370
57T421 151H456Q442 75 394 34T271 -8H195Q128 -8 89 29ZM446 281L455 331Q458 349 458 365Q458 416 430 445T354 475H273Q212 475 171 436T117 327L109 281H446ZM411 725H456L342 589H304L411 725Z" />
<glyph unicode="&#xea;" glyph-name="ecircumflex" horiz-adv-x="538" d="M128 -8T89 29T50 127Q50 143 53 161L82 327Q97 412 147 459T273 507H354Q419 507 456 470T493 370Q493 352 490 331L476 250H104L88 161Q85 146 85 131Q85 81 114 53T195 24H271Q331 24
370 57T421 151H456Q442 75 394 34T271 -8H195Q128 -8 89 29ZM446 281L455 331Q458 349 458 365Q458 416 430 445T354 475H273Q212 475 171 436T117 327L109 281H446ZM336 731H371L455 589H419L351 705L243 589H203L336 731Z" />
<glyph unicode="&#xeb;" glyph-name="edieresis" horiz-adv-x="538" d="M128 -8T89 29T50 127Q50 143 53 161L82 327Q97 412 147 459T273 507H354Q419 507 456 470T493 370Q493 352 490 331L476 250H104L88 161Q85 146 85 131Q85 81 114 53T195 24H271Q331 24
370 57T421 151H456Q442 75 394 34T271 -8H195Q128 -8 89 29ZM446 281L455 331Q458 349 458 365Q458 416 430 445T354 475H273Q212 475 171 436T117 327L109 281H446ZM229 589T222 596T214 615Q214 633 225 644T253 655Q266 655 273 648T281 629Q281 611 270 600T242
589Q229 589 222 596ZM403 589T396 596T388 615Q388 633 399 644T427 655Q440 655 447 648T455 629Q455 611 444 600T416 589Q403 589 396 596Z" />
<glyph unicode="&#xec;" glyph-name="igrave" horiz-adv-x="219" d="M136 499H171L83 0H48L136 499ZM102 725H143L202 589H168L102 725Z" />
<glyph unicode="&#xed;" glyph-name="iacute" horiz-adv-x="219" d="M136 499H171L83 0H48L136 499ZM252 725H297L183 589H145L252 725Z" />
<glyph unicode="&#xee;" glyph-name="icircumflex" horiz-adv-x="219" d="M136 499H171L83 0H48L136 499ZM177 731H212L296 589H260L192 705L84 589H44L177 731Z" />
<glyph unicode="&#xef;" glyph-name="idieresis" horiz-adv-x="219" d="M136 499H171L83 0H48L136 499ZM70 589T63 596T55 615Q55 633 66 644T94 655Q107 655 114 648T122 629Q122 611 111 600T83 589Q70 589 63 596ZM244 589T237 596T229 615Q229 633 240 644T268
655Q281 655 288 648T296 629Q296 611 285 600T257 589Q244 589 237 596Z" />
<glyph unicode="&#xf0;" glyph-name="eth" horiz-adv-x="575" d="M514 681T532 636T550 522Q550 470 537 389L505 202Q488 103 428 48T278 -8H208Q133 -8 90 32T47 142Q47 154 51 182L74 315Q90 405 148 460T287 515H356Q412 515 452 488T508 411H509Q518 470
518 515Q518 578 502 619T453 684L378 605H342L430 697Q380 722 289 722H263L268 754H294Q396 754 455 723L515 786H551L477 709Q514 681 532 636ZM489 319T489 336Q489 401 452 442T355 483H287Q220 483 171 437T109 315L86 182Q83 164 83 148Q83 91 116 58T210
24H278Q353 24 403 71T469 202L486 299Q489 319 489 336Z" />
<glyph unicode="&#xf1;" glyph-name="ntilde" horiz-adv-x="558" d="M132 499H166L149 402Q187 454 228 480T311 507H377Q433 507 464 474T496 383Q496 365 493 345L432 0H397L458 345Q461 363 461 380Q461 424 439 449T377 475H311Q268 475 220 438T139 340L79
0H44L132 499ZM384 582T371 590T341 616Q328 630 319 636T295 643H282Q265 643 253 631T235 597H202Q210 633 231 653T284 673H297Q320 673 334 664T363 639Q376 625 385 619T408 612H421Q437 612 449 624T466 658H499Q492 622 471 602T419 582H406Q384 582 371
590Z" />
<glyph unicode="&#xf2;" glyph-name="ograve" horiz-adv-x="556" d="M130 -8T91 30T51 132Q51 150 54 169L82 330Q96 413 148 460T280 507H355Q424 507 464 469T505 366Q505 350 502 330L474 169Q460 86 407 39T273 -8H197Q130 -8 91 30ZM273 24Q340 24 383 62T439
169L467 330Q470 347 470 362Q470 414 439 444T355 475H280Q215 475 172 437T117 330L89 169Q86 151 86 136Q86 85 116 55T197 24H273ZM270 725H311L370 589H336L270 725Z" />
<glyph unicode="&#xf3;" glyph-name="oacute" horiz-adv-x="556" d="M130 -8T91 30T51 132Q51 150 54 169L82 330Q96 413 148 460T280 507H355Q424 507 464 469T505 366Q505 350 502 330L474 169Q460 86 407 39T273 -8H197Q130 -8 91 30ZM273 24Q340 24 383 62T439
169L467 330Q470 347 470 362Q470 414 439 444T355 475H280Q215 475 172 437T117 330L89 169Q86 151 86 136Q86 85 116 55T197 24H273ZM420 725H465L351 589H313L420 725Z" />
<glyph unicode="&#xf4;" glyph-name="ocircumflex" horiz-adv-x="556" d="M130 -8T91 30T51 132Q51 150 54 169L82 330Q96 413 148 460T280 507H355Q424 507 464 469T505 366Q505 350 502 330L474 169Q460 86 407 39T273 -8H197Q130 -8 91 30ZM273 24Q340 24 383
62T439 169L467 330Q470 347 470 362Q470 414 439 444T355 475H280Q215 475 172 437T117 330L89 169Q86 151 86 136Q86 85 116 55T197 24H273ZM345 731H380L464 589H428L360 705L252 589H212L345 731Z" />
<glyph unicode="&#xf5;" glyph-name="otilde" horiz-adv-x="556" d="M130 -8T91 30T51 132Q51 150 54 169L82 330Q96 413 148 460T280 507H355Q424 507 464 469T505 366Q505 350 502 330L474 169Q460 86 407 39T273 -8H197Q130 -8 91 30ZM273 24Q340 24 383 62T439
169L467 330Q470 347 470 362Q470 414 439 444T355 475H280Q215 475 172 437T117 330L89 169Q86 151 86 136Q86 85 116 55T197 24H273ZM378 582T365 590T335 616Q322 630 313 636T289 643H276Q259 643 247 631T229 597H196Q204 633 225 653T278 673H291Q314 673
328 664T357 639Q370 625 379 619T402 612H415Q431 612 443 624T460 658H493Q486 622 465 602T413 582H400Q378 582 365 590Z" />
<glyph unicode="&#xf6;" glyph-name="odieresis" horiz-adv-x="556" d="M130 -8T91 30T51 132Q51 150 54 169L82 330Q96 413 148 460T280 507H355Q424 507 464 469T505 366Q505 350 502 330L474 169Q460 86 407 39T273 -8H197Q130 -8 91 30ZM273 24Q340 24 383
62T439 169L467 330Q470 347 470 362Q470 414 439 444T355 475H280Q215 475 172 437T117 330L89 169Q86 151 86 136Q86 85 116 55T197 24H273ZM238 589T231 596T223 615Q223 633 234 644T262 655Q275 655 282 648T290 629Q290 611 279 600T251 589Q238 589 231
596ZM412 589T405 596T397 615Q397 633 408 644T436 655Q449 655 456 648T464 629Q464 611 453 600T425 589Q412 589 405 596Z" />
<glyph unicode="&#xf7;" glyph-name="divide" horiz-adv-x="544" d="M289 420T281 427T272 447Q272 467 283 479T314 491Q327 491 335 484T344 464Q344 444 333 432T302 420Q289 420 281 427ZM84 340H492L486 307H78L84 340ZM242 156T234 163T226 183Q226 203
237 215T268 227Q281 227 289 220T297 200Q297 180 286 168T255 156Q242 156 234 163Z" />
<glyph unicode="&#xf8;" glyph-name="oslash" horiz-adv-x="556" d="M477 456Q505 420 505 366Q505 348 502 330L474 169Q460 86 407 39T273 -8H197Q136 -8 99 23L50 -33H12L78 43Q51 80 51 133Q51 150 54 169L82 330Q96 413 148 460T280 507H355Q417 507 456
476L506 533H544L477 456ZM86 151T86 135Q86 99 103 71L433 450Q403 475 355 475H280Q215 475 172 437T117 330L89 169Q86 151 86 135ZM470 347T470 362Q470 401 452 428L121 49Q151 24 197 24H273Q340 24 383 62T439 169L467 330Q470 347 470 362Z" />
<glyph unicode="&#xf9;" glyph-name="ugrave" horiz-adv-x="556" d="M126 -8T94 24T61 112Q61 128 64 146L126 499H161L99 146Q96 130 96 116Q96 74 118 49T181 24H243Q271 24 306 45T373 101T420 172L477 499H512L424 0H390L408 103Q372 53 327 23T244 -8H181Q126
-8 94 24ZM270 725H311L370 589H336L270 725Z" />
<glyph unicode="&#xfa;" glyph-name="uacute" horiz-adv-x="556" d="M126 -8T94 24T61 112Q61 128 64 146L126 499H161L99 146Q96 130 96 116Q96 74 118 49T181 24H243Q271 24 306 45T373 101T420 172L477 499H512L424 0H390L408 103Q372 53 327 23T244 -8H181Q126
-8 94 24ZM420 725H465L351 589H313L420 725Z" />
<glyph unicode="&#xfb;" glyph-name="ucircumflex" horiz-adv-x="556" d="M126 -8T94 24T61 112Q61 128 64 146L126 499H161L99 146Q96 130 96 116Q96 74 118 49T181 24H243Q271 24 306 45T373 101T420 172L477 499H512L424 0H390L408 103Q372 53 327 23T244 -8H181Q126
-8 94 24ZM345 731H380L464 589H428L360 705L252 589H212L345 731Z" />
<glyph unicode="&#xfc;" glyph-name="udieresis" horiz-adv-x="556" d="M126 -8T94 24T61 112Q61 128 64 146L126 499H161L99 146Q96 130 96 116Q96 74 118 49T181 24H243Q271 24 306 45T373 101T420 172L477 499H512L424 0H390L408 103Q372 53 327 23T244 -8H181Q126
-8 94 24ZM238 589T231 596T223 615Q223 633 234 644T262 655Q275 655 282 648T290 629Q290 611 279 600T251 589Q238 589 231 596ZM412 589T405 596T397 615Q397 633 408 644T436 655Q449 655 456 648T464 629Q464 611 453 600T425 589Q412 589 405 596Z" />
<glyph unicode="&#xfd;" glyph-name="yacute" horiz-adv-x="558" d="M96 -203T62 -174T32 -96H67Q65 -130 89 -150T155 -171H235Q293 -171 333 -133T386 -26L410 106Q374 58 329 29T247 0H182Q126 0 94 32T62 120Q62 136 65 154L126 499H161L100 154Q97 138 97
124Q97 82 119 57T182 32H245Q288 32 340 73T420 169L479 499H514L421 -26Q406 -109 357 -156T235 -203H155Q96 -203 62 -174ZM421 725H466L352 589H314L421 725Z" />
<glyph unicode="&#xfe;" glyph-name="thorn" horiz-adv-x="564" d="M167 700H202L152 412Q183 456 223 481T302 507H376Q440 507 476 471T513 371Q513 353 510 332L484 184Q468 93 418 43T294 -8H220Q179 -8 146 16T94 82L44 -199H9L167 700ZM294 24Q354 24 394
66T449 184L475 332Q478 350 478 367Q478 417 451 446T376 475H302Q257 475 211 436T141 349L106 155Q108 126 122 96T161 45T220 24H294Z" />
<glyph unicode="&#xff;" glyph-name="ydieresis" horiz-adv-x="558" d="M96 -203T62 -174T32 -96H67Q65 -130 89 -150T155 -171H235Q293 -171 333 -133T386 -26L410 106Q374 58 329 29T247 0H182Q126 0 94 32T62 120Q62 136 65 154L126 499H161L100 154Q97 138
97 124Q97 82 119 57T182 32H245Q288 32 340 73T420 169L479 499H514L421 -26Q406 -109 357 -156T235 -203H155Q96 -203 62 -174ZM239 589T232 596T224 615Q224 633 235 644T263 655Q276 655 283 648T291 629Q291 611 280 600T252 589Q239 589 232 596ZM413 589T406
596T398 615Q398 633 409 644T437 655Q450 655 457 648T465 629Q465 611 454 600T426 589Q413 589 406 596Z" />
<glyph unicode="&#x2013;" glyph-name="endash" horiz-adv-x="628" d="M72 271H564L558 239H66L72 271Z" />
<glyph unicode="&#x2014;" glyph-name="emdash" horiz-adv-x="733" d="M72 271H669L663 239H66L72 271Z" />
<glyph unicode="&#x2018;" glyph-name="quoteleft" horiz-adv-x="219" d="M239 678L227 671Q191 649 173 624T149 563L141 518H105L113 563Q123 614 146 646T213 702L224 708L239 678Z" />
<glyph unicode="&#x2019;" glyph-name="quoteright" horiz-adv-x="220" d="M109 549L121 556Q157 578 175 603T199 664L207 709H243L235 664Q225 613 202 581T135 525L124 519L109 549Z" />
<glyph unicode="&#x201a;" glyph-name="quotesinglbase" horiz-adv-x="200" d="M220 165L232 172Q268 194 286 219T310 280L318 325H354L346 280Q336 229 313 197T246 141L235 135L220 165Z" />
<glyph unicode="&#x201c;" glyph-name="quotedblleft" horiz-adv-x="358" d="M239 678L227 671Q191 649 173 624T149 563L141 518H105L113 563Q123 614 146 646T213 702L224 708L239 678ZM378 678L366 671Q330 649 312 624T288 563L280 518H244L252 563Q262 614
285 646T352 702L363 708L378 678Z" />
<glyph unicode="&#x201d;" glyph-name="quotedblright" horiz-adv-x="358" d="M109 549L121 556Q157 578 175 603T199 664L207 709H243L235 664Q225 613 202 581T135 525L124 519L109 549ZM247 549L259 556Q295 578 313 603T337 664L345 709H381L373 664Q363 613
340 581T273 525L262 519L247 549Z" />
<glyph unicode="&#x201e;" glyph-name="quotedblbase" horiz-adv-x="338" d="M220 165L232 172Q268 194 286 219T310 280L318 325H354L346 280Q336 229 313 197T246 141L235 135L220 165ZM102 -91L114 -84Q150 -62 168 -37T192 24L200 69H236L228 24Q218 -27 195
-59T128 -115L117 -121L102 -91Z" />
<glyph unicode="&#x2022;" glyph-name="bullet" horiz-adv-x="272" d="M104 211T88 225T72 264Q72 301 94 324T152 347Q178 347 194 333T210 294Q210 257 188 234T130 211Q104 211 88 225Z" />
<glyph unicode="&#x2039;" glyph-name="guilsinglleft" horiz-adv-x="335" d="M51 268L313 512L304 459L96 264L235 69L227 24L51 268Z" />
<glyph unicode="&#x203a;" glyph-name="guilsinglright" horiz-adv-x="335" d="M38 77L245 272L106 467L114 512L290 268L28 24L38 77Z" />
</font>
</defs>
</svg>
