<?xml version="1.0" standalone="no"?>
<!DOCTYPE svg PUBLIC "-//W3C//DTD SVG 1.1//EN" "http://www.w3.org/Graphics/SVG/1.1/DTD/svg11.dtd">
<svg xmlns="http://www.w3.org/2000/svg">
<defs >
<font id="BaiJamjuree" horiz-adv-x="542" ><font-face
    font-family="Bai Jamjuree ExtraLight"
    units-per-em="1000"
    panose-1="0 0 3 0 0 0 0 0 0 0"
    ascent="1000"
    descent="-250"
    alphabetic="0" />
<glyph unicode=" " glyph-name="space" horiz-adv-x="246" />
<glyph unicode="!" glyph-name="exclam" horiz-adv-x="260" d="M112 700H148V148H112V700ZM114 -10T104 0T94 26Q94 43 104 52T130 62Q147 62 156 53T166 26Q166 10 157 0T130 -10Q114 -10 104 0Z" />
<glyph unicode="&quot;" glyph-name="quotedbl" horiz-adv-x="300" d="M68 700H104V502H68V700ZM196 700H232V502H196V700Z" />
<glyph unicode="#" glyph-name="numbersign" horiz-adv-x="667" d="M200 202H68V233H200V464H68V495H200V700H234V495H433V700H466V495H599V464H466V233H599V202H466V0H433V202H234V0H200V202ZM433 234V463H234V234H433Z" />
<glyph unicode="$" glyph-name="dollar" horiz-adv-x="613" d="M472 344T511 306T551 211V140Q551 73 500 33T366 -8H335V-100H300V-8H253Q166 -8 117 42T68 180H103Q103 107 143 66T253 25H366Q433 25 474 56T515 140V211Q515 254 485 283T401 322L224 352Q155
364 116 402T77 499V562Q77 628 126 668T256 708H300V800H335V708H369Q446 708 493 662T540 538H505Q505 600 468 637T369 675H256Q191 675 152 644T113 562V499Q113 454 142 425T224 386L401 356Q472 344 511 306Z" />
<glyph unicode="%" glyph-name="percent" horiz-adv-x="924" d="M635 722H671L295 -25H259L635 722ZM133 258T101 294T68 391V573Q68 633 101 669T188 706H246Q298 706 330 670T362 573V391Q362 331 330 295T244 258H186Q133 258 101 294ZM244 289Q282 289 305
317T328 391V573Q328 619 306 647T246 675H188Q149 675 126 647T102 573V391Q102 345 125 317T186 289H244ZM627 -8T595 28T562 125V307Q562 367 595 403T682 440H740Q792 440 824 404T856 307V125Q856 65 824 29T738 -8H680Q627 -8 595 28ZM738 23Q776 23 799
51T822 125V307Q822 353 800 381T740 409H682Q643 409 620 381T596 307V125Q596 79 619 51T680 23H738Z" />
<glyph unicode="&amp;" glyph-name="ampersand" horiz-adv-x="620" d="M544 0L475 88Q440 42 391 17T284 -8H238Q161 -8 115 32T68 140V190Q68 233 86 265T132 320T213 376L237 392L199 441Q156 496 156 557V581Q156 638 194 673T294 708H331Q389 708 424 675T459
586V562Q459 532 448 511T406 466T309 398L286 383L472 146Q504 208 510 294H545Q539 193 495 116L586 0H544ZM266 408L291 424Q349 462 375 481T413 519T424 562V586Q424 627 399 651T331 676H294Q248 676 220 650T191 581V557Q191 506 223 465L266 408ZM336 25T379
48T453 116L258 366Q230 348 226 346Q183 319 160 300T120 254T104 190V140Q104 88 141 57T238 25H284Q336 25 379 48Z" />
<glyph unicode="&apos;" glyph-name="quotesingle" horiz-adv-x="172" d="M68 700H104V502H68V700Z" />
<glyph unicode="(" glyph-name="parenleft" horiz-adv-x="289" d="M135 -93T102 14T68 240V260Q68 385 101 492T205 700H241Q170 592 137 485T104 260V240Q104 125 137 18T241 -202H205Q135 -93 102 14Z" />
<glyph unicode=")" glyph-name="parenright" horiz-adv-x="289" d="M118 -90T151 17T185 240V260Q185 378 152 485T48 700H84Q154 600 187 493T221 260V240Q221 121 188 14T84 -202H48Q118 -90 151 17Z" />
<glyph unicode="*" glyph-name="asterisk" horiz-adv-x="429" d="M199 576L83 502L68 528L190 600L68 672L83 698L199 624V750H229V624L346 698L361 672L238 600L361 528L346 502L229 576V451H199V576Z" />
<glyph unicode="+" glyph-name="plus" horiz-adv-x="566" d="M265 307H68V340H265V539H301V340H498V307H301V108H265V307Z" />
<glyph unicode="," glyph-name="comma" horiz-adv-x="200" d="M24 -81L35 -74Q67 -54 80 -29T94 34V79H130V34Q130 -16 113 -48T54 -105L44 -111L24 -81Z" />
<glyph unicode="-" glyph-name="hyphen" horiz-adv-x="401" d="M68 271H333V239H68V271Z" />
<glyph unicode="." glyph-name="period" horiz-adv-x="208" d="M88 -10T78 0T68 26Q68 43 78 52T104 62Q121 62 130 53T140 26Q140 10 131 0T104 -10Q88 -10 78 0Z" />
<glyph unicode="/" glyph-name="slash" horiz-adv-x="508" d="M424 722H460L84 -25H48L424 722Z" />
<glyph unicode="0" glyph-name="zero" horiz-adv-x="632" d="M180 -8T129 48T78 198V502Q78 595 129 651T263 708H369Q452 708 503 652T554 502V198Q554 105 503 49T369 -8H263Q180 -8 129 48ZM367 25Q435 25 476 72T518 198V502Q518 580 477 627T367 675H265Q197
675 156 628T114 502V198Q114 120 155 73T265 25H367Z" />
<glyph unicode="1" glyph-name="one" horiz-adv-x="343" d="M209 664L48 581V616L205 700H245V0H209V664Z" />
<glyph unicode="2" glyph-name="two" d="M65 28Q65 94 81 133T141 210L387 422Q448 475 448 534V566Q448 615 414 645T323 675H230Q169 675 132 635T95 527H60Q60 609 106 658T230 708H323Q396 708 440 669T484 566V534Q484 461 412 398L174 194Q132 158 117 124T101
33H494V0H65V28Z" />
<glyph unicode="3" glyph-name="three" horiz-adv-x="576" d="M455 344T484 302T514 207V167Q514 88 465 40T333 -8H236Q156 -8 107 43T58 178H94Q94 109 133 67T236 25H333Q398 25 438 64T478 167V207Q478 268 438 305T330 343H238V375H330Q391 375 428 411T465
507V547Q465 605 430 640T335 675H238Q176 675 138 633T99 522H63Q63 606 111 657T238 708H335Q410 708 455 664T501 547V507Q501 454 476 416T406 360Q455 344 484 302Z" />
<glyph unicode="4" glyph-name="four" horiz-adv-x="563" d="M395 153H65Q38 153 38 178V193L395 700H431V186H519V153H431V0H395V153ZM396 186V640H395L76 186H396Z" />
<glyph unicode="5" glyph-name="five" horiz-adv-x="584" d="M162 -8T115 37T68 157H104Q104 98 141 62T238 25H334Q401 25 441 65T482 173V240Q482 302 441 340T331 379H94V700H492V667H130V412H331Q415 412 466 365T518 240V173Q518 91 468 42T334 -8H238Q162
-8 115 37Z" />
<glyph unicode="6" glyph-name="six" horiz-adv-x="592" d="M215 -8T171 17T103 90T78 198V485Q78 590 128 649T269 708H355Q429 708 473 660T518 532H484Q484 596 449 635T355 675H269Q196 675 155 625T114 485V319Q144 375 191 405T298 436H362Q441 436 489
385T538 248V198Q538 105 485 49T345 -8H273Q215 -8 171 17ZM345 25Q416 25 459 72T502 198V248Q502 318 464 360T362 403H296Q232 403 182 357T114 243V196Q114 119 158 72T273 25H345Z" />
<glyph unicode="7" glyph-name="seven" horiz-adv-x="478" d="M169 24Q169 72 177 117T200 195L405 667H32V700H446V673L239 195Q223 157 214 112T205 24V0H169V24Z" />
<glyph unicode="8" glyph-name="eight" horiz-adv-x="606" d="M164 -8T111 39T58 162V196Q58 248 86 291T172 359V360Q126 382 104 420T81 507V545Q81 618 130 663T260 708H346Q426 708 475 663T525 545V507Q525 459 503 421T434 360V359Q491 337 519 293T548
196V162Q548 86 495 39T356 -8H250Q164 -8 111 39ZM350 374Q412 374 450 410T489 507V546Q489 604 450 639T346 675H260Q196 675 157 640T117 546V507Q117 447 155 411T256 374H350ZM356 25Q426 25 469 62T512 162V196Q512 262 468 302T350 342H256Q183 342 139
302T94 196V162Q94 100 137 63T250 25H356Z" />
<glyph unicode="9" glyph-name="nine" horiz-adv-x="596" d="M173 -8T126 39T78 163H113Q113 101 150 63T250 25H336Q405 25 443 72T482 203V361Q416 264 304 264H237Q156 264 108 316T60 457V507Q60 598 114 653T259 708H329Q414 708 466 655T518 514V203Q518
103 470 48T336 -8H250Q173 -8 126 39ZM306 297Q368 297 417 336T482 427V514Q482 587 440 631T329 675H259Q186 675 141 629T96 507V457Q96 384 134 341T237 297H306Z" />
<glyph unicode=":" glyph-name="colon" horiz-adv-x="208" d="M88 380T78 390T68 416Q68 433 78 442T104 452Q121 452 130 443T140 416Q140 400 131 390T104 380Q88 380 78 390ZM88 40T78 50T68 76Q68 93 78 102T104 112Q121 112 130 103T140 76Q140 60 131 50T104
40Q88 40 78 50Z" />
<glyph unicode=";" glyph-name="semicolon" horiz-adv-x="209" d="M89 380T79 390T69 416Q69 433 79 442T105 452Q122 452 131 443T141 416Q141 400 132 390T105 380Q89 380 79 390ZM24 -81L35 -74Q67 -54 80 -29T94 34V79H130V34Q130 -16 113 -48T54 -105L44
-111L24 -81Z" />
<glyph unicode="&lt;" glyph-name="less" horiz-adv-x="577" d="M48 277V315L509 579V541L80 296L509 51V13L48 277Z" />
<glyph unicode="=" glyph-name="equal" horiz-adv-x="523" d="M68 413H455V380H68V413ZM68 238H455V205H68V238Z" />
<glyph unicode="&gt;" glyph-name="greater" horiz-adv-x="577" d="M68 51L497 296L68 541V579L529 315V277L68 13V51Z" />
<glyph unicode="?" glyph-name="question" horiz-adv-x="551" d="M255 214Q255 252 269 281T305 332T360 380Q405 416 426 441T447 504V557Q447 610 411 642T315 675H229Q165 675 127 642T88 552H52Q52 622 100 665T229 708H315Q391 708 437 667T483 557V504Q483
471 470 446T439 402T388 358Q340 320 316 289T291 210V161H255V214ZM257 -10T247 0T237 26Q237 43 247 52T273 62Q290 62 299 53T309 26Q309 10 300 0T273 -10Q257 -10 247 0Z" />
<glyph unicode="@" glyph-name="at" horiz-adv-x="860" d="M242 -29T186 1T99 86T68 213V444Q68 528 103 592T201 691T349 726H547Q620 726 675 697T761 614T792 492V303Q792 235 764 197T683 158H651Q619 158 594 176T559 224H558Q540 190 507 169T435 148H382Q324
148 289 186T254 289V384Q254 453 293 495T397 537H446Q477 537 506 522T550 483V531H584V268Q584 233 603 212T653 190H683Q718 190 737 220T757 303V492Q757 552 731 597T657 668T547 693H349Q276 693 220 662T134 575T103 444V213Q103 151 129 104T204 30T315
4H491Q530 4 572 15T646 45L664 17Q635 -4 587 -16T488 -29H315Q242 -29 186 1ZM433 180Q480 180 512 213T549 301V404Q545 450 517 477T446 505H399Q349 505 319 472T289 384V289Q289 240 314 210T382 180H433Z" />
<glyph unicode="A" glyph-name="A" horiz-adv-x="629" d="M477 213H152L72 0H34L299 700H316Q331 700 340 678L595 0H557L477 213ZM164 246H465L316 648H315L164 246Z" />
<glyph unicode="B" glyph-name="B" horiz-adv-x="648" d="M111 0T102 9T92 36V700H377Q454 700 501 661T548 556V496Q548 449 530 415T479 362V361Q530 350 561 313T592 224V165Q592 91 542 46T410 0H128Q111 0 102 9ZM397 369Q449 369 480 403T512 496V556Q512
606 475 636T377 667H128V369H397ZM410 33Q475 33 515 69T556 165V224Q556 275 521 306T428 337H128V33H410Z" />
<glyph unicode="C" glyph-name="C" horiz-adv-x="646" d="M217 -8T171 22T98 108T72 235V465Q72 537 98 592T172 677T282 708H388Q479 708 534 652T590 503H555Q555 580 510 627T388 675H282Q231 675 192 649T130 575T108 465V235Q108 173 129 125T189 51T278
25H386Q463 25 510 76T557 213H592Q592 147 567 97T494 20T386 -8H278Q217 -8 171 22Z" />
<glyph unicode="D" glyph-name="D" horiz-adv-x="660" d="M111 0T102 9T92 36V700H356Q426 700 479 673T562 596T592 481V239Q592 121 533 61T360 0H128Q111 0 102 9ZM360 33Q457 33 506 85T556 239V481Q556 565 501 616T356 667H128V33H360Z" />
<glyph unicode="E" glyph-name="E" horiz-adv-x="586" d="M111 0T102 10T92 39V700H524V667H128V374H494V341H128V33H524V0H128Q111 0 102 10Z" />
<glyph unicode="F" glyph-name="F" horiz-adv-x="562" d="M92 700H514V667H128V370H477V337H128V0H92V700Z" />
<glyph unicode="G" glyph-name="G" horiz-adv-x="670" d="M220 -8T172 22T98 108T72 235V465Q72 537 99 592T174 677T286 708H392Q453 708 499 683T571 611T597 503H562Q562 580 515 627T392 675H286Q233 675 193 649T130 575T108 465V235Q108 173 130 125T191
51T282 25H390Q470 25 518 76T567 213V314H364V347H602V213Q602 147 576 97T501 20T390 -8H282Q220 -8 172 22Z" />
<glyph unicode="H" glyph-name="H" horiz-adv-x="677" d="M92 700H128V370H549V700H585V0H549V337H128V0H92V700Z" />
<glyph unicode="I" glyph-name="I" horiz-adv-x="240" d="M102 700H138V0H102V700Z" />
<glyph unicode="J" glyph-name="J" horiz-adv-x="564" d="M166 -8T128 17T68 89T46 197H82Q82 120 119 73T216 25H309Q372 25 408 75T444 215V700H480V215Q480 110 435 51T309 -8H216Q166 -8 128 17Z" />
<glyph unicode="K" glyph-name="K" horiz-adv-x="606" d="M522 0L228 360L128 254V0H92V700H128V304L502 700H550L254 387L568 0H522Z" />
<glyph unicode="L" glyph-name="L" horiz-adv-x="546" d="M111 0T102 10T92 39V700H128V33H508V0H128Q111 0 102 10Z" />
<glyph unicode="M" glyph-name="M" horiz-adv-x="781" d="M92 700H130L394 204L651 700H689V0H654V631L410 164Q404 153 397 153H385L127 631V0H92V700Z" />
<glyph unicode="N" glyph-name="N" horiz-adv-x="676" d="M92 700H129L549 57V700H584V0H547L126 643V0H92V700Z" />
<glyph unicode="O" glyph-name="O" horiz-adv-x="682" d="M224 -8T175 21T99 105T72 229V471Q72 541 99 595T175 678T290 708H392Q457 708 506 679T583 595T610 471V229Q610 159 583 105T506 22T391 -8H289Q224 -8 175 21ZM391 25Q445 25 486 50T551 122T574 229V471Q574
531 552 577T488 649T392 675H290Q236 675 195 650T131 578T108 471V229Q108 137 157 81T289 25H391Z" />
<glyph unicode="P" glyph-name="P" horiz-adv-x="610" d="M92 700H411Q481 700 523 663T566 563V444Q566 376 521 335T401 293H128V0H92V700ZM401 326Q459 326 494 358T530 444V563Q530 610 497 638T411 667H128V326H401Z" />
<glyph unicode="Q" glyph-name="Q" horiz-adv-x="684" d="M609 -32L534 43Q476 -7 393 -7H289Q225 -7 176 22T99 105T72 228V471Q72 541 99 595T175 678T290 708H392Q457 708 506 679T583 595T610 471V228Q610 130 557 66L632 -8L609 -32ZM460 26T509 67L403 172L426
195L532 91Q574 144 574 228V471Q574 531 552 577T488 649T392 675H290Q236 675 195 650T131 578T108 471V228Q108 137 157 82T289 26H391Q460 26 509 67Z" />
<glyph unicode="R" glyph-name="R" horiz-adv-x="636" d="M92 700H412Q480 700 522 662T564 561V479Q564 425 530 385T439 332V331Q469 317 492 284T529 202L586 0H550L492 202Q475 259 440 291T359 323H128V0H92V700ZM387 356Q451 356 489 389T528 479V561Q528
609 497 638T412 667H128V356H387Z" />
<glyph unicode="S" glyph-name="S" horiz-adv-x="613" d="M166 -8T117 42T68 180H103Q103 107 143 66T253 25H366Q433 25 474 56T515 140V211Q515 254 485 283T401 322L224 352Q155 364 116 402T77 499V562Q77 628 126 668T256 708H369Q446 708 493 662T540 538H505Q505
600 468 637T369 675H256Q191 675 152 644T113 562V499Q113 454 142 425T224 386L401 356Q472 344 511 306T551 211V140Q551 73 500 33T366 -8H253Q166 -8 117 42Z" />
<glyph unicode="T" glyph-name="T" horiz-adv-x="564" d="M264 667H42V700H522V667H300V0H264V667Z" />
<glyph unicode="U" glyph-name="U" horiz-adv-x="678" d="M226 -8T182 18T113 93T88 204V700H124V204Q124 124 168 75T284 25H394Q466 25 510 74T554 204V700H590V204Q590 141 566 93T497 19T394 -8H284Q226 -8 182 18Z" />
<glyph unicode="V" glyph-name="V" horiz-adv-x="617" d="M288 0T279 25L34 700H72L308 47H309L545 700H583L327 0H312Q288 0 279 25Z" />
<glyph unicode="W" glyph-name="W" horiz-adv-x="827" d="M173 0T166 37L46 700H83L200 39H201L400 663H414Q438 663 445 639L626 39H627L744 700H781L661 37Q657 18 648 9T622 0H604L419 612H418L223 0H205Q173 0 166 37Z" />
<glyph unicode="X" glyph-name="X" horiz-adv-x="595" d="M277 357L38 700H80L298 387L515 700H557L319 357L567 0H525L298 327L70 0H28L277 357Z" />
<glyph unicode="Y" glyph-name="Y" horiz-adv-x="606" d="M285 267L28 700H67L303 300L539 700H578L321 267V0H285V267Z" />
<glyph unicode="Z" glyph-name="Z" horiz-adv-x="572" d="M56 18L466 668H74V700H516V682L106 32H506V0H56V18Z" />
<glyph unicode="[" glyph-name="bracketleft" horiz-adv-x="299" d="M171 -207T132 -167T92 -61V589Q92 655 131 695T236 735H251V702H236Q187 702 158 671T128 589V-61Q128 -112 157 -143T236 -174H251V-207H236Q171 -207 132 -167Z" />
<glyph unicode="\" glyph-name="backslash" horiz-adv-x="508" d="M48 722H84L460 -25H424L48 722Z" />
<glyph unicode="]" glyph-name="bracketright" horiz-adv-x="299" d="M48 -174H63Q112 -174 141 -143T171 -61V589Q171 640 142 671T63 702H48V735H63Q128 735 167 695T207 589V-61Q207 -127 168 -167T63 -207H48V-174Z" />
<glyph unicode="^" glyph-name="asciicircum" horiz-adv-x="517" d="M239 700H279L449 382H412L259 672L105 382H68L239 700Z" />
<glyph unicode="_" glyph-name="underscore" horiz-adv-x="492" d="M0 -10H492V-42H0V-10Z" />
<glyph unicode="`" glyph-name="grave" horiz-adv-x="250" d="M62 725H105L188 589H152L62 725Z" />
<glyph unicode="a" glyph-name="a" horiz-adv-x="540" d="M151 -8T111 27T70 120V164Q70 222 110 256T219 291H286Q321 291 359 279T423 245V356Q423 409 392 442T311 475H235Q183 475 151 451T119 387H84Q84 441 125 474T235 507H311Q377 507 417 466T458 356V0H424V85Q394
41 356 17T280 -8H217Q151 -8 111 27ZM280 24Q317 24 356 55T423 136V207Q400 230 362 244T286 259H219Q167 259 136 234T105 164V120Q105 77 136 51T217 24H280Z" />
<glyph unicode="b" glyph-name="b" horiz-adv-x="564" d="M224 -8T186 18T122 86V0H88V700H123V417Q144 459 183 483T269 507H339Q410 507 453 459T496 330V179Q496 95 451 44T331 -8H262Q224 -8 186 18ZM331 24Q390 24 425 66T461 179V330Q461 395 428 435T339
475H271Q211 475 171 434T123 327V148Q139 99 178 62T262 24H331Z" />
<glyph unicode="c" glyph-name="c" horiz-adv-x="522" d="M158 -8T113 38T68 162V327Q68 408 112 457T230 507H312Q381 507 423 470T465 373H431Q431 419 398 447T312 475H230Q173 475 138 435T103 327V162Q103 100 138 62T231 24H313Q368 24 401 60T434 157H468Q468
83 426 38T313 -8H231Q158 -8 113 38Z" />
<glyph unicode="d" glyph-name="d" horiz-adv-x="562" d="M154 -8T111 42T68 174V322Q68 405 114 456T235 507H313Q351 507 385 487T441 431V700H476V0H442V94Q415 44 378 18T297 -8H225Q154 -8 111 42ZM297 24Q344 24 383 63T441 166V364Q428 413 393 444T313
475H235Q176 475 140 433T103 322V174Q103 107 136 66T225 24H297Z" />
<glyph unicode="e" glyph-name="e" horiz-adv-x="538" d="M159 -8T114 38T68 161V327Q68 408 113 457T233 507H315Q388 507 432 459T476 331V250H103V161Q103 99 139 62T234 24H310Q368 24 403 59T439 151H474Q474 80 429 36T310 -8H234Q159 -8 114 38ZM441 281V331Q441
396 407 435T315 475H233Q174 475 139 435T103 327V281H441Z" />
<glyph unicode="f" glyph-name="f" horiz-adv-x="345" d="M138 467H52V499H138V543Q138 626 173 665T284 704H303V672H284Q225 672 199 642T173 543V499H292V467H173V0H138V467Z" />
<glyph unicode="g" glyph-name="g" horiz-adv-x="564" d="M174 -203T137 -174T95 -96H130Q134 -130 161 -150T231 -171H315Q374 -171 407 -133T441 -26V93Q416 51 378 26T299 0H225Q154 0 111 49T68 181V321Q68 405 114 456T235 507H313Q351 507 386 486T442 429V499H476V-26Q476
-109 434 -156T315 -203H231Q174 -203 137 -174ZM297 32Q347 32 386 70T441 155V364Q428 413 393 444T313 475H235Q176 475 140 433T103 321V181Q103 114 136 73T225 32H297Z" />
<glyph unicode="h" glyph-name="h" horiz-adv-x="560" d="M88 700H123V403Q151 454 189 480T271 507H339Q401 507 439 463T478 345V0H443V345Q443 403 415 439T339 475H271Q228 475 187 438T123 340V0H88V700Z" />
<glyph unicode="i" glyph-name="i" horiz-adv-x="246" d="M107 593T98 602T88 628Q88 644 97 653T123 663Q139 663 148 654T158 628Q158 612 149 603T123 593Q107 593 98 602ZM105 499H140V0H105V499Z" />
<glyph unicode="j" glyph-name="j" horiz-adv-x="252" d="M113 593T104 602T94 628Q94 644 103 653T129 663Q145 663 154 654T164 628Q164 612 155 603T129 593Q113 593 104 602ZM-20 -167H-1Q61 -167 86 -137T111 -32V499H146V-27Q146 -92 132 -129T86 -182T-1
-199H-20V-167Z" />
<glyph unicode="k" glyph-name="k" horiz-adv-x="485" d="M417 0L202 258L123 180V0H88V700H123V227L400 499H445L227 283L461 0H417Z" />
<glyph unicode="l" glyph-name="l" horiz-adv-x="254" d="M136 0T112 28T88 123V700H123V123Q123 74 138 53T191 32H222V0H191Q136 0 112 28Z" />
<glyph unicode="m" glyph-name="m" horiz-adv-x="831" d="M679 507T714 468T749 363V0H714V363Q714 413 689 444T621 475H559Q515 475 482 440T436 347V0H401V353Q401 407 376 441T312 475H252Q211 475 175 437T123 339V0H88V499H122V408Q145 455 179 481T252
507H312Q352 507 383 481T426 411Q446 455 481 481T559 507H621Q679 507 714 468Z" />
<glyph unicode="n" glyph-name="n" horiz-adv-x="558" d="M88 499H122V402Q150 453 189 480T271 507H337Q399 507 437 463T476 345V0H441V345Q441 403 413 439T337 475H271Q228 475 187 438T123 340V0H88V499Z" />
<glyph unicode="o" glyph-name="o" horiz-adv-x="556" d="M161 -8T115 41T68 169V330Q68 409 115 458T240 507H315Q393 507 440 459T488 330V169Q488 89 440 41T313 -8H237Q161 -8 115 41ZM313 24Q376 24 414 64T453 169V330Q453 395 415 435T315 475H240Q178
475 141 435T103 330V169Q103 104 140 64T237 24H313Z" />
<glyph unicode="p" glyph-name="p" horiz-adv-x="564" d="M88 499H122V411Q145 455 183 481T262 507H336Q408 507 452 459T496 332V184Q496 97 453 45T334 -8H260Q220 -8 184 16T123 82V-199H88V499ZM334 24Q393 24 427 67T461 184V332Q461 397 427 436T336 475H262Q217
475 178 436T123 349V155Q130 126 149 96T196 45T260 24H334Z" />
<glyph unicode="q" glyph-name="q" horiz-adv-x="564" d="M441 91Q415 43 378 18T297 -8H225Q154 -8 111 40T68 168V322Q68 405 114 456T235 507H313Q351 507 385 486T442 429V499H476V-203H441V91ZM293 24Q342 24 383 63T441 161V364Q428 413 393 444T313 475H235Q176
475 140 433T103 322V168Q103 103 136 64T225 24H293Z" />
<glyph unicode="r" glyph-name="r" horiz-adv-x="341" d="M88 499H122V413Q145 455 186 478T278 501H309V469H277Q234 469 199 450T143 395T123 315V0H88V499Z" />
<glyph unicode="s" glyph-name="s" horiz-adv-x="506" d="M143 -8T103 32T62 137H96Q96 86 127 55T210 24H295Q348 24 380 46T413 104V148Q413 173 396 192T349 217L174 247Q129 254 101 283T73 350V385Q73 440 112 473T215 507H300Q362 507 399 471T437 374H403Q402
420 374 447T300 475H215Q167 475 138 450T108 385V350Q108 323 127 304T179 279L354 249Q396 241 422 214T448 148V104Q448 54 406 23T295 -8H210Q143 -8 103 32Z" />
<glyph unicode="t" glyph-name="t" horiz-adv-x="368" d="M198 0T167 31T135 134V467H48V499H136V650H170V499H300V467H170V134Q170 79 192 56T268 32H300V0H272Q198 0 167 31Z" />
<glyph unicode="u" glyph-name="u" horiz-adv-x="556" d="M159 -8T121 34T82 146V499H117V146Q117 91 145 58T221 24H283Q311 24 342 45T399 101T433 172V499H468V0H434V103Q406 54 365 23T284 -8H221Q159 -8 121 34Z" />
<glyph unicode="v" glyph-name="v" horiz-adv-x="479" d="M228 0T220 6T206 29L28 499H65L239 34H240L414 499H451L260 0H242Q228 0 220 6Z" />
<glyph unicode="w" glyph-name="w" horiz-adv-x="706" d="M181 0T172 9T157 39L44 499H81L193 39H194L340 485H355Q369 485 376 463L513 39H514L625 499H662L550 39Q545 18 535 9T508 0H492L355 426L214 0H198Q181 0 172 9Z" />
<glyph unicode="x" glyph-name="x" horiz-adv-x="471" d="M216 256L39 499H79L236 283L392 499H432L256 256L441 0H401L236 228L70 0H30L216 256Z" />
<glyph unicode="y" glyph-name="y" horiz-adv-x="558" d="M172 -203T135 -174T93 -96H128Q132 -130 159 -150T229 -171H309Q366 -171 400 -131T435 -26V103Q405 55 365 28T286 0H221Q159 0 121 42T82 154V499H117V154Q117 99 145 66T221 32H284Q312 32 343 51T399
101T435 169V499H470V-26Q470 -106 426 -154T309 -203H229Q172 -203 135 -174Z" />
<glyph unicode="z" glyph-name="z" horiz-adv-x="458" d="M48 12L358 469H60V499H410V487L100 30H405V0H48V12Z" />
<glyph unicode="{" glyph-name="braceleft" horiz-adv-x="356" d="M225 -231T188 -193T151 -87V121Q151 210 68 240V264Q151 294 151 383V591Q151 659 188 697T292 735H308V702H292Q240 702 214 674T187 591V383Q187 289 113 252Q187 213 187 121V-87Q187 -142
213 -170T292 -198H308V-231H292Q225 -231 188 -193Z" />
<glyph unicode="|" glyph-name="bar" horiz-adv-x="232" d="M98 847H134V-147H98V847Z" />
<glyph unicode="}" glyph-name="braceright" horiz-adv-x="356" d="M48 -198H64Q116 -198 142 -170T169 -87V121Q169 213 243 252Q169 289 169 383V591Q169 646 143 674T64 702H48V735H64Q131 735 168 697T205 591V383Q205 294 288 264V240Q205 210 205 121V-87Q205
-155 168 -193T64 -231H48V-198Z" />
<glyph unicode="~" glyph-name="asciitilde" horiz-adv-x="586" d="M349 247T328 263T282 312Q260 341 243 355T201 369H175Q144 369 125 339T103 260H68Q69 324 98 363T175 402H201Q237 402 260 384T308 333Q330 305 345 293T382 280H408Q440 280 461 310T483
391H518Q517 326 487 287T408 247H382Q349 247 328 263Z" />
<glyph unicode="&#xa0;" glyph-name="uni00A0" horiz-adv-x="246" />
<glyph unicode="&#xa1;" glyph-name="exclamdown" horiz-adv-x="260" d="M147 507T156 498T166 471Q166 455 157 445T130 435Q114 435 104 445T94 471Q94 488 104 497T130 507Q147 507 156 498ZM148 349V-203H112V349H148Z" />
<glyph unicode="&#xa2;" glyph-name="cent" horiz-adv-x="522" d="M468 157Q468 83 426 38T313 -8H291V-100H256V-8H231Q158 -8 113 38T68 162V327Q68 408 112 457T230 507H256V597H291V507H312Q381 507 423 470T465 373H431Q431 419 398 447T312 475H230Q173
475 138 435T103 327V162Q103 100 138 62T231 24H313Q368 24 401 60T434 157H468Z" />
<glyph unicode="&#xa3;" glyph-name="sterling" horiz-adv-x="639" d="M579 33V0H68V33H158V298H78V331H158V502Q158 591 204 645T328 700H414Q479 700 523 657T574 542H539Q533 598 499 632T414 667H328Q268 667 231 622T194 502V331H410V298H194V33H579Z" />
<glyph unicode="&#xa4;" glyph-name="currency" horiz-adv-x="664" d="M69 101L136 168Q76 236 76 339Q76 443 136 511L68 578L91 602L161 534Q229 589 330 589Q433 589 503 532L572 602L596 579L526 510Q585 443 585 339Q585 236 526 169L595 101L573 78L503
148Q470 120 426 105T330 90Q227 90 160 146L91 78L69 101ZM434 124T492 181T550 339Q550 441 492 498T330 555Q227 555 169 498T111 339Q111 238 169 181T330 124Q434 124 492 181Z" />
<glyph unicode="&#xa5;" glyph-name="yen" horiz-adv-x="606" d="M341 300H511V268H322L321 267V156H511V124H321V0H285V124H95V156H285V267L284 268H95V300H265L28 700H67L303 300L539 700H578L341 300Z" />
<glyph unicode="&#xa6;" glyph-name="brokenbar" horiz-adv-x="232" d="M98 847H134V435H98V847ZM98 265H134V-147H98V265Z" />
<glyph unicode="&#xa7;" glyph-name="section" horiz-adv-x="546" d="M478 272T454 247T388 211Q421 197 439 172T458 116V81Q458 30 419 -1T316 -33H231Q169 -33 132 3T94 100H128Q129 54 157 27T231 -1H316Q364 -1 393 21T423 81V116Q423 142 404 162T352 191L162
238Q68 262 68 339V383Q68 414 92 438T158 474Q125 489 107 514T88 569V604Q88 655 127 686T230 718H315Q377 718 414 682T452 585H418Q417 631 389 658T315 686H230Q182 686 153 664T123 604V569Q123 542 142 522T194 494L369 451Q478 424 478 348V304Q478 272
454 247ZM443 348Q443 378 423 394T364 420L206 458Q157 451 130 432T103 383V339Q103 309 119 293T167 269L340 227Q389 234 416 254T443 304V348Z" />
<glyph unicode="&#xa8;" glyph-name="dieresis" horiz-adv-x="364" d="M80 589T71 598T62 622Q62 637 71 646T95 655Q110 655 119 646T128 622Q128 607 119 598T95 589Q80 589 71 598ZM254 589T245 598T236 622Q236 637 245 646T269 655Q284 655 293 646T302 622Q302
607 293 598T269 589Q254 589 245 598Z" />
<glyph unicode="&#xa9;" glyph-name="copyright" horiz-adv-x="746" d="M282 35T213 74T106 184T68 349Q68 442 106 513T213 624T373 663Q464 663 533 624T640 514T678 349Q678 256 640 185T533 74T373 35Q282 35 213 74ZM454 65T515 100T611 200T645 349Q645
433 611 497T516 597T373 633Q292 633 231 598T135 498T101 349Q101 265 135 201T230 101T373 65Q454 65 515 100ZM290 152T259 189T228 286V412Q228 472 260 509T344 546H402Q452 546 482 515T513 433H481Q481 470 459 493T402 516H344Q307 516 284 488T261 412V286Q261
239 283 211T341 182H401Q438 182 460 207T482 274H514Q514 219 483 186T401 152H341Q290 152 259 189Z" />
<glyph unicode="&#xaa;" glyph-name="ordfeminine" horiz-adv-x="419" d="M126 343T97 367T68 432V463Q68 504 97 529T173 554H221Q245 554 269 547T308 528V599Q308 634 289 655T238 676H184Q151 676 131 661T111 621H78Q78 659 107 682T184 706H238Q284 706
312 677T341 599V349H309V403Q291 376 266 360T217 343H172Q126 343 97 367ZM216 373Q240 373 265 394T308 449V494Q295 507 271 515T221 524H173Q141 524 121 508T101 463V432Q101 406 120 390T172 373H216Z" />
<glyph unicode="&#xab;" glyph-name="guillemotleft" horiz-adv-x="520" d="M48 268L267 512V463L93 268L267 73V24L48 268ZM233 268L452 512V463L278 268L452 73V24L233 268Z" />
<glyph unicode="&#xac;" glyph-name="logicalnot" horiz-adv-x="657" d="M553 379H68V412H589V174H553V379Z" />
<glyph unicode="&#xad;" glyph-name="uni00AD" horiz-adv-x="401" d="M68 271H333V239H68V271Z" />
<glyph unicode="&#xae;" glyph-name="registered" horiz-adv-x="746" d="M282 35T213 74T106 184T68 349Q68 442 106 513T213 624T373 663Q464 663 533 624T640 514T678 349Q678 256 640 185T533 74T373 35Q282 35 213 74ZM454 65T515 100T611 200T645 349Q645
433 611 497T516 597T373 633Q292 633 231 598T135 498T101 349Q101 265 135 201T230 101T373 65Q454 65 515 100ZM251 542H424Q463 542 487 520T511 462V419Q511 389 494 368T444 338V337Q476 320 491 267L523 156H490L458 267Q440 327 389 327H284V156H251V542ZM400
357Q436 357 457 373T478 419V462Q478 485 463 498T422 512H284V357H400Z" />
<glyph unicode="&#xaf;" glyph-name="overscore" horiz-adv-x="342" d="M62 629H280V599H62V629Z" />
<glyph unicode="&#xb0;" glyph-name="degree" horiz-adv-x="390" d="M138 458T103 492T68 583Q68 639 103 673T195 708Q252 708 287 674T322 583Q322 527 287 493T195 458Q138 458 103 492ZM238 488T264 514T290 583Q290 626 264 652T195 678Q152 678 126 652T100
583Q100 540 126 514T195 488Q238 488 264 514Z" />
<glyph unicode="&#xb1;" glyph-name="plusminus" horiz-adv-x="566" d="M265 307H68V340H265V539H301V340H498V307H301V108H265V307ZM68 33H498V0H68V33Z" />
<glyph unicode="&#xb2;" glyph-name="uni00B2" horiz-adv-x="375" d="M63 321Q63 354 72 377T102 417L247 542Q260 554 268 570T276 602V622Q276 646 260 660T215 675H160Q129 675 111 654T92 599H60Q60 647 87 676T160 705H215Q257 705 283 682T309 622V602Q309
579 300 558T274 523L133 403Q111 384 104 366T96 319H315V289H63V321Z" />
<glyph unicode="&#xb3;" glyph-name="uni00B3" horiz-adv-x="388" d="M296 490T311 467T326 410V387Q326 340 297 312T220 284H163Q116 284 87 314T58 393H90Q90 358 110 336T163 314H220Q253 314 273 334T293 387V410Q293 444 273 464T218 485H164V515H218Q249
515 267 535T286 587V610Q286 639 268 657T221 675H164Q132 675 113 653T93 596H61Q61 645 89 675T164 705H221Q265 705 292 679T319 610V587Q319 558 306 535T269 500Q296 490 311 467Z" />
<glyph unicode="&#xb4;" glyph-name="acute" horiz-adv-x="250" d="M145 725H188L98 589H62L145 725Z" />
<glyph unicode="&#xb6;" glyph-name="paragraph" horiz-adv-x="564" d="M466 700V0H430V379H312V0H276V379H213Q151 379 115 415T78 512V567Q78 628 114 664T213 700H466Z" />
<glyph unicode="&#xb7;" glyph-name="middot" horiz-adv-x="208" d="M88 219T78 229T68 255Q68 272 78 281T104 291Q121 291 130 282T140 255Q140 239 131 229T104 219Q88 219 78 229Z" />
<glyph unicode="&#xb8;" glyph-name="cedilla" horiz-adv-x="254" d="M62 -168H102Q129 -168 144 -158T160 -131V-121Q160 -102 148 -92T112 -82H72V-52L99 10H131L104 -52H110Q149 -52 170 -70T192 -121V-131Q192 -163 169 -180T102 -198H62V-168Z" />
<glyph unicode="&#xb9;" glyph-name="uni00B9" horiz-adv-x="245" d="M138 666L42 616V649L137 700H171V289H138V666Z" />
<glyph unicode="&#xba;" glyph-name="ordmasculine" horiz-adv-x="432" d="M134 343T101 377T68 468V581Q68 637 101 671T189 706H243Q298 706 331 672T364 581V468Q364 412 331 378T244 343H188Q134 343 101 377ZM244 373Q283 373 307 399T331 468V581Q331 624
307 650T243 676H189Q149 676 125 650T101 581V468Q101 425 125 399T188 373H244Z" />
<glyph unicode="&#xbb;" glyph-name="guillemotright" horiz-adv-x="520" d="M68 73L242 268L68 463V512L287 268L68 24V73ZM253 73L427 268L253 463V512L472 268L253 24V73Z" />
<glyph unicode="&#xbc;" glyph-name="onequarter" horiz-adv-x="748" d="M164 666L68 616V649L163 700H197V289H164V666ZM523 722H559L177 -25H141L523 722ZM595 89H413Q397 89 397 104V125L599 411H628V119H680V89H628V0H595V89ZM597 118V359H596L427 118H597Z" />
<glyph unicode="&#xbd;" glyph-name="onehalf" horiz-adv-x="803" d="M164 666L68 616V649L163 700H197V289H164V666ZM483 32Q483 65 492 88T522 128L667 253Q680 265 688 281T696 313V333Q696 357 680 371T635 386H580Q549 386 531 365T512 310H480Q480 358 507
387T580 416H635Q677 416 703 393T729 333V313Q729 290 720 269T694 234L553 114Q531 95 524 77T516 30H735V0H483V32ZM523 722H559L177 -25H141L523 722Z" />
<glyph unicode="&#xbe;" glyph-name="threequarters" horiz-adv-x="841" d="M306 490T321 467T336 410V387Q336 340 307 312T230 284H173Q126 284 97 314T68 393H100Q100 358 120 336T173 314H230Q263 314 283 334T303 387V410Q303 444 283 464T228 485H174V515H228Q259
515 277 535T296 587V610Q296 639 278 657T231 675H174Q142 675 123 653T103 596H71Q71 645 99 675T174 705H231Q275 705 302 679T329 610V587Q329 558 316 535T279 500Q306 490 321 467ZM688 89H506Q490 89 490 104V125L692 411H721V119H773V89H721V0H688V89ZM690
118V359H689L520 118H690ZM632 722H668L286 -25H250L632 722Z" />
<glyph unicode="&#xbf;" glyph-name="questiondown" horiz-adv-x="551" d="M295 507T304 498T314 471Q314 455 305 445T278 435Q262 435 252 445T242 471Q242 488 252 497T278 507Q295 507 304 498ZM296 283Q296 245 282 216T246 165T191 117Q146 81 125 56T104
-7V-60Q104 -113 140 -145T236 -178H322Q386 -178 424 -145T463 -55H499Q499 -125 451 -168T322 -211H236Q160 -211 114 -170T68 -60V-7Q68 26 81 51T112 95T163 139Q211 177 235 208T260 287V336H296V283Z" />
<glyph unicode="&#xc0;" glyph-name="Agrave" horiz-adv-x="629" d="M477 213H152L72 0H34L299 700H316Q331 700 340 678L595 0H557L477 213ZM164 246H465L316 648H315L164 246ZM222 926H265L348 790H312L222 926Z" />
<glyph unicode="&#xc1;" glyph-name="Aacute" horiz-adv-x="629" d="M477 213H152L72 0H34L299 700H316Q331 700 340 678L595 0H557L477 213ZM164 246H465L316 648H315L164 246ZM374 926H417L327 790H291L374 926Z" />
<glyph unicode="&#xc2;" glyph-name="Acircumflex" horiz-adv-x="629" d="M477 213H152L72 0H34L299 700H316Q331 700 340 678L595 0H557L477 213ZM164 246H465L316 648H315L164 246ZM297 932H332L441 790H403L315 906L227 790H189L297 932Z" />
<glyph unicode="&#xc3;" glyph-name="Atilde" horiz-adv-x="629" d="M477 213H152L72 0H34L299 700H316Q331 700 340 678L595 0H557L477 213ZM164 246H465L316 648H315L164 246ZM352 783T337 792T304 818Q289 832 280 838T257 844H244Q228 844 217 832T205 798H172Q173
832 193 853T244 874H257Q281 874 296 865T329 839Q342 826 352 820T375 813H388Q403 813 413 825T425 859H458Q457 825 438 804T388 783H375Q352 783 337 792Z" />
<glyph unicode="&#xc4;" glyph-name="Adieresis" horiz-adv-x="629" d="M477 213H152L72 0H34L299 700H316Q331 700 340 678L595 0H557L477 213ZM164 246H465L316 648H315L164 246ZM213 790T204 799T195 823Q195 838 204 847T228 856Q243 856 252 847T261 823Q261
808 252 799T228 790Q213 790 204 799ZM387 790T378 799T369 823Q369 838 378 847T402 856Q417 856 426 847T435 823Q435 808 426 799T402 790Q387 790 378 799Z" />
<glyph unicode="&#xc5;" glyph-name="Aring" horiz-adv-x="629" d="M477 213H152L72 0H34L299 700H316Q331 700 340 678L595 0H557L477 213ZM164 246H465L316 648H315L164 246ZM272 784T246 809T220 877Q220 919 246 944T315 970Q358 970 384 945T410 877Q410
835 384 810T315 784Q272 784 246 809ZM344 813T361 831T379 877Q379 906 362 923T315 941Q286 941 269 924T251 877Q251 849 268 831T315 813Q344 813 361 831Z" />
<glyph unicode="&#xc6;" glyph-name="AE" horiz-adv-x="911" d="M408 700H849V667H463V374H809V341H463V33H849V0H463Q446 0 437 10T427 39V211H177L60 0H20L408 700ZM427 244V662H426L195 244H427Z" />
<glyph unicode="&#xc7;" glyph-name="Ccedilla" horiz-adv-x="646" d="M347 -8L328 -52H334Q373 -52 394 -70T416 -121V-131Q416 -163 393 -180T326 -198H286V-168H326Q353 -168 368 -158T384 -131V-121Q384 -102 372 -92T336 -82H296V-52L315 -8H278Q217 -8 171
22T98 108T72 235V465Q72 537 98 592T172 677T282 708H388Q479 708 534 652T590 503H555Q555 580 510 627T388 675H282Q231 675 192 649T130 575T108 465V235Q108 173 129 125T189 51T278 25H386Q463 25 510 76T557 213H592Q592 147 567 97T494 20T386 -8H347Z"
/>
<glyph unicode="&#xc8;" glyph-name="Egrave" horiz-adv-x="586" d="M111 0T102 10T92 39V700H524V667H128V374H494V341H128V33H524V0H128Q111 0 102 10ZM216 926H259L342 790H306L216 926Z" />
<glyph unicode="&#xc9;" glyph-name="Eacute" horiz-adv-x="586" d="M111 0T102 10T92 39V700H524V667H128V374H494V341H128V33H524V0H128Q111 0 102 10ZM368 926H411L321 790H285L368 926Z" />
<glyph unicode="&#xca;" glyph-name="Ecircumflex" horiz-adv-x="586" d="M111 0T102 10T92 39V700H524V667H128V374H494V341H128V33H524V0H128Q111 0 102 10ZM291 932H326L435 790H397L309 906L221 790H183L291 932Z" />
<glyph unicode="&#xcb;" glyph-name="Edieresis" horiz-adv-x="586" d="M111 0T102 10T92 39V700H524V667H128V374H494V341H128V33H524V0H128Q111 0 102 10ZM207 790T198 799T189 823Q189 838 198 847T222 856Q237 856 246 847T255 823Q255 808 246 799T222 790Q207
790 198 799ZM381 790T372 799T363 823Q363 838 372 847T396 856Q411 856 420 847T429 823Q429 808 420 799T396 790Q381 790 372 799Z" />
<glyph unicode="&#xcc;" glyph-name="Igrave" horiz-adv-x="240" d="M102 700H138V0H102V700ZM27 926H70L153 790H117L27 926Z" />
<glyph unicode="&#xcd;" glyph-name="Iacute" horiz-adv-x="240" d="M102 700H138V0H102V700ZM179 926H222L132 790H96L179 926Z" />
<glyph unicode="&#xce;" glyph-name="Icircumflex" horiz-adv-x="240" d="M102 700H138V0H102V700ZM102 932H137L246 790H208L120 906L32 790H-6L102 932Z" />
<glyph unicode="&#xcf;" glyph-name="Idieresis" horiz-adv-x="240" d="M102 700H138V0H102V700ZM18 790T9 799T0 823Q0 838 9 847T33 856Q48 856 57 847T66 823Q66 808 57 799T33 790Q18 790 9 799ZM192 790T183 799T174 823Q174 838 183 847T207 856Q222 856
231 847T240 823Q240 808 231 799T207 790Q192 790 183 799Z" />
<glyph unicode="&#xd0;" glyph-name="Eth" horiz-adv-x="716" d="M482 700T535 673T618 596T648 481V239Q648 121 589 61T416 0H184Q167 0 158 9T148 36V330H38V362H148V700H412Q482 700 535 673ZM612 481Q612 565 557 616T412 667H184V362H411V330H184V33H416Q513
33 562 85T612 239V481Z" />
<glyph unicode="&#xd1;" glyph-name="Ntilde" horiz-adv-x="676" d="M92 700H129L549 57V700H584V0H547L126 643V0H92V700ZM375 783T360 792T327 818Q312 832 303 838T280 844H267Q251 844 240 832T228 798H195Q196 832 216 853T267 874H280Q304 874 319 865T352
839Q365 826 375 820T398 813H411Q426 813 436 825T448 859H481Q480 825 461 804T411 783H398Q375 783 360 792Z" />
<glyph unicode="&#xd2;" glyph-name="Ograve" horiz-adv-x="682" d="M224 -8T175 21T99 105T72 229V471Q72 541 99 595T175 678T290 708H392Q457 708 506 679T583 595T610 471V229Q610 159 583 105T506 22T391 -8H289Q224 -8 175 21ZM391 25Q445 25 486 50T551
122T574 229V471Q574 531 552 577T488 649T392 675H290Q236 675 195 650T131 578T108 471V229Q108 137 157 81T289 25H391ZM248 926H291L374 790H338L248 926Z" />
<glyph unicode="&#xd3;" glyph-name="Oacute" horiz-adv-x="682" d="M224 -8T175 21T99 105T72 229V471Q72 541 99 595T175 678T290 708H392Q457 708 506 679T583 595T610 471V229Q610 159 583 105T506 22T391 -8H289Q224 -8 175 21ZM391 25Q445 25 486 50T551
122T574 229V471Q574 531 552 577T488 649T392 675H290Q236 675 195 650T131 578T108 471V229Q108 137 157 81T289 25H391ZM400 926H443L353 790H317L400 926Z" />
<glyph unicode="&#xd4;" glyph-name="Ocircumflex" horiz-adv-x="682" d="M224 -8T175 21T99 105T72 229V471Q72 541 99 595T175 678T290 708H392Q457 708 506 679T583 595T610 471V229Q610 159 583 105T506 22T391 -8H289Q224 -8 175 21ZM391 25Q445 25 486 50T551
122T574 229V471Q574 531 552 577T488 649T392 675H290Q236 675 195 650T131 578T108 471V229Q108 137 157 81T289 25H391ZM323 932H358L467 790H429L341 906L253 790H215L323 932Z" />
<glyph unicode="&#xd5;" glyph-name="Otilde" horiz-adv-x="682" d="M224 -8T175 21T99 105T72 229V471Q72 541 99 595T175 678T290 708H392Q457 708 506 679T583 595T610 471V229Q610 159 583 105T506 22T391 -8H289Q224 -8 175 21ZM391 25Q445 25 486 50T551
122T574 229V471Q574 531 552 577T488 649T392 675H290Q236 675 195 650T131 578T108 471V229Q108 137 157 81T289 25H391ZM378 783T363 792T330 818Q315 832 306 838T283 844H270Q254 844 243 832T231 798H198Q199 832 219 853T270 874H283Q307 874 322 865T355
839Q368 826 378 820T401 813H414Q429 813 439 825T451 859H484Q483 825 464 804T414 783H401Q378 783 363 792Z" />
<glyph unicode="&#xd6;" glyph-name="Odieresis" horiz-adv-x="682" d="M224 -8T175 21T99 105T72 229V471Q72 541 99 595T175 678T290 708H392Q457 708 506 679T583 595T610 471V229Q610 159 583 105T506 22T391 -8H289Q224 -8 175 21ZM391 25Q445 25 486 50T551
122T574 229V471Q574 531 552 577T488 649T392 675H290Q236 675 195 650T131 578T108 471V229Q108 137 157 81T289 25H391ZM239 790T230 799T221 823Q221 838 230 847T254 856Q269 856 278 847T287 823Q287 808 278 799T254 790Q239 790 230 799ZM413 790T404 799T395
823Q395 838 404 847T428 856Q443 856 452 847T461 823Q461 808 452 799T428 790Q413 790 404 799Z" />
<glyph unicode="&#xd7;" glyph-name="multiply" horiz-adv-x="526" d="M68 144L240 315L68 487L91 511L263 339L434 511L457 487L287 315L458 144L435 120L263 292L91 120L68 144Z" />
<glyph unicode="&#xd8;" glyph-name="Oslash" horiz-adv-x="682" d="M555 637Q610 573 610 471V229Q610 159 583 105T506 22T391 -8H289Q211 -8 154 36L106 -37H65L129 60Q72 125 72 229V471Q72 541 99 595T175 678T290 708H392Q473 708 530 662L575 729H616L555
637ZM108 145T150 91L511 632Q463 675 392 675H290Q236 675 195 650T131 578T108 471V229Q108 145 150 91ZM574 552T534 606L174 65Q220 25 289 25H391Q445 25 486 50T551 122T574 229V471Q574 552 534 606Z" />
<glyph unicode="&#xd9;" glyph-name="Ugrave" horiz-adv-x="678" d="M226 -8T182 18T113 93T88 204V700H124V204Q124 124 168 75T284 25H394Q466 25 510 74T554 204V700H590V204Q590 141 566 93T497 19T394 -8H284Q226 -8 182 18ZM246 926H289L372 790H336L246 926Z" />
<glyph unicode="&#xda;" glyph-name="Uacute" horiz-adv-x="678" d="M226 -8T182 18T113 93T88 204V700H124V204Q124 124 168 75T284 25H394Q466 25 510 74T554 204V700H590V204Q590 141 566 93T497 19T394 -8H284Q226 -8 182 18ZM398 926H441L351 790H315L398 926Z" />
<glyph unicode="&#xdb;" glyph-name="Ucircumflex" horiz-adv-x="678" d="M226 -8T182 18T113 93T88 204V700H124V204Q124 124 168 75T284 25H394Q466 25 510 74T554 204V700H590V204Q590 141 566 93T497 19T394 -8H284Q226 -8 182 18ZM321 932H356L465 790H427L339
906L251 790H213L321 932Z" />
<glyph unicode="&#xdc;" glyph-name="Udieresis" horiz-adv-x="678" d="M226 -8T182 18T113 93T88 204V700H124V204Q124 124 168 75T284 25H394Q466 25 510 74T554 204V700H590V204Q590 141 566 93T497 19T394 -8H284Q226 -8 182 18ZM237 790T228 799T219 823Q219
838 228 847T252 856Q267 856 276 847T285 823Q285 808 276 799T252 790Q237 790 228 799ZM411 790T402 799T393 823Q393 838 402 847T426 856Q441 856 450 847T459 823Q459 808 450 799T426 790Q411 790 402 799Z" />
<glyph unicode="&#xdd;" glyph-name="Yacute" horiz-adv-x="606" d="M285 267L28 700H67L303 300L539 700H578L321 267V0H285V267ZM362 926H405L315 790H279L362 926Z" />
<glyph unicode="&#xde;" glyph-name="Thorn" horiz-adv-x="624" d="M481 561T523 524T566 424V305Q566 237 521 196T401 154H128V0H92V700H128V561H411Q481 561 523 524ZM530 424Q530 471 497 499T411 528H128V187H401Q459 187 494 219T530 305V424Z" />
<glyph unicode="&#xdf;" glyph-name="germandbls" horiz-adv-x="659" d="M355 -8T319 26T283 117H318Q318 72 343 48T418 24H469Q517 24 546 50T576 119V149Q576 185 554 209T487 264Q441 296 417 322T393 389V410Q393 467 423 495T518 525Q518 591 479 631T377
671H304Q233 671 189 631T145 524V0H110V437H24V469H110V524Q110 604 163 653T304 703H377Q455 703 503 654T552 525V493H510Q428 493 428 410V389Q428 360 448 339T509 289Q559 254 585 225T611 149V119Q611 61 572 27T469 -8H418Q355 -8 319 26Z" />
<glyph unicode="&#xe0;" glyph-name="agrave" horiz-adv-x="540" d="M151 -8T111 27T70 120V164Q70 222 110 256T219 291H286Q321 291 359 279T423 245V356Q423 409 392 442T311 475H235Q183 475 151 451T119 387H84Q84 441 125 474T235 507H311Q377 507 417 466T458
356V0H424V85Q394 41 356 17T280 -8H217Q151 -8 111 27ZM280 24Q317 24 356 55T423 136V207Q400 230 362 244T286 259H219Q167 259 136 234T105 164V120Q105 77 136 51T217 24H280ZM181 725H224L307 589H271L181 725Z" />
<glyph unicode="&#xe1;" glyph-name="aacute" horiz-adv-x="540" d="M151 -8T111 27T70 120V164Q70 222 110 256T219 291H286Q321 291 359 279T423 245V356Q423 409 392 442T311 475H235Q183 475 151 451T119 387H84Q84 441 125 474T235 507H311Q377 507 417 466T458
356V0H424V85Q394 41 356 17T280 -8H217Q151 -8 111 27ZM280 24Q317 24 356 55T423 136V207Q400 230 362 244T286 259H219Q167 259 136 234T105 164V120Q105 77 136 51T217 24H280ZM333 725H376L286 589H250L333 725Z" />
<glyph unicode="&#xe2;" glyph-name="acircumflex" horiz-adv-x="540" d="M151 -8T111 27T70 120V164Q70 222 110 256T219 291H286Q321 291 359 279T423 245V356Q423 409 392 442T311 475H235Q183 475 151 451T119 387H84Q84 441 125 474T235 507H311Q377 507
417 466T458 356V0H424V85Q394 41 356 17T280 -8H217Q151 -8 111 27ZM280 24Q317 24 356 55T423 136V207Q400 230 362 244T286 259H219Q167 259 136 234T105 164V120Q105 77 136 51T217 24H280ZM256 731H291L400 589H362L274 705L186 589H148L256 731Z" />
<glyph unicode="&#xe3;" glyph-name="atilde" horiz-adv-x="540" d="M151 -8T111 27T70 120V164Q70 222 110 256T219 291H286Q321 291 359 279T423 245V356Q423 409 392 442T311 475H235Q183 475 151 451T119 387H84Q84 441 125 474T235 507H311Q377 507 417 466T458
356V0H424V85Q394 41 356 17T280 -8H217Q151 -8 111 27ZM280 24Q317 24 356 55T423 136V207Q400 230 362 244T286 259H219Q167 259 136 234T105 164V120Q105 77 136 51T217 24H280ZM311 582T296 591T263 617Q248 631 239 637T216 643H203Q187 643 176 631T164 597H131Q132
631 152 652T203 673H216Q240 673 255 664T288 638Q301 625 311 619T334 612H347Q362 612 372 624T384 658H417Q416 624 397 603T347 582H334Q311 582 296 591Z" />
<glyph unicode="&#xe4;" glyph-name="adieresis" horiz-adv-x="540" d="M151 -8T111 27T70 120V164Q70 222 110 256T219 291H286Q321 291 359 279T423 245V356Q423 409 392 442T311 475H235Q183 475 151 451T119 387H84Q84 441 125 474T235 507H311Q377 507 417
466T458 356V0H424V85Q394 41 356 17T280 -8H217Q151 -8 111 27ZM280 24Q317 24 356 55T423 136V207Q400 230 362 244T286 259H219Q167 259 136 234T105 164V120Q105 77 136 51T217 24H280ZM172 589T163 598T154 622Q154 637 163 646T187 655Q202 655 211 646T220
622Q220 607 211 598T187 589Q172 589 163 598ZM346 589T337 598T328 622Q328 637 337 646T361 655Q376 655 385 646T394 622Q394 607 385 598T361 589Q346 589 337 598Z" />
<glyph unicode="&#xe5;" glyph-name="aring" horiz-adv-x="540" d="M151 -8T111 27T70 120V164Q70 222 110 256T219 291H286Q321 291 359 279T423 245V356Q423 409 392 442T311 475H235Q183 475 151 451T119 387H84Q84 441 125 474T235 507H311Q377 507 417 466T458
356V0H424V85Q394 41 356 17T280 -8H217Q151 -8 111 27ZM280 24Q317 24 356 55T423 136V207Q400 230 362 244T286 259H219Q167 259 136 234T105 164V120Q105 77 136 51T217 24H280ZM231 583T205 608T179 676Q179 718 205 743T274 769Q317 769 343 744T369 676Q369
634 343 609T274 583Q231 583 205 608ZM303 612T320 630T338 676Q338 705 321 722T274 740Q245 740 228 723T210 676Q210 648 227 630T274 612Q303 612 320 630Z" />
<glyph unicode="&#xe6;" glyph-name="ae" horiz-adv-x="887" d="M151 -8T111 27T70 120V164Q70 222 110 256T219 291H286Q321 291 359 279T423 246V356Q423 409 392 442T311 475H235Q183 475 151 451T119 387H84Q84 441 125 474T235 507H311Q359 507 393 485T445
424H446Q466 464 503 485T588 507H664Q737 507 781 459T825 331V250H458V161Q458 99 494 62T589 24H659Q717 24 752 59T788 151H823Q823 80 778 36T659 -8H589Q536 -8 494 20T435 95H434Q406 48 364 20T280 -8H217Q151 -8 111 27ZM790 281V331Q790 396 756 435T664
475H588Q529 475 494 435T458 327V281H790ZM279 24Q319 24 360 57T423 143V207Q400 230 362 244T286 259H219Q167 259 136 234T105 164V120Q105 77 136 51T217 24H279Z" />
<glyph unicode="&#xe7;" glyph-name="ccedilla" horiz-adv-x="522" d="M282 -8L263 -52H269Q308 -52 329 -70T351 -121V-131Q351 -163 328 -180T261 -198H221V-168H261Q288 -168 303 -158T319 -131V-121Q319 -102 307 -92T271 -82H231V-52L250 -8H231Q158 -8 113
38T68 162V327Q68 408 112 457T230 507H312Q381 507 423 470T465 373H431Q431 419 398 447T312 475H230Q173 475 138 435T103 327V162Q103 100 138 62T231 24H313Q368 24 401 60T434 157H468Q468 83 426 38T313 -8H282Z" />
<glyph unicode="&#xe8;" glyph-name="egrave" horiz-adv-x="538" d="M159 -8T114 38T68 161V327Q68 408 113 457T233 507H315Q388 507 432 459T476 331V250H103V161Q103 99 139 62T234 24H310Q368 24 403 59T439 151H474Q474 80 429 36T310 -8H234Q159 -8 114
38ZM441 281V331Q441 396 407 435T315 475H233Q174 475 139 435T103 327V281H441ZM178 725H221L304 589H268L178 725Z" />
<glyph unicode="&#xe9;" glyph-name="eacute" horiz-adv-x="538" d="M159 -8T114 38T68 161V327Q68 408 113 457T233 507H315Q388 507 432 459T476 331V250H103V161Q103 99 139 62T234 24H310Q368 24 403 59T439 151H474Q474 80 429 36T310 -8H234Q159 -8 114
38ZM441 281V331Q441 396 407 435T315 475H233Q174 475 139 435T103 327V281H441ZM330 725H373L283 589H247L330 725Z" />
<glyph unicode="&#xea;" glyph-name="ecircumflex" horiz-adv-x="538" d="M159 -8T114 38T68 161V327Q68 408 113 457T233 507H315Q388 507 432 459T476 331V250H103V161Q103 99 139 62T234 24H310Q368 24 403 59T439 151H474Q474 80 429 36T310 -8H234Q159 -8
114 38ZM441 281V331Q441 396 407 435T315 475H233Q174 475 139 435T103 327V281H441ZM253 731H288L397 589H359L271 705L183 589H145L253 731Z" />
<glyph unicode="&#xeb;" glyph-name="edieresis" horiz-adv-x="538" d="M159 -8T114 38T68 161V327Q68 408 113 457T233 507H315Q388 507 432 459T476 331V250H103V161Q103 99 139 62T234 24H310Q368 24 403 59T439 151H474Q474 80 429 36T310 -8H234Q159 -8 114
38ZM441 281V331Q441 396 407 435T315 475H233Q174 475 139 435T103 327V281H441ZM169 589T160 598T151 622Q151 637 160 646T184 655Q199 655 208 646T217 622Q217 607 208 598T184 589Q169 589 160 598ZM343 589T334 598T325 622Q325 637 334 646T358 655Q373
655 382 646T391 622Q391 607 382 598T358 589Q343 589 334 598Z" />
<glyph unicode="&#xec;" glyph-name="igrave" horiz-adv-x="219" d="M92 499H127V0H92V499ZM17 725H60L143 589H107L17 725Z" />
<glyph unicode="&#xed;" glyph-name="iacute" horiz-adv-x="219" d="M92 499H127V0H92V499ZM169 725H212L122 589H86L169 725Z" />
<glyph unicode="&#xee;" glyph-name="icircumflex" horiz-adv-x="219" d="M92 499H127V0H92V499ZM92 731H127L236 589H198L110 705L22 589H-16L92 731Z" />
<glyph unicode="&#xef;" glyph-name="idieresis" horiz-adv-x="219" d="M92 499H127V0H92V499ZM8 589T-1 598T-10 622Q-10 637 -1 646T23 655Q38 655 47 646T56 622Q56 607 47 598T23 589Q8 589 -1 598ZM182 589T173 598T164 622Q164 637 173 646T197 655Q212
655 221 646T230 622Q230 607 221 598T197 589Q182 589 173 598Z" />
<glyph unicode="&#xf0;" glyph-name="eth" horiz-adv-x="575" d="M457 670T485 592T513 389V202Q513 140 489 92T420 18T319 -8H247Q164 -8 113 44T62 182V315Q62 405 112 460T245 515H315Q371 515 414 488T480 411H481Q478 519 454 585T376 684L315 605H279L351
697Q295 722 206 722H180V754H206Q308 754 371 723L420 786H456L396 709Q457 670 485 592ZM478 299Q478 351 457 393T397 459T314 483H245Q178 483 138 437T97 315V182Q97 111 139 68T249 24H317Q390 24 434 73T478 202V299Z" />
<glyph unicode="&#xf1;" glyph-name="ntilde" horiz-adv-x="558" d="M88 499H122V402Q150 453 189 480T271 507H337Q399 507 437 463T476 345V0H441V345Q441 403 413 439T337 475H271Q228 475 187 438T123 340V0H88V499ZM316 582T301 591T268 617Q253 631 244
637T221 643H208Q192 643 181 631T169 597H136Q137 631 157 652T208 673H221Q245 673 260 664T293 638Q306 625 316 619T339 612H352Q367 612 377 624T389 658H422Q421 624 402 603T352 582H339Q316 582 301 591Z" />
<glyph unicode="&#xf2;" glyph-name="ograve" horiz-adv-x="556" d="M161 -8T115 41T68 169V330Q68 409 115 458T240 507H315Q393 507 440 459T488 330V169Q488 89 440 41T313 -8H237Q161 -8 115 41ZM313 24Q376 24 414 64T453 169V330Q453 395 415 435T315 475H240Q178
475 141 435T103 330V169Q103 104 140 64T237 24H313ZM185 725H228L311 589H275L185 725Z" />
<glyph unicode="&#xf3;" glyph-name="oacute" horiz-adv-x="556" d="M161 -8T115 41T68 169V330Q68 409 115 458T240 507H315Q393 507 440 459T488 330V169Q488 89 440 41T313 -8H237Q161 -8 115 41ZM313 24Q376 24 414 64T453 169V330Q453 395 415 435T315 475H240Q178
475 141 435T103 330V169Q103 104 140 64T237 24H313ZM337 725H380L290 589H254L337 725Z" />
<glyph unicode="&#xf4;" glyph-name="ocircumflex" horiz-adv-x="556" d="M161 -8T115 41T68 169V330Q68 409 115 458T240 507H315Q393 507 440 459T488 330V169Q488 89 440 41T313 -8H237Q161 -8 115 41ZM313 24Q376 24 414 64T453 169V330Q453 395 415 435T315
475H240Q178 475 141 435T103 330V169Q103 104 140 64T237 24H313ZM260 731H295L404 589H366L278 705L190 589H152L260 731Z" />
<glyph unicode="&#xf5;" glyph-name="otilde" horiz-adv-x="556" d="M161 -8T115 41T68 169V330Q68 409 115 458T240 507H315Q393 507 440 459T488 330V169Q488 89 440 41T313 -8H237Q161 -8 115 41ZM313 24Q376 24 414 64T453 169V330Q453 395 415 435T315 475H240Q178
475 141 435T103 330V169Q103 104 140 64T237 24H313ZM315 582T300 591T267 617Q252 631 243 637T220 643H207Q191 643 180 631T168 597H135Q136 631 156 652T207 673H220Q244 673 259 664T292 638Q305 625 315 619T338 612H351Q366 612 376 624T388 658H421Q420
624 401 603T351 582H338Q315 582 300 591Z" />
<glyph unicode="&#xf6;" glyph-name="odieresis" horiz-adv-x="556" d="M161 -8T115 41T68 169V330Q68 409 115 458T240 507H315Q393 507 440 459T488 330V169Q488 89 440 41T313 -8H237Q161 -8 115 41ZM313 24Q376 24 414 64T453 169V330Q453 395 415 435T315
475H240Q178 475 141 435T103 330V169Q103 104 140 64T237 24H313ZM176 589T167 598T158 622Q158 637 167 646T191 655Q206 655 215 646T224 622Q224 607 215 598T191 589Q176 589 167 598ZM350 589T341 598T332 622Q332 637 341 646T365 655Q380 655 389 646T398
622Q398 607 389 598T365 589Q350 589 341 598Z" />
<glyph unicode="&#xf7;" glyph-name="divide" horiz-adv-x="544" d="M256 420T247 429T237 455Q237 472 246 481T272 491Q288 491 297 482T307 455Q307 439 298 430T272 420Q256 420 247 429ZM68 340H476V307H68V340ZM256 156T247 165T237 192Q237 208 246 217T272
227Q288 227 297 218T307 192Q307 175 298 166T272 156Q256 156 247 165Z" />
<glyph unicode="&#xf8;" glyph-name="oslash" horiz-adv-x="556" d="M441 457Q488 408 488 330V169Q488 89 440 41T313 -8H237Q179 -8 138 21L100 -33H62L114 42Q68 90 68 169V330Q68 409 115 458T240 507H315Q376 507 417 478L456 533H494L441 457ZM103 110T134
71L398 450Q364 475 315 475H240Q178 475 141 435T103 330V169Q103 110 134 71ZM453 390T421 428L157 49Q191 24 237 24H313Q376 24 414 64T453 169V330Q453 390 421 428Z" />
<glyph unicode="&#xf9;" glyph-name="ugrave" horiz-adv-x="556" d="M159 -8T121 34T82 146V499H117V146Q117 91 145 58T221 24H283Q311 24 342 45T399 101T433 172V499H468V0H434V103Q406 54 365 23T284 -8H221Q159 -8 121 34ZM185 725H228L311 589H275L185 725Z" />
<glyph unicode="&#xfa;" glyph-name="uacute" horiz-adv-x="556" d="M159 -8T121 34T82 146V499H117V146Q117 91 145 58T221 24H283Q311 24 342 45T399 101T433 172V499H468V0H434V103Q406 54 365 23T284 -8H221Q159 -8 121 34ZM337 725H380L290 589H254L337 725Z" />
<glyph unicode="&#xfb;" glyph-name="ucircumflex" horiz-adv-x="556" d="M159 -8T121 34T82 146V499H117V146Q117 91 145 58T221 24H283Q311 24 342 45T399 101T433 172V499H468V0H434V103Q406 54 365 23T284 -8H221Q159 -8 121 34ZM260 731H295L404 589H366L278
705L190 589H152L260 731Z" />
<glyph unicode="&#xfc;" glyph-name="udieresis" horiz-adv-x="556" d="M159 -8T121 34T82 146V499H117V146Q117 91 145 58T221 24H283Q311 24 342 45T399 101T433 172V499H468V0H434V103Q406 54 365 23T284 -8H221Q159 -8 121 34ZM176 589T167 598T158 622Q158
637 167 646T191 655Q206 655 215 646T224 622Q224 607 215 598T191 589Q176 589 167 598ZM350 589T341 598T332 622Q332 637 341 646T365 655Q380 655 389 646T398 622Q398 607 389 598T365 589Q350 589 341 598Z" />
<glyph unicode="&#xfd;" glyph-name="yacute" horiz-adv-x="558" d="M172 -203T135 -174T93 -96H128Q132 -130 159 -150T229 -171H309Q366 -171 400 -131T435 -26V103Q405 55 365 28T286 0H221Q159 0 121 42T82 154V499H117V154Q117 99 145 66T221 32H284Q312
32 343 51T399 101T435 169V499H470V-26Q470 -106 426 -154T309 -203H229Q172 -203 135 -174ZM338 725H381L291 589H255L338 725Z" />
<glyph unicode="&#xfe;" glyph-name="thorn" horiz-adv-x="564" d="M88 700H123V414Q145 457 182 482T260 507H335Q408 507 452 460T496 335V184Q496 97 451 45T330 -8H260Q220 -8 182 15T123 75V-199H88V700ZM330 24Q389 24 425 67T462 184V335Q462 397 427 436T335
475H260Q214 475 176 438T123 341V157Q133 97 171 61T262 24H330Z" />
<glyph unicode="&#xff;" glyph-name="ydieresis" horiz-adv-x="558" d="M172 -203T135 -174T93 -96H128Q132 -130 159 -150T229 -171H309Q366 -171 400 -131T435 -26V103Q405 55 365 28T286 0H221Q159 0 121 42T82 154V499H117V154Q117 99 145 66T221 32H284Q312
32 343 51T399 101T435 169V499H470V-26Q470 -106 426 -154T309 -203H229Q172 -203 135 -174ZM177 589T168 598T159 622Q159 637 168 646T192 655Q207 655 216 646T225 622Q225 607 216 598T192 589Q177 589 168 598ZM351 589T342 598T333 622Q333 637 342 646T366
655Q381 655 390 646T399 622Q399 607 390 598T366 589Q351 589 342 598Z" />
<glyph unicode="&#x2013;" glyph-name="endash" horiz-adv-x="628" d="M68 271H560V239H68V271Z" />
<glyph unicode="&#x2014;" glyph-name="emdash" horiz-adv-x="733" d="M68 271H665V239H68V271Z" />
<glyph unicode="&#x2018;" glyph-name="quoteleft" horiz-adv-x="220" d="M164 678L153 671Q121 651 108 626T94 563V518H58V563Q58 613 75 645T134 702L144 708L164 678Z" />
<glyph unicode="&#x2019;" glyph-name="quoteright" horiz-adv-x="220" d="M56 549L67 556Q99 576 112 601T126 664V709H162V664Q162 614 145 582T86 525L76 519L56 549Z" />
<glyph unicode="&#x201a;" glyph-name="quotesinglbase" horiz-adv-x="200" d="M24 165L35 172Q67 192 80 217T94 280V325H130V280Q130 230 113 198T54 141L44 135L24 165Z" />
<glyph unicode="&#x201c;" glyph-name="quotedblleft" horiz-adv-x="358" d="M164 678L153 671Q121 651 108 626T94 563V518H58V563Q58 613 75 645T134 702L144 708L164 678ZM302 678L291 671Q259 651 246 626T232 563V518H196V563Q196 613 213 645T272 702L282
708L302 678Z" />
<glyph unicode="&#x201d;" glyph-name="quotedblright" horiz-adv-x="358" d="M56 549L67 556Q99 576 112 601T126 664V709H162V664Q162 614 145 582T86 525L76 519L56 549ZM194 549L205 556Q237 576 250 601T264 664V709H300V664Q300 614 283 582T224 525L214
519L194 549Z" />
<glyph unicode="&#x201e;" glyph-name="quotedblbase" horiz-adv-x="338" d="M24 165L35 172Q67 192 80 217T94 280V325H130V280Q130 230 113 198T54 141L44 135L24 165ZM162 -91L173 -84Q205 -64 218 -39T232 24V69H268V24Q268 -26 251 -58T192 -115L182 -121L162 -91Z" />
<glyph unicode="&#x2022;" glyph-name="bullet" horiz-adv-x="272" d="M105 211T87 229T68 279Q68 310 86 328T136 347Q167 347 185 329T204 279Q204 248 186 230T136 211Q105 211 87 229Z" />
<glyph unicode="&#x2039;" glyph-name="guilsinglleft" horiz-adv-x="335" d="M48 268L267 512V463L93 268L267 73V24L48 268Z" />
<glyph unicode="&#x203a;" glyph-name="guilsinglright" horiz-adv-x="335" d="M68 73L242 268L68 463V512L287 268L68 24V73Z" />
</font>
</defs>
</svg>
